<svg xmlns="http://www.w3.org/2000/svg" xmlns:xlink="http://www.w3.org/1999/xlink" width="100%" height="100%" viewBox="0 0 288 288" preserveAspectRatio="xMidYMid meet" ><g style="fill:rgb(32,34,31);fill-rule:evenodd;stroke:rgb(32,34,31);stroke-width:0.1;" id="l1"><path d="M3,0h18v1q-1,0,18,11v2l-1,1l-4,1h-1v3q-1,0,19,2l5,5v-2h1l-4-3v-4l2-1h2l21,11l1,1v3l-1,1l-4,1h-5h1v1h-71v-30z"/><path d="M122,0h3l2,1v1h-4l-1-1zm6,0h1v1h-1zm-88,3h7v2l-1,1h-8v-2zm41,2h1l1,5v1h-2l-2-1v-2zm21,0h1l2,1v1h-2l-1-1zm9,2h2v2l-1,1h-1l1,1v2h-1l-1-2v-1zm8,0h2l3,3v7l-5,4l-2,1l-3,1h-2l-1-5v-4l3-6zm161,0h2v2l-1,1l-6,4h-2v-3l1-1zm6,3h2v4h-1l-1-2z"/><path d="M251,12h4v4l-1,3h-3zm31,0h1v1l-6,8h-1l-5-1l8,8v2h-6l-11-6v-1l1-1l9-4l-2,1h-1v-1l1-2zm-234,1h1v2h-1zm35,0h1l2,1v2h-1l-2-2zm197,8h1l1,1v1h-1l-1-1zm-179,2h4l1,1v2l-1,3l-2,2h-1l-2-3v-2z"/><path d="M284,24h1l1,2v1h-1l-1-1zm3,0h1v3h-1zm-3,4h2l2,1v4h-2l-2-1zm-198,2h1v3h-1l-1-1v-1zm10,1h1l1,1v1h-3v-1zm18,0h1l1,1v1h-1l-1-1zm-13,1h1l1,1v2h-1l-1-2v3h-1v-3zm166,0h5l5,2v4l-1,1h-1l-5-2l-4-2v-2zm-160,1h2v2l-1,2h-1zm90,0h1v1l-1,1h-3v-1zm2,0h3l12,3l1,1v3l-3,1l-12,1h-2l-7-4v-2l1-1h9h-2z"/><path d="M204,45h3v2h-3zm69,3h3l2,1v1h-3l-2-1zm-22,4h4l14,4l5,2l14,14v35l-28,2l-32,1l45-2h1l6,1l4,1l4,2v97h-2l-4-1l-21-12v-4l1-1l4-3h3l7,1l-22-1l-16-13l-2-2l-1-2l-1-3v-1l13-6l9-3h1l7,5l10,15v-1q3,0-42-26v-2l4-21c-3,0-3,1-7,56h-1q0-1-10,14l-8,12h-1l-1-1v-1v4l-1,2l-1,1l-9,6l-2,1h-1l-1-1v-1l2-8h-1v2l-1,1h-2v-1l4-4h1l3,3l-1-1v-1l1-1h-1v-2l-1,1l-5,3h-1v-1c1-1,0-1-1-2v-3l1-1l-8,8h-1l-6-2v1h1c0,3,1,3,3,4v1l-1,1h2v2l-4,2h-3l-1-1v-1h4h-1v-1q3,0-2-1v-1h1h-4l-5-1l-1-1v-1l3-1q1,0-7-1l-1-2v-1l1-1h1v2l1-3l3-3h2l3,1l2,3v3v-1h1v1l-2,4v-14h2l3,4v1l-1,1l1-6h1l1,1v1h2l-1-1l-2-3v-1l2-2h1v1l-1,1h1v4l2-5l1-2h4v2l-1,1h-1v3l1-2h1v3l1-1h1v2h1l-2-3v-2l2-2h1l5,2l4,12v1h1l-3-3v-1l2-4h2l1,1l2,6l-2-3l-4-7l-1-7l-2-21v-2l1-1h1l5,1l2,2l1,9q0,1,16-105l-3,5h-4l-7-1v-1l2-2l9-6l-5,1h-2v-1l1-2l22-15l12-1h4h-1z"/><path d="M173,54h2l3,1v1l-5,1h-1v-2zm-4,2h2v2h4v1h-4l-2-2zm-7,1h1v1l-1,1h-2v-1zm15,1h6l1,1l2,11v1l-5,13h-5l-3-10v-1l4-1h-1v-1l3-1h2l1,1l-4-1v-1l1-7h1v2l1-3l2-2l-3,1h-2l-1-1z"/><path d="M186,59h3v1h-3zm8,0h3v1h-2v2h-1zm11,0h1l2,1v1l-1,1l-3,1h-2v-1zm-62,1h4l10,1l2,1l1,1v1l-1,1h-9l-6-1l6,4v2l-6,5h-1v-4v1h-1v-11zm32,0h2v1h-2zm-5,1h1l1,1v1h-2zm27,0h1v1l1-1h1v1l-1,1h-1l-1-1zm-7,2h2v2h-1l-1-1zm-23,1h1v1l-1,1h-1v-1zm34,0h2v1h-2z"/><path d="M19,65h2v2l-4,2h-2l-1-1v-1zm136,0h2v1h-2zm54,0h2v1h-2zm-58,1h2v1h-2zm41,0h2v2l-1,1h-1zm14,1h8v1l-2,1h-7v-1zm-70,1h1l2,1v2c-2,0-1,0,1,1v4l-1,1h-1l-4-4v-3zm54,0h1v1l-1,7h-1l-2-1l-1-1v-1l3-4zm12,0h2v1l-1,1h-2v-1zm-4,1h1l1,1v1h-1l-1-1zm9,1h4l1,1v1l-1,1h-1l-1-2v2h-2zm59,1h1l2,1v1h-3zm-149,1h1l1,1v1h-2z"/><path d="M132,72h1v2h-1zm59,0h3v1l-2,4h-1zm21,1h2v1h-2zm-57,1h2v1h-2zm-107,1h2v1h-2zm86,0h2v5l-9,11l1-1h2l2,1l-1-1v-2l2-2l3-2h1v1l-1,3h-1q0-1-6,20l-7,5h-1l-1-5v-2l2-10l2-6l3-5l4-6l1-1h1v1l-1,1z"/><path d="M170,75h3v1l-1,1h-1l-1-1zm28,0h1v3h-1zm9,0h3v2l-2,5l-2,1l2-1h2v1q-1,0,4,1l5,3v2h-2l-7-2l-6-2v-5l1-3zm-55,1h1v3l-5,13l-1,1h-1v-4h-1q0-1-1,7h1v-2l8-9l1-1h1v1l-1,15h-1l-1-1q0-1-1,6l-2,2h-5l-2-11v3c-2,0-1,1-1,2h-2v1h2l1,1v1h-1v-1v4l-1,1h2v2l1-2h1l1,2v1l6-3h1v1l-18,31h-3l-1-1l-8-21v-1l2-2h5l1,1v12h2l-2-9v1h-1v-22l1-1h1v1q-1,3,3-8h1v10l2-8h1q0,2,8-11l2-3z"/><path d="M167,76h2v1h-2zm95,0h2v1h-2zm-88,3h1v2h-2v-1zm47,1h1l3,2v1h-2l-2-2zm-37,1h1v2l-2,1h-1v-1zm-12,1h2l6,8v1l-1,4l1-2h1q0,1,4-9h1l8,1l1,1l1,6v1l-3,5h-2l-1-2v-2l2-5h-1q0-1-2,7l-1,2l-2,2l-6,1h-1v-1q1,0-20-4l-3-1v-1l1-4l2-5l-1,1h-1v-1l1-2z"/><path d="M196,82h1v2h-1zm-32,1h3v2h-3zm37,0h1l1,1v1h-1v-1l-1,1h-1v-1zm17,0h1l2,2v1h-2l-1-2zm-153,1h2l2,1v1h-4zm132,1h1v1l-1,1h-1v-1zm-194,1h3l8,2l4,2l1,1v1l-9,2h1v1h-2l-6-8zm15,0h3l1,1v2h-3l-1-1zm96,1h3l3,4v1h-4l-2-2zm-43,1h3l6,2l3,3v1h-8l-1-1l-3-4zm68,0h2v1l-1,1h-1zm57,0h1l2,1v2h-3z"/><path d="M220,89h2v1l-1,3h-2l-2-2v-1zm-192,1h1l2,1v1h-2l-1-1zm127,0h1v2h-1zm-155,2h1l6,3v1h-7zm102,0h3l2,1v1h-4l-1-1zm60,2h1v6l-2,1h-1l-2-3v4h8v3l-1,2h-9l-1-1v-7l2-3zm57,0h2l4,10v2l-2,3h-1l-2-8l-1-5z"/><path d="M179,103h1v1l-2,2h-1l-2-1v-1h2c1,1,1,0,2-1zm-27,3h1l1,1v1h-1l-1-1zm21,1h5v1l-2,1h-1l-2-1zm7,0h1l2,1v1h-4v-1zm40,0h1v2h-1zm-92,2h1v2h-1zm49,2h3v1h-3zm42,3h1v2h-1zm0,8h1v3h-1zm-79,2h1v2h-1zm17,1h8v2l-5,1h-1l-2-2zm44,1h2l2,1v2h-1l-3-2zm-143,1h2v1h-2zm53,4h1l3,2l1,1v2l-1,2l-4,2h-1v-3zm-30,8h5v1l-1,1h-4zm48,1h1l2,1l1,4v2h-1l-2-1l-1-1z"/><path d="M129,148h1l31,37l1,7v1l-2,15l-11,1h1v1h-1l-3-3v2h1l1,2v1h-2l-3-3v-4h4l2,2v-2q1,0-8-1l-4-6v-1l1-1h3l1,1l-5-1l-7-14l-3-9v-20h1q0,3,1-5z"/><path d="M100,150h1l3,1v8l3-4l4-4h2l1,3v2l-1,13h-5l-10-7v-10zm25,3h1v2h-1zm1,5h1v2h-1zm64,0h1l5,4l1,3v1l-4,1h-1v-1l1-4l-1,3h-1v-3l1-1l-2,1h-2v-3zm-46,8h1v2h-1zm22,3h3v2l-1,1h-1l-1-2zm-3,1h1l1,1v2l-3,5l-1,1h-1v-4z"/><path d="M124,171h2v2h-1l-1-1zm-2,9h1l1,1v1l1-1h1v1l-1,1h-2l-1-2zm40,4h1v2h-1zm2,6h1l1,2l1,3v4l-1,4h-1l-3-2v-1l3-2h1l-1-2l-1-4v3h-1v-4zm-3,4h1l1,2v2h-1l-1-2zm12,1h1v1l-1,4h-1v-4zm-5,2h1v2h-1zm1,3h2v1h-2zm40,1h2l3,2v1l-2,1h-1v-1l1-1h-3l1,1v1h-1l-1-1v-1zm-50,1h2v1h-2zm27,8h2v2h-1l-1-1zm-8,1h1l1,2v1h-1l-1-1zm-29,2h1l3,3v1h-1l-3-3zm5,0h1l2,2v1h-1l-2-2zm27,1h1v2h-1z"/><path d="M192,216h1v2h-1zm-25,1h2l1,2v1l-2,2h4v1h-4l-2-1v-1h2l-2-2v-1zm23,1h1l1,1v1h-1l-1-1zm-32,1h2v2h-2zm20,3h1l8,1v1l-2,1h-9v-2zm10,0h4l1,3v1h-3l-2-2zm1,5h1l1,2v1l-4,8l-1,1h-1v-1zm-29,28h1l7,4v1h-4l-4-4zm49,10h1v2h-1zm45,0h1l1,5v3h-1l-1-1zm-22,1h1v3h-1z"/><path d="M209,268h1v5h-1zm51,1h1v2h-1zm8,4h1v1l-2,2h-1v-1zm-6,1h1v3l-2,4h-2v-1l1-5zm-8,3h1v5h-1zm2,5h1v3h-1zm6,0h2l2,2v2l-1,2h-2l-1-4zm-193,1h1v2h-1zm185,0h1v5h-1zm6,2h1v3h-1l-1-1v-1zm-192,1h1v2h-1z"/></g><g style="fill:rgb(84,100,132);fill-rule:evenodd;stroke:rgb(84,100,132);stroke-width:0.1;" id="l2"><path d="M164,57h5l1,1v2h-1v-2l-1,2h-3l-1-2zm-7,2h3v2h-2l-1-1zm32,0h1v2h-1zm-66,3h2v1h-2zm46,1h1l4,1v1l-1,1l-2,1h-1l-1-1zm-15,3h2v1l-1,2h-2v-1zm19,1h1l1,1v1h-1v-1l-1,1h-1v-1zm-17,1h2v1l-1,1h-1zm7,0h2v1h-2zm43,1h1v2h-2v-1zm-56,1h4l1,1v1l-6,2h-2v-1l2-1l3-1h-2zm10,1h4v1l-1,1h-1l-2-1zm35,0h1v2h-1zm-28,1h1v2l-1,1h-1l-1-1v-1h1l1,1zm38,0h1v4h-1l-3-1v-2h1l2,1zm-75,2h1v2h-1zm30,0h2v1h-2z"/><path d="M183,74h1l4,1l2,2v1h-6l-1-1zm-167,1h3l2,1v1h-4l-1-1zm7,1h1l2,1v3l-1,1h-1v-1c1-2,0-2-1-3zm179,0h1v2h-1zm68,0h4l5,1v2l-1,2h-1l-6-3l-1-1zm-239,1h4l1,1v3h-6v-3zm115,0h1v1l-1,2l-2,3l-1,1h-1v-1l1-2l2-3zm16,0h1v2h-1zm-156,1h1l1,1v1h-1l-1-1zm3,1h1l2,3v2h-1l-2-3zm11,0h1l1,1v1h-1l-1-1zm145,0h2v1h-2zm-7,1h1v1l-1,1h-1v-1zm124,0h1v2l-1,2h-1v-2z"/><path d="M164,81h2l1,1v1h-1l-2-1zm27,0h1v2h-2v-1zm-191,1h1v1h-1zm269,0h5v1l-4,1h-2v-1zm7,0h1v1l-1,3h-2v-1l1-2zm-274,1h3v1h-3zm137,0h1v2l-1,1h-1v-2zm10,3h1v2h-1zm122,0h2v1l-1,1h-1zm-185,6h6l2,1l6,4v3h-2l-39-4v-1zm-35,2h1l1,1v1h-1l-1-1z"/><path d="M167,94h2v1l-1,1h-2v-1zm-136,1h1v1l-1,1h-6v-1zm24,0h3v1h-3zm-42,2h5l3,1v1h-6l-2-1zm-13,1h3v1h-3zm6,0h5v1h-5zm46,2h2l2,1l2,2v1l-7,1h-3v-1l1-2h3h-2v-1zm46,1h1v3h-3v-1zm-69,1h2v1h-2zm5,0h1v7l-6,3h-1l-10-2v-4h1c11,4,11,2,15-4zm-10,1h3v1h-3z"/><path d="M72,104h2v1h-2zm17,1h2v2l-13,13h-3v-1l4-6l1-1zm48,12h3v1l-2,1h-1zm-67,3h3v1h-3zm-9,1h7v1l-21,11h-1v1l12-2h3l1,1l13,19l4,10v-1l2-3l4-1h1l1,1l1,2v-1q1,0-16-9l-3-2v-1l2-1l35-15h-1l-1-1v-1h3l1,1l1,2v4l-1,5l-10,3l-10,1h1l2,2v1h3l1,1v1l2-2c10,0,10-1,12-7h1l2,2v3l-1,1l-19,16h1l3,1l9,3l20,7l1,2v2l-1,1l-7,6h-1l-40-21l-18-12l-1-1v-18v1l-1,1l-4,2h-1v2l-1,2l-1,1h-2l-1-1l-3-6v-1l3-4l1-1l7-5z"/><path d="M0,146h1l11,3l7,7v1l-4,3l-14,3h-1zm79,9h2v1h-2zm-64,7h1l1,2v1h2v1h-3l-2-1v-1zm110,1h1v5h-1v-1v3l-2,2h-4l-2-2v-2l1-1l5-3zm41,0h1v2l-1,1h-1v-1zm-166,15h2l4,4l1,2v6l-1,1l-3,2h-3z"/><path d="M128,181h1l1,1v2h-2v-1h1l-1-1zm-4,2h1l2,2v1h-1q0-1-7,20h-1v-14l1-2zm98,1h2l1,1v3l-2,3h-1l-1-1v-1l1-2h1l1,1c0-2-2-1-4-1v-1zm-93,1h1l3,4l2,12v2l-2,2h-1l-5-2l-1-1v-5l1-2l3-4l1-1l-5,7h-1v-10h1v4z"/><path d="M117,186h1v2h-1zm49,0h3l1,1v1h-1l-3-1zm7,0h1v1l-2,2h-1v-2zm8,0h1l1,2v1l-1,1h-1zm46,0h3v2h-4v-1zm4,0h1v2h-1zm-37,2h1l1,1v1h-1l-1-1zm34,1h1v12l-1,5l-7,27l3-5h2l1,1l-2-2v-1l9-30l1-1h1v24v-1h1v2l-2,21h1v-6l4-18l4-10l2-4h1v2l-4,49l-1,9h-1l-1-1l-2-4l-1-3v-4h-1l3,33v2l-1,2h-1l-4-22l-1-6l-1-17l4,44v1h-5l-1-2l-9-39l1,5l3,20l1,8v8h-4l-1-6l-1-13l-1-15v-8l1-11l1-5c-1,0-1,5-3,58h-7v-7l2-33l1-8l2-13l1-1c-2,0-2,8-8,52h-1l-1-2v-18l1-13l1-11l2-12l2-10l2-7l1-2h2v1l-1,8l-1,7q-1,6,2-11l1-5l2-9l1-2h1l1,1v1l-1,4q-1,2,6-9z"/><path d="M234,189h1v3h-1l-1-1v-1zm10,2h1v1l-1,1h-1v-1zm4,3h2v1l-2,2h-2l-1-1v-1zm3,0h1l2,2v1h-1l-2-2zm-146,2h1v2h-1zm154,1h1v1l-1,1h-1v-1zm-157,1h2v1h-2zm160,0h2v1h-2zm-155,1h1v2h-1zm-16,4h1v2h-1zm11,1h1v17l-2,5l-2,3h-2v-3zm32,0h2l49,67v-2l1-5l5-20l-1,1h-1v-1l3-4l1-1h1v24l-5,12l-1,1l-2,1l-70,11h-39v-1h1l-1-1l-18-45l3,4l4,8v2h-1l-2-3v-1h-1l1,1l1,3v1h-1q-2-2,2,6l1,6v1l-13,2h1v1h-1l-9-5l2,1l5,7v1h-1l-1-1v-1h-1l2,3v1h-1l-6-6l3,6v1l-1,1h-3l-5-1l-24-11l-1-1v-1l11-28h20h-1l-2-1v-1l13-1l-1,1h-3l-8-9v-1h2l19,9c0-1-1-1-3-2l-6-6v-1l1-1l-2,1h-1v-1h1h-3l-3-1v-1l1-1l45-12z"/><path d="M84,205h2v1h-2zm44,0h1v2h-1zm-37,1h1v2h-1zm150,0h1v1l-4,10h-1l-1-1v-1l2-7zm-159,1h2v1l-2,1h-1v-1zm-14,4h1v1l-3,3h-1v-1zm51,0h1l1,2v2h-1l-1-2zm89,2h1v7l-2,20l-3,21l-2,4h-2v-9l1-18l1-6z"/><path d="M264,213h1v1l-5,20q-1,3,4-7l4-7l2-2h1l15,14v1l-2,4l-2,2h1v-1l1-1l2-1h2v52h-16l-1-1v-1l5-9l2-1c-4,0-4,2-8,8h-1v-3l4-9l3-4l1-1l-6,6h-1v-1l2-4h-1v1l-1,1l-3,2h-1l-1-2v1h-1v-23v2l-1,4l-1,3h-2v-1l2-10l1-1c-1,0-1,1-4,10l-1,1h-1v-22v3h-1l-1-1v7l-2,12l-3,3h-1l-1-2q-1-4,1,8l1,12v6h-1l-2-8l-2-14v-7v2h-1v-8h1q0,5,1-20l1-1h1l4,5v1h-1v-1v2l-1,2h-1v-3v4l-1,1l13-20l2-3z"/><path d="M284,213h1v1l-14,15h-1v-3l1-3l1-1l6-5l4-3zm-163,3h1v3h-1zm-9,2h1v2h-1zm-22,2h1v2h-1zm-21,1h1v3h-1zm44,0h1l1,2v6h-1l-1-4zm9,0h1v2h-1zm-41,2h1v2h-1zm42,1h1l1,4v1h-1l-1-1zm98,1h1v3h-1zm22,4h1v7h-1zm-119,1h1v2h-1zm71,3h2v1h-2zm0,2h1v1l-1,2h-1v-2zm48,2h1v7h-1zm-83,3h1l1,2v2l-1,1h-1z"/><path d="M156,244h3v1h-3zm21,0h1v1l-3,3h-2v-1zm-16,2h2l9,2l1,1v1h-9l-2-1l-1-1zm-125,2h1v2h-1zm-24,3h2v1l-2,2h-1v-2zm244,6h1l1,1v1h-2zm-247,4h2v1h-2zm-9,1h1v1h-1zm257,1h1v2h-1zm-253,4h4v1h-4zm50,6h1l2,2l1,2v2h-1l-1-1l-2-4zm141,11h1v1l-1,1h-1v-1zm-12,3h1v1h-1z"/></g><g style="fill:rgb(198,208,221);fill-rule:evenodd;stroke:rgb(198,208,221);stroke-width:0.1;" id="l3"><path d="M49,0h6v1l-1,1l-2,1h-3zm11,0h6v4l-1,2h-3v-1c1-2,0-2-2-4zm89,0h6l1,1v1l-1,2l-4,1h-2l-2-2v-1zm60,0h5v2l-1,1l-2,1h-1l-1-1zm-181,6h2v2l-1,1h-3v-1zm178,1h4l1,1v4h-4l-2-2v-2zm18,0h3l1,3v3l-1,1h4v3l-2,2h-2l-2-2l-3-6v-2zm-160,3h1v1l-1,1h3l1,2v1l-3,2h-3l-1-1v-4l1-1z"/><path d="M226,21h3v3h-4l-1-1v-1zm-181,14h4v1q-1,0,35,5l2,1l1,1l2,6v5l-1,6l-4,4l-2,1l-3,1h-4l-3-1l-11-4l-8-3l-18-10v-7l2-4z"/><path d="M27,38h3l2,1v2l-1,1h-4l-1-1v-2zm-6,2h1v2h-1zm103,2h1l4,1v4l-1,3l-1,2h-3l-2-1l-2-6v-1zm16,2h2l1,1v1l-1,3h-1l-3-1v-2zm-46,2h2l10,1l14,6l3,3l1,2v1l-1,1l-2,1l-7,1h-5h1l2,2v1h3l1,1v1l-1,1l-5,4l-11,2h-6l-2-1l-1-1l-1-7v-3h4l8,1l-8-15v-1z"/><path d="M37,52h5l2,2v3h-11v-4zm180,3h2l1,1v1h-3zm7,3h3v1h-3zm-191,2h1v2h-2v-1zm30,11h2l5,2l2,2v2h-5l-5-3v-2zm146,21h1v2h-1zm-173,3h10l2,1l1,1v3l-4,4h-2l-19-3v-1l1-1zm165,0h12l2,1l2,11v2l-3,10l-6,2h-3l-21-2l-1-1l-1-2v-3z"/><path d="M79,100h2v1h-2zm3,0h2v1h-2zm-33,8h4v1l-1,1l-3,1h-2v-1zm11,0h4l4,1v2l-5,5l-5,2h-5v-2l2-6l1-1zm-54,6h1l41,2l2,2l47,76v3l-1,2l-31,16l-2,1l-3,1h-2v-2h1l1,1h-16l-1-1v-1c3,0,3-1,4-2q1,0-6-3l-22-21v-1l9-3h5l11,4v-1q1,0-9-6l-7-8l-2-4l-23-47v-5z"/><path d="M154,114h1l1,1v1h-1l-1-1zm16,1h1v1l-1,1h-1v-1zm-4,1h1l1,1v1h-1l-1-1zm19,6h1l2,2l2,6l3,17v2l-2,1h-4l-2-1l-1-1l-2-20v-3zm31,11h1l1,1v3l-2,5l-1,2l-8,5h1v1l-3,2h-1l-4-2l-3-4l-1-2l-2-8v-1z"/><path d="M151,134h1l20,1l1,1v4l-1,5l-5,5h-5l-4-1l-13-7l-1-1v-3l3-3zm29,12h1v3h-1zm-11,10h2v3h-1l-1-1zm30,2h2l1,1l1,2v1h-1l-3-3zm-13,16h2v1h-2zm-88,15h2l3,1l1,1v1l-2,1l-3,1h-1l-1-2v-1zm-74,20h3v1h-3zm-7,2h2l1,1v3l-1,1l-6,5l-2,1h-1l-1-1v-1l2-4l4-4z"/><path d="M0,221h6v1l-2,2h-3l-1-2zm3,47h15l3,1l6,3l3,2l1,2v3l-2,1l-18,8h-11v-19zm121,0h1l9,1l3,1l1,1l3,16v1h-23v-3l1-7l1-5l1-2z"/><path d="M139,272h4l7,2l2,1l1,1l2,11v1h-7l-3-12v-1h-1l1,1l1,5v4l-2,2h-2l-2-6l-1-6zm18,4h2v1h-2zm31,1h15l2,2l1,2l1,3v4h-47l-2-1l-3-7v-2zm3,2v8h4v-1l1-5h-1z"/><path d="M192,281h2l1,2v1l-1,1h-1l-1-3zm-16,3h1l1,1v2l-1,1h-1zm-7,2h1v2h-1zm-24,1h2v1h-2zm17,0h3v1h-3zm20,0h1v1h-1z"/></g><g style="fill:rgb(140,136,118);fill-rule:evenodd;stroke:rgb(140,136,118);stroke-width:0.1;" id="l4"><path d="M28,0h5l4,5v1l-1,4l-2,2l-2,1h-3l-3-2l-1-1v-4zm1,11h1l1,1v-1l3-5h-1l-4-5v3l-1,2l-1,1h-1l3,3zm19-11h32v2l-7,12l-7,4h-5l-2-2l-11-13zm13,16h1l4,1v-1l2-4h-1l-4-2l-5-5l2,6l1,4zm29-16h28l1,1v3l-1,1l-26,10h-3l-3-3l-1-2v-1z"/><path d="M140,0h3v4h-1l-2-1zm7,0h23v4l-2,15l-4,2h-3v-5h-2l4,19v1l1-1h2v1l-2,1l-16,3h-1v-2l1-1l4-2q1,0-12-4l-18-8l4,3v2l-3,4l-1,1h8l10,6l1,1v1l-4,4l-21,6h-6l-101-8c-7-1-7,1-5,1l8,2l6,2l3,2l4,3v5l-1,4l5-6l118-15h1v4l-1,2l-12,13l-5,4h-1v-2l-16,11c-9,4-1,4,1,5v3l-5,2l-47,2h-3l-35-20l-23-20l-1-1v-3l2-2zm-75,74h-1l-6-2l-2-2v-1l-2,5h-4l15,3z"/><path d="M157,0h4l1,1v3l-1,1h-2l-2-2zm30,0h19v1l-1,2l-4,4l-9,8l-6,1h-1h15l55,12l-11-6l-7-6l-2-2v-4l10-10h3l12,19v-1h1l4,10v2l-1,1l-3,1l-14,3h-9l-12-1v-1q1,0-55-7l-1-1v-4z"/><path d="M221,0h7l2,3l1,2v1l5-6h1l3,3v1l-2,2l-2,1l-15,1h-2l-1-1v-1l2-5zm29,0h4v1h-4zm9,0h1l3,3v1l-1,7l-2,6h-2l-3-7v-1l3-4l-3,4h-1l-1-1v-2zm9,0h1v3h-5v-1zm-139,4h2l1,3v6l-1,1h-3l-2-1v-4l2-4z"/><path d="M137,6h2l1,1v1h-3zm-32,3h1l3,3v3l-1,2l-2,2l-3,2h-3l-1-1v-3l1-1c4,0,3-5,3-6zm34,0h1v1l-2,3h-1v-3zm-61,3h2l1,1l1,3v1h-2l-2-2zm20,0h2v1h-2zm-55,2h1v1l-3,7l-2,1h-4l-1-3v-2l2-2zm26,3h2l6,1v4l-3,4h-3l-4-4v-3zm152,1h3v1l-1,1h-1l-1-1zm-127,1h2l1,1v2l-1,7l-4,6l-1,1h-2v-3l1-6h-7l-2-2v-1l2-1z"/><path d="M231,20h2v2h-2zm1,5h3v1l-1,1h-1l-1-1zm-61,4h2l1,1v4l-1,1l-2,1h-2l-1-1v-3l1-2zm62,8h5v3l-2,2h-2l-1-1zm-10,1h1l1,3v2h-2l-1-2v-2zm-72,6h4l1,1v4h-1v-2h-1q0-1-3,5l4-2h1v2l-2,2h-5v-8zm-126,1h1l1,1l1,2v1h-1l-3-1v-2zm199,4h4l2,2v2l-1,7l-1,1h-8l-3-1l-2-2v-4l2-2l1-1zm-6,4v1h-1l2,4v1h8l-6-2z"/><path d="M92,50h1v3l-1,1h-1v-3zm93,1h2v1h-2zm-40,2h2v3l-1,1h-3l-1-1v-2h1c1,1,1,0,2-1zm39,3h4v2h-3l-1-1zm-88,4h2v2h-1l-1-1zm90,0h2l2,4v4l-1,1h-1l-2-7zm-143,4h2l1,1v2l-1,1h-2l-1-1v-2zm61,3h2v2l-1,2h-4v-1zm70,0h1l1,1v1h-1l-1-1zm28,0h2v1h-2zm-48,2h2v1h-2zm-153,8h2l2,1l3,2v2l-1,1h-4l-2-1l-1-1v-3zm21,0h1l1,1v2h-2l-1-1v-1zm166,4h2v2h-1l-1-1zm11,1h1l1,1v1h-1l-1-1zm27,0h1l3,3v3h-1l-2-3l-1-2z"/><path d="M48,84h2l5,2l1,1v2l-1,1h-2l-5-3zm223,0h2v1h-2zm-66,4h1l3,1l6,3l2,2l1,2l1,4v13l-1,6l-1,2l-4,6h-9l-1-1v-1h3l-5-3v-1l17-21h-1l-14-5c-1-1-1,0-2,1h-2v4h-1q0-1-1,3l-2,2h-3v-1l1-3l1-2l3-5l2-3zm-11,15v1l2-2l-1,1z"/><path d="M39,93h5l4,1l8,3v3l-4,1h-2v-1l1-1q2,0-25-1v-1zm-37,6h13l2,1v1l-8,1h-1l-8-1v-1zm17,0h2v1h-2zm11,2h6l1,1v2h-1l-6-2zm-5,1h2v1h-2zm-25,3h2v1h-2zm14,0h4v1l-2,2h-2l-4-1v-1zm73,0h1v1l-1,1h-1v-1z"/><path d="M191,106h1v1l-3,3h-1v-1zm-191,1h1v1h-1zm6,0h3v2h-7v-1zm149,1h3v1l-2,1h-1l1,2v1l-2,2h-1v-2l1-3zm4,0h1l7,1v1q-1,0,4,1l1,1v1l-1,1h-1v-1q1-1-3,1l-3,1q-2,0,6,3v1l-2,5l-12,2h-3v-9zm-7,1h1v3h-1zm-2,1h1l1,4v3h-1l-3-2l2,4v-1h1v3l-1,4l-1,3h-1v-1v3l-2,2h-1v1l4-3l6-2l24-7h-2l-4-1l-2-1v-1h6h-1v-1h1l4,1l1,1v4l-2,7l-13,7h-1l-21-3l-5-1l4,1v1l-4,9l-1,1h2c0,5,4,4,32,2h1c19,3,18-1,15-20v-7l10-1h1v2l-8,5h-1c0,3,2,1,4,1v1l-2,1l4-2h1l1,2v1q-3,1,19-6h1l1,4l1,7v9l-1,10l-2,3h-1q0-1-1,2l-8,10h-49l-4-1v-1q1,0-16-10l-3-6l-1-3l-1-4v1h-1v-1l3-15l13-18zm55,52l-1-1v-3h-2l-4-1zm13-15v-6l1-8l-1,1l-9,2h-7l-4-1l-2-1l-4-3l11,24v2l2-1l9-4h1l1,1v-3l1-3z"/><path d="M175,110h4v1h-4zm-1,2h3l4,1v1h-3l3,1v1h-8v-3zm-151,3h3v1h-3zm100,10h1v2h-1zm4,3h1v11l-1,6h-1l-1-2v-8l1-4zm-68,6h1v6h-1c0-4-2-3-3-3v-1l1-1zm-8,7h1v1l-1,1h-1v-1zm7,0h1v3h-1zm119,1h5l1,2v1l-4,1h-2l-2-1v-1zm-80,2h1v1l-1,3h-2v-3zm-87,1h3l14,3v2l-3,6h-1l-13-10z"/><path d="M152,145h1l1,1v1l-2,1h-1l-1-1v-1zm-27,1h1l1,1v1l-2,1h-1v-2zm-109,6h1v2h-1zm168,12h3l1,2v1l-1,2h-4v-2c2,0,1-1,1-3zm-5,6h10l8,3l1,1l2,3v4l-1,2l-2,2h-3l-10-7v-1h6v-1q1,0-9-5v1l-2,4l-8,8l-2,1h-1l-3-5l-1-2v-1l4-3z"/><path d="M1,173h1v2h-1zm178,4h3v1h-3zm-52,5h1v1l-1,1h-1v-1zm99,3h2v1h-2zm-106,1h1v1l-2,2h-1v-1zm112,1h4l1,1v1h-1l-4-1zm-7,1h2v1h-2zm4,0h1l2,4v1l-1,1h-1l-1-4zm-97,2h1l2,4v3h-2l-1-4zm104,2h1l1,5v-1h1v4h-1l-2-2zm12,0h2l1,2v1h-1l-2-2zm-16,2h2v1h-2zm-98,4h3v1q-1,0,48,31v1l-1,4l-1,2l-2,3l-3,4l-5,3l-3,1h-3l-4-2l-14-20l-10-15l-3-5l-1-2l-1-3z"/><path d="M247,198h1l1,1v2h-1l-2-1v-1zm21,2h1l1,1v1h-1l-1-1zm-23,1h2v1l-1,1h-1zm5,0h1l1,1v2l-1,1h-3l-1-1v-1h3zm-112,1h2v1h-2zm133,0h1v1l-1,1h-1v-1zm-12,6h1l1,1v1h-2zm-8,3h5v2h-3l-2-1zm-122,1h1l1,1v1h-2zm125,2h2v1h-2zm-254,19h1l1,6v2l-1,4h-1zm2,12h5l1,1l1,4v4l-2,2c-4,0-3,1-2,3v1h-2l-3-4v-4h1v2v-8zm6,21h1v2h-1zm3,1h2v1h-2zm120,0h3v1h-3z"/><path d="M136,268h1l6,2l5,2v2h-4l-5-2l-2-1l-1-1zm-16,1h1v1l-1,2h-1v-2zm30,4h2l5,3v2l-2,1h-1l-4-4zm-120,1h1l5,5l2,3l2,4v2h-23v-2l6-3l8-2h3l-4-6zm88,0h1l1,1v1l-1,1h-1zm20,0h1l1,1c0,2,1,1,2,1v1l-1,2h-2l-1-1zm50,1h2l1,1v1h-1c-1-1-1,0-4,3h-1v-1l1-2z"/><path d="M192,275h11l2,1l3,3v9h-1l-1-4v-1c1-3-1-3-14-6zm-29,2h2v1l-2,1h-1v-1zm9,1h4l1,1v1h-4l-1-1zm-48,1h3l1,1v1h-1c-2-1-2,0-3,1h-1v-2zm-7,2h1v3h-1zm37,1h1v2h-1zm2,1h1l1,1v1h-1l-1-1zm-141,3h1v2h-1zm140,0h1v2h-1z"/></g><g style="fill:rgb(128,149,184);fill-rule:evenodd;stroke:rgb(128,149,184);stroke-width:0.1;" id="l5"><path d="M121,60h3v1h-3zm-120,19h3l1,1v1h-3l-1-1zm87,15h3l6,6v1l-2,2l-18,16l-34,17h16l64,49v2l-4,26h1l-1-7v-10l1-4l1-2l4-4l3-2h1l1,30v22l-15,8l-112,25h-1l-2-1v-40l115-39q1,0-24-7l-22-9l-2-2l-12-18l-2-6v3l-2,1h-1l-10-15v-2l11-11l32-15l-10,4h-1l-2-2l-1-2v-2l-38,9h1v2l-4,1h-5l-21-6l-1-1l-1-2v-1l51-10h-1l-2-1v-1h2l3,1v2l-6,8l1-1l3-1l11-2h-2l-2-1l-3-3v-1l1-1l2-1zm-63,21h-2v1h3zm77,83v1h2v-1zm-23,9l2,1v1l2-1h1zm-67,44v1l-1,2l4-4l-2,1zm-1,10v-2h-3l1,1v1l-1,1zm114-27h1v-3h-1l-1-1l1,2zm-6-45v-1h-1v1zm-14,9h1v-2h-1zm19,31h1l-5-16l1,3l3,12zm-17-31v3l1-3l1-2z"/><path d="M24,98h2v1h-2zm-3,1h2v1h-2zm-19,1h18v1l-3,1q-2,0,5,1v1l-2,1l-10,2h-5l-3-1l-2-1v-4zm26,1h2v1h-2zm-5,1h2v1h-2zm17,13h3v1h-3zm-22,15h2v1l-1,1h-1zm-18,3h1v1h-1zm0,7h2l27,6l2,1v1l-1,4l-7,14l-2,3l-2,1l-12,1h1l11,2l3,4v2l-13,15l4-1h6l12,6l3,3l1,2v2l-3,1l-28,8h-2l-2-1v-49l1-2l26-15l-4,1h-6l-11-2l-6-3z"/><path d="M104,141h3l2,1l1,1v2l-2,2h-11v-2l1-1zm-85,9h2l2,2v1l-1,1h-5v-3zm148,10h3v1h-3zm-4,1h2v1l-2,1h-1v-1zm-39,6h1v2h-2v-1zm106,19h1l3,6v4l-2,5l-1,1h-1zm6,5h4l3,1l3,5v1l-3,5l-1,1h-1v-4l-1,3h-2l-2-11zm2,5v1h1v-1zm9-5h1l1,2v1l-1,1h-3l-1-2v-1z"/><path d="M249,195h2l16,4l9,4l1,1v1l-2,1q-2,0,4,1l7,3l2,1v24l-1,1h-1v-1q1,0-25-8v-1l1-5l2-7l3-6l-10,21l-4,2h-1l-1-2v-1l2-6h-1v2l-2,2h-1v-16v1l-3,36h-1l-1-4l-1-6v-1l1-16l3-23zm7,24h-1v-1h-1v1zm5-9l-2-2v2zm16,8v1h2v-1l1-1l-2,1zm5-2v-1l-2,2l1-1zm4-2v-1h-3v1l-1,1l3-1zm-15-10v-1h-1v1z"/><path d="M254,196h4v2h-3l-1-1zm-24,8h1v3l-1,5h-2v-2l1-5zm-3,9h2v1l-1,1h-1zm0,3h1v1l-1,2h-1v-2zm12,0h1v1h-1l1,1v1h-1l-1-1v-1zm-210,1h7v3l-1,1l-2,1h-7v-2zm208,2h1l1,1v3l-2,10h-2v-8zm-12,1h2v1l-1,3l-1,2h-1v-3zm5,7h1v3h-1zm-211,1h2v1h-2zm241,0h1l1,1v2h-2v-1h1l-1-1zm-210,7h1l1,2v2h-1l-1-2zm8,0h2v1l-1,1h-1z"/><path d="M38,242h2v1h-2zm248,1h2v4h-3l-1-1v-1h1l2,1l-2-1v-1zm-6,5h2v1l-2,1h-1v-1zm7,1h1v1l-1,1h-1v-1zm-254,1h2v1h-2zm254,3h1v1l-1,1c-2,0-1,1-1,2l-1,1h-1v-3l1-1zm-5,3h1v1l-1,1h-1v-1zm4,5h1l1,1v5l-1,1l-5,2h-2v-1l3-2l2-1h-2v-1h2l2,1l-1-1zm-266,1h1v2h-1zm-11,5h2v1h-2zm278,3h1v3l-1,1h-2v-1l1-1l-1,1h-1v-1l1-1h1l1,1zm-260,2h1l1,1v1h-1l-1-1zm3,3h1l3,3v3l-17,7h-6v-3l20-9h-1z"/><path d="M282,275h1v2h-2v-1zm-137,2h1v3h-1zm-18,2h1l1,1v1h-4l2,1v2h-1l-2-2v-1l1-1zm61,1h1v3h-1zm-25,1h1l1,1l1,3v3h-5v-2l1-3zm32,0h1v1l-1,1h-1v-1zm-23,1h1v6h-1zm-4,1h1l2,2v3h-1l-2-3zm6,0h4l1,1v4h-1l-1-3v-1h-2v4h-1zm6,0h5l1,2v1h-3l-1-2v4h-1l-1-3zm14,1h1l1,1v1l-1,1h-4v-1zm0,2h1v-1h-1zm-51-1h3l1,1v1h-2l-2-1zm45,0h1l1,1v1h-2z"/><path d="M143,287h1v1h-1zm14,0h1v1h-1zm28,0h1v1h-1z"/></g><g style="fill:rgb(62,72,96);fill-rule:evenodd;stroke:rgb(62,72,96);stroke-width:0.1;" id="l6"><path d="M213,41h1v1l-2,3h-2v-2zm-56,15h2v1l-1,2l-1,1h1l3,1l1,1v1h-1l-4-1l-3-1l-3-3v-1zm3,0h6v1h-6zm7,0h2v1h-2zm9,0h2v1h-2zm-28,1h1l1,1v1h-2zm36,0h1v1l-1,1h-1v-1zm-44,1h1l3,1v1h-4zm24,0h1v2l1-1l2-1h1l2,2v1h-2l-1-1v3h-3l-1-2zm8,1h1v2h-1zm5,0h1v2l-3,12l-4,2l-13,4l1-1l4-2h2l6,1v2l-1,1l-2,1l7-7h1v6h-1v-2l-2,3l-3,1h1v1l-22,4h-1v-2l2-3l5-5h-2v-1l5-8q1-1-2,1h-1v-2l3-2zm-5,10h1v-1h-1zm-5,10h-2v1h2z"/><path d="M183,60h1v3l1-1h1l1,1v4h-1l-4-4v-1zm5,0h1v2h-1zm3,0h1v1l-1,1h-1v-1zm2,1h1l1,1l1,2v1h-3l-1-1v-1h1l1,1l-1-2zm15,1h1v1l-1,2l-1,1h-1v-3zm-84,1h2l1,1v1h-4v-1zm75,0h1v1l-1,2h-1v-2zm-22,2h2v3l-1,1h-2l-1-1v-1zm85,0h5l2,1v1l-6,5h-3v-6zm-122,1h1v1l-2,2h-1v-1zm55,0h1l1,1v1h-1l-1-1zm9,0h1v2h-1zm8,0h1v1l-1,1h-1v-1zm-59,1h1l3,3v1l-2,4l-19,21h-1v-8l4-9l1-2zm-9,12h1l1,1v-2l1-1h-2v1zm10-7h1v-1h-1z"/><path d="M141,68h1v3h-1l-1-1v-1zm46,0h1v4h-1zm12,0h2v1h-2zm-5,1h1v1h-1l1,1v1h-1l-1-1v-1zm-45,1h1v1l-1,1h-1v-1zm52,1h1c0,4,3,4,4,5v1h-6v-3zm2,0h3v1l-1,2h-2zm-94,2h1l1,2v1h-1l-1-1zm21,0h2l2,3v2h-1l-3-4v2l-1,1h2v1l-1,1h-1l-1-2v-1l1-2zm80,0h1v1l-1,1h-2v-1zm5,0h1v1l-2,2h-1v-2zm-201,1h1v2h-1zm123,0h1v6h-1l-1-4v-1zm-114,1h2v1h-2zm159,0h1l1,2v1l3-2h1v1l-1,3h-1l-3-1l-1-2z"/><path d="M26,76h10l2,1l1,2v2l-1,1h-5v-1l3-1q1,0-8-2l-2-1zm16,0h1l2,2l2,4v1l-2,2l-2,1h-1l-1-1v-8zm152,1h3l1,3v1l-4,3h-1l-5-3v-1l1-1zm15,0h2v1h-2zm57,0h1l2,3v1h-1l-2-2zm-139,1h1v3h-2v-1zm135,0h3v1h-3zm20,0h1v2h-1zm-101,1h1v3h-1zm-170,1h1l1,1v1h-1l-1-1zm124,0h1v4l-3,3l-4,2h-1v-1l2-4z"/><path d="M54,81h3v1h-3zm147,0h1v1l-2,2h-2v-2h1c1,1,1,0,2-1zm-75,1h2v1h-2zm38,0h1v1l-1,1h-1v-1zm24,0h1v2h-1zm77,0h3v3h-1c0-2-1-1-2-1zm-143,1h1l3,1v1l-2,1h-3v-1zm106,0h2v1h-2zm-146,1h1v1l-1,1h-2v-1zm70,0h2v1h-2zm29,0h3l1,1v3l-1,2l-1,1h-1l-2-2v-1l1-2l-1,2h-3v-1l1-1zm22,0h1v2h-1zm-37,1h1v2l-1,1h-1v-1zm34,0h2v1l-1,1h-2v-1zm75,1h1v1l-1,1h-1v-1zm-190,2h3l6,2l4,2l1,3v1l-3,2h-1l-1-3c0-3-8-2-9-2l-1-1v-2z"/><path d="M148,88h2l1,2v1h-3zm83,1h1v3h-1l-1-1v-1zm-167,1h3v1h-3zm-8,1h3v1h-3zm106,1h1v1l-1,1h-1v-1zm6,0h1l1,1v3l-3,6h-1l-1-2v-1l1-1l-2,2h-1v-1l2-3l4-3l-2,2h-2v-1l1-1zm-135,1h3v1l-5,2h-3v-1l1-1zm-16,1h2l3,3v1h-2l-3-3zm44,0h10v1h-10zm11,0h13v1l-1,1h-3l-9-1zm-57,1h1v1l-1,1h-2v-1z"/><path d="M23,96h2v1h-2zm-23,1h1v1h-1zm3,0h7v1h-7zm125,1h1v2h-1zm40,1h2v1h-2zm3,1h1l1,1v1l-1,2h-1zm-3,2h1v1l-1,1h1l2,1l1,2v1l-1,1h-1l-2-2l-1-3v-1zm-140,1h5v3l-3,4h-4l-6-1l-1-1v-1l1-2h5l-1,1h-2v-2h7h-1zm65,1h1v2h-1zm37,2h1l1,1v1h-1l-1-1zm-3,2h1v2h-1zm2,0h1v2h-1zm-5,2h1v4l-2,2h-1v-2c2,0,1-1,1-3zm-40,1h1v1l-1,1h-1v-1z"/><path d="M94,111h2l2,1v3l-7,2h-2l-1-2v-1zm-13,2h1v6l-2,1h-1v-1l1-5zm56,0h3l3,4l1,3v-1h1v3l-1,2h-2l-2-1l-4-4v-1l4-1l-4,1h-1v-3zm-43,5h2l3,1v2l-1,1h-1l-3-3zm-19,2h2v1h-2zm-5,1h2v1h-2zm-2,1h1v3h-1l-2-1v-1zm-7,1h4v1l-12,7h1v1l3-1h2v1l-10,8h-1l-1-5v-2l1-2l1-1l8-6z"/><path d="M97,124h1l9,2l2,2l1,3v5h-1v-5h-1v-3h-2q0-1-1,7l-3,4l-1,1h-1v-1l1-3l1-1l-2,6l-13,2h-1v-1l2-2l10-8h3l-5-6v-1zm-37,7h2l1,1v1h-1l-2-1zm3,3h1v3h-1zm5,0h4v2h-4zm61,1h1v2h-1zm0,3h1v1l-1,6h-1l-1-2v-1l1-2l-1,1h-1v-1l1-1z"/><path d="M109,140h1l3,3v4l-1,1c-17,15-15,15,8,17l2,7v1l-1,1l-4,3h2v1h1v-1l2-2h1v3l-1,1h-5l-4-1l-3-1l-5-4l-11-9l-1-1v-3l2-6l2-4l1-1l14-6h-1l-2-2z"/><path d="M61,141h1v4l-1,4l2-2l3-2h5l2,5v1l-2,2h-2l-2-2v-2q1-1-6,2h-1v-6zm14,1h6v1l-2,1l-4,1h-2v-1zm8,1h2v1h-2zm50,2h1v4h-1zm-9,1h1v1l-1,1h-1v-1zm-42,1h1v1l-1,1h-2v3l4-3l2-1h-2v-1h3l1,1v1l-1,7l-2,2l-6,4h-2l-2-4v-8l2-1zm-3,9h2v-1h-2zm173-5h4l2,1l1,1v1l-1,1h-5l-2-2v-1z"/><path d="M263,151h2v3l-1,1h-1l-2-1v-2zm3,0h2v1l-1,1h-1zm-130,3h1l6,9v1l-2,1h-1l-2-5v1h-1l-2-5v-1zm83,0h1v1l-1,1h-1v-1zm-219,1h2v1l-1,1h-1zm87,2h2v2l-1,1h-1zm129,0h1l1,1v1h-1l-1-1zm-39,2h1l1,2v4h-1l-2-2v-1zm-6,1h5v1l-1,1h-2l2,1l2,2v1l-1,1h-1l-3-3l-1-3zm-89,1h2v1h-2zm98,0h1l1,1v1h-1l-1-1zm35,0h1v3l-1,1h-2v-1zm-69,1h2l1,1v1h-1l-2-1zm23,0h2v3l-1,3h-1l-2-2v-1h1l1,1l-1-2v-1z"/><path d="M200,162h1v2h-1zm-78,1h5v2l-1,2h-1c0-3-3-2-4-2v-1zm73,0h3v1h-3zm8,2h1l1,2v1h-1v-1l-1,1h-1v-1zm-38,1h1v1l-3,4l-4,1h-3v-1l2-2l4-2zm44,1h3v2h-4v-1zm-4,2h2v1h-2zm-82,1h2v1l-1,1h-1zm1,3h1l2,1v4l-1,1h3l1,1v1l-3,2h-1l-1-3l-1-6zm31,0h2v1l-2,1h-1v-1zm3,1h1v1l-2,2h-1v-1zm25,4h2v2h-1l-1-1zm3,0h2v1h-2zm-8,1h2v1h-2zm-57,1h1v5l-2,2h-2l-1-1v-1h1v1l2-1q1,0-2-1v-1z"/><path d="M176,180h1l6,4l2,2v3v-1h1v1l-1,3h-1q0-1-7,10h-1l-3-2v-8l1-2l-3,2h-2l-2-1v3h-1v-7zm-6,8v-1h-1v1zm12,3v-2l1-4l-2,2h-3l2,1v1l-2,1h3zm18-11h1v2h-2v-1zm-200,1h1v1h-1zm130,1h1v4h3v1l-1,1h-2l-1-1l-1-2v-1zm34,1h2l1,1v1l-2,1h-1zm25,0h2l3,6v1l1-2h1q0,1,1-2l1-2h1l1,1v1l-2,5h-4l-3-3l1,1v1h-1v-1v3l-2,3h-1l-1-2v-7h2v3z"/><path d="M221,183h1v3h-2v-2zm-59,4h1v1l-1,1h-1v-1zm58,1h2v1h-2zm-1,2h2v4l-1,6l-1,3h-1v-3zm16,0h1v5h-1zm-100,2h1v1l-1,1h-1v-1zm60,0h2v3h-2v-1h1l-1-1zm57,1h1l1,1v1h-1l-1-1zm-120,1h1v2h-1zm48,0h2v1h-2zm-18,1h1v1l-1,2h-1v-2zm3,1h1v1l-1,1h-1v-1zm23,0h1v4h-1zm11,0h1v2h-1zm0,4h1l1,4v2l-1,1h-1v-1l1-2l-1,1h-1v-3zm17,0h1v3l-3,6h-1v-4l2-4zm-58,1h4v1h-4z"/><path d="M273,202h6v1l-1,1h-1l-4-1zm-57,2h2v4l-1,10l-1,7h-2v-6zm-81,3h2l2,2l20,28l8,16v1l2-1c6,0,6-2,8-3h1v-1l-2,1l-3,1h-7v-1l37-33l4-3h1v3l-6,46h1v-10l4-27l1-6h1l1,5v5h-1v-4v8l-1,45h-1l-18-4v-4l4-27l1-5l-3,17l-1,4l-1,3l-4,8l-2,1h-2l-4-1l-6-2l-2-1l-4-3l-4-4l-4-6l-2-4v1h-1l-9-16l-1-2l-6-14l-1-3l-2-7zm67,58v-2h-1l-1-1l1,1v1l-1,1zm-7-27v-2h-1v2zm2-4v-1h-2v1zm-38,10h-3v1h3zm37-9h-1v1h1z"/><path d="M280,207h1l2,1v1h-2l-1-1zm-70,3h1l1,4v3h-1l-1-3v4h-1l-1-5v-1zm2,0h1v2h-1zm75,0h1v1h-1zm-64,4h1v2h-1zm13,2h1v2h-1zm-14,2h1v3l-2,8h-1v-5zm-12,1h1v3h-1zm32,1h1v2h-1zm0,3h1l1,21v3h-1l-1-2zm-57,2h1v2h-1zm3,1h1v2l-1,2h-1v-3zm26,0h2v1l-1,8l-2,15h-1q0-1-3,18h-1v-20z"/><path d="M150,227h1l1,1v1h-1l-1-1zm-72,3h1v2h-1zm141,0h1v5l-1,13h-1l-1-1v-6l1-6zm-33,1h2v1l-1,1h-1zm-111,2h1v2h-1zm3,0h1v2h-1zm179,1h1v4l-1,19l-5,31h-5l-1-7l-1-14v-1h1l1,1l1,5l1,6v4h1l-3-21v-9h1l1,4q0,2,6-17z"/><path d="M66,235h2v1h-2zm-11,1h1l8,8l1,2l3,7q1,3,0-1l-1-12v-3h1l1,2l7,29l2,18v1l-1,1h-5l-1-1l-3-19l1,5v4l-5,10l-9,1h-14l-2-2l-8-11v-1h1l12,2v-1h-1l-1-3v-1h6h-1l-3-3v-1l17-3h-1v-1h1l3,3q1,2-2-6l-7-23zm8,20h1v-1h-1zm-12,20v-1h-1v1zm-1-2h-1l-1-1l2,2zm-3-1h-1v1h1zm18-4h1v-1h-1zm1-14v-2h-1v2zm-10,19h-1l-1-1l2,2l2,4l-2-4zm-2-2v-1h-1v1zm-5,4h-1l-1-2v2h1l1,1zm-4,1v-1h-1v1zm13-7l2-2zm-8,8v-1h-1v1zm-4,1v-1h-3v1l-1,1l1-1z"/><path d="M75,237h1l1,1v1h-1l-1-1zm108,1h1v1l-2,2h-1v-1zm26,3h1v2h-1zm66,1h1v1l-6,8h-1v-2l1-2zm4,0h1v1l-5,5l-1,1h-1v-1l3-4l1-1zm-203,1h2v1h-2zm155,0h1v13l-1,5h-1v-6zm34,1h1l1,3v1h-1l-1-1zm-215,1h4v1h-1h3l2,2l3,4v1h-2l-8-6l-1-1zm159,0h1v2h-1zm53,0h1v3l-2,8l-1,1l3-7l1-2h1l1,1l1,7v-2l1-2h1v4v-2l1-1h1v1l-2,4l-1,1l1-1h1v1l-5,10h-1v-6v2h-1v-8l-2,7l-2,7l-1,3h-1l-1-4v-11l3-9l2-4zm-4,18h-1v2h1z"/><path d="M220,247h1l4,5v10h-1q0-5-1,4h-1l-2-14zm-4,1h1l2,35v-14h1l1,13v6h-4l-1-6l-2-22v-10h1q0,2,1-2zm26,0h1v2h-1zm-157,2h1v4h-1z"/><path d="M116,250h1l1,11v5h-2zm-20,1h2l1,2l1,17v1l-1,3h-1l-1-7l-1-12zm49,0h2l1,1v1h-1l-2-1zm73,0h1v2h-1zm18,0h1v3h-1zm-159,1h1l2,2v4l-2,3h-1zm134,1h1v12h-1zm-65,1h2l2,6l3,10v1l-1,2h-2l-1-2l-1-4l-1-5l-1-6z"/><path d="M218,254h1v9h-1zm24,0h1l1,10l1,13v11h-6l-1-6l-2-14l-1-10v-1l1-2h1l1,1l2,3l2,4l-1-3v-1zm-156,3h1v2h-1zm-29,3h1l2,1v1h-2l-1-1zm175,0h1v3h-1zm13,0h1v5h-1zm-163,1h3l2,1l1,3l5,17v-6h1l1,1v11h-7l-1-2l-5-24z"/><path d="M76,263h1v3h-1zm149,0h1l3,15l1,6v1h-2l-3-17zm6,2h1v4h-1zm-139,1h1l1,4v5h-1l-1-4zm141,0h1v3h-1zm-117,1h3v6h-1v-2l-1,2h-1zm94,0h1v14h-1zm62,0h1v1l-2,4h1v-1h2v1l-1,3l-1,2l-4,4h-1v-3l1-3l1-2l2-1l-7,7h-1v-9z"/><path d="M223,268h1v4h-1zm-180,1h2v1h-2zm96,0h2v1h-2zm93,2h1v3h-1zm2,0h1v3h-1zm-48,1h1v3h-1l-1-1v-1zm38,1h1l1,6v9h-1l-1-8zm-126,2h1l1,1v1h-2zm57,0h2v1h-2zm-38,1h1v4h-1zm45,0h2v1h-2zm9,0h16v1l-1,1h-20v-1zm62,0h1v3h-1zm52,0h1v1l-8,8h-3v-1l5-5l3-2z"/><path d="M235,277h1l1,5v4l-1,2h-1l-1-1v-7zm38,1h2v1l-1,5l-2,4h-2v-2l2-3l-3,5h-1v-4l3-4zm-167,2h1v3h-2v-1zm-7,1h1c0,4,1,4,4,5v1l-1,1h-1l-3-2zm7,3h1v2l-1,1h2v1h-2l-1-1v-1zm103,0h1v4h-1zm20,2h1v2h-1zm44,1h1v1h-1zm2,0h1v1h-1z"/></g><g style="fill:rgb(53,54,43);fill-rule:evenodd;stroke:rgb(53,54,43);stroke-width:0.1;" id="l7"><path d="M2,0h1v2h-1zm12,0h3v1l-2,2h-1zm7,0h5v3l-1,2h-1l-3-1l-1-1v-2zm19,0h3l3,1l1,1v1l-7,1h-2v-2zm89,0h1v1l-2,2h-2v-1zm4,0h2v1h-2zm43,0h2v1h-2zm-168,1h1l1,2v1h-1l-1-1zm114,0h1l2,1v1h-3zm-75,3h1l2,1l1,1v6c-1,5,4,2,6,2l2,1l2,3v1h-1l-2-2v-1v8l-1,2h-4v-1h3h-4l-6-1l-2-1l-1-2v-1h1l4,3l-4-12l-1-4v-1z"/><path d="M82,4h1l1,4v1l-1,1h-1zm20,0h3v1h-3zm179,0h1l4,4v1l-1,2l-1,1l-4,3l-4,3h-7v-3l3-4l1-1h1v1l-1,3l3-3l6-4l-5,3h-2v-1zm-201,2h1v1l-1,1h-1v-1zm31,0h2l1,1v1h-1l-2-1zm9,0h1l3,3v1h-1l-3-3zm-3,1h2v1h-2zm-80,1h1l1,3v1l-1,1h-1zm213,1h2l1,1v10h-3z"/><path d="M23,10h1l2,1v1h-2l-1-1zm59,1h1l2,2v1h-1l-2-1zm42,0h1l1,3v1l-1,2l-1,1l-3,1h-1v-1l1-1c3,0,2-2,2-4zm-91,3h1l2,1v1l-2,1h-1v-1h1l-1-1zm230,0h3v1h-3zm-177,1h1v2h-1zm25,0h1l1,5v2l-1,1l2-1l5-2h1v1l-1,1l-3,2h-6v-7zm33,0h1l1,1v1l-1,1h-1l-1-1v-1zm110,1h1v2h-1zm-222,3h1l1,2v3h-1l-1-2zm30,0h4l1,2v2h-1l-1-2v-1h-3zm206,0h1v1l-2,2h-2v-1zm5,0h1l6,2l3,2l1,1v1h-1l-3-1l-3-2l2,3v3h-1l-6-4l-1-1v-3z"/><path d="M42,22h1v1l-1,1h-2v-1zm60,0h3l1,1v1h-1l-3-1zm160,0h1v1l-1,1h-2v-1zm-166,2h5l1,5v2l1-2l2-3h1l4,4v1l-1,2l-2,3h-1l-1-1v-1q2-4-1,1h-9v-4zm-64,1h1l1,2v1h-1l-1-1zm6,0h1v1l-2,2h-2v-1zm227,0h5l5,5l1,3v1h-2l-2-1v-1h-5v1q-1,0,8,5q0,1,2-8l2-1h5l4,4v3l-10,5l-14,6l-5,1h-2l-7-5l-1-1v-2l4-4l19-8h-1l-1-1v-1h-5z"/><path d="M76,26h3l1,1v1h-1l-3-1zm-72,1h1l2,1l6,5v1l-2,2l-2,1l-8,1h-1v-4c4,0,3-2,2-5v-1zm60,2h3l2,2v1l-1,1h-1v-2l-3,2h-1v-3zm16,0h5l1,1v3h-1l-1-1v-2h-4zm31,0h4l2,1l1,1v1h-2q-2-1,1,1v2h-1l-5-5zm-79,1h4v1l-6,3h-6v-1zm8,0h1l5,2v1h-4l-2-2zm47,0h2v2h-2z"/><path d="M54,31h5v1h-5zm16,1h7v1l-2,1l-3,1h-3v-1zm127,0h6l5,1l5,3v2l-1,1h-3l-14-5v-1zm-181,1h5v1h-5zm176,1h2v1l-2,1q-1,0,13,3l3,1v1h-3q-3-1,3,3v4l-1,1h-3v-2h3v-2l-3,2l-7,1h-2v-2h3l-7-4l-2-2v-4l1-1z"/><path d="M101,35h1v1l-1,1h-1v-1zm7,0h1l3,5v2h-4l-1-2v-3zm-8,3h1v2l-2,1h-1v-1zm128,1h1v2h-1zm12,3h3l2,1v1l-2,1h-5v-2zm28,1h4l16,4v2l-4,4h-3l-9-2l-2-2l-2-4zm9,6h-1l-3-1l5,2zm-110-3h3l1,1v1l-4,5l-2,2h-4v-1l4-6zm62,1h2c0,2,1,1,4,1v1l-1,1h-3l-2-2zm-18,1h4v2h-3l-1-1z"/><path d="M251,51h4l26,5l1,3v1l-8,2h-1v-3h1v-1l-13,3h-1l-17-5v-1l5-3zm-77,2h1l2,1v1h-2l-1-1zm61,0h5l2,1v1h-7zm-78,1h3v1l-1,1l-2,1h-2v-1zm95,1h4l3,6v2l-1,1h-2l-4-2l-1-1v3l-1,3l3-1h6v2l-1,4h-1l-11-1l-6-6v-3l8-5z"/><path d="M173,56h2v1h-2zm18,0h2l3,1v1l-1,1h-1l-2-1l2,2v1l-1,1h-1v-3l-1,1h-1v-2c2,0,1-1,1-2zm43,0h1v3l-2,1h-1v-1zm-36,2h8l2,1l1,1l1,2v1h-1l-2-1l-1-2v-1v4h-2l-4-2l-2-2zm-17,1h2v1l-2,1h-1v-1zm106,0h1v6h-5v-2h3v-3zm-57,2h2v1h-2zm5,0h1l2,2v1l-1,1h-3l-1-1v-2zm-24,1h13v1l-5,5l-4,1h-1l-4-4v-1z"/><path d="M8,63h1l12,1v1l-4,2h-3v1l7-2h1l5,7v1l-2,1h-2l-11-1v-1q1,0-7-5v-3l1-1zm195,1h3v1l-1,1h-2zm70,0h1l3,4l1,8v1l-16,1h-2l-4-1v-1l2-2l7-5zm-5,8h-1l-1-1v2h3z"/><path d="M208,65h1l2,1v2h-1l-2-2zm-86,1h5l1,7v1l-2,1l-8,1h-4v-1l2-4l1-1h1v2l3-5zm-3,7h-1l-1-1v2h2zm81-7h2v1l-1,1h-1zm-15,1h1l1,1v1h-2zm-185,2h1v2h-1zm132,0h3v1l-2,1h-1zm47,0h1v1l-1,1h-2v-1zm70,2h1l2,1l1,4v1h-2l-1-1l-1-4zm-216,2h1v2h-2v-1zm7,0h9l4,2l1,1l2,3v1h-1l-17-5v-1zm10,3v-1h-2v1zm-42-1h1l1,1l1,2v1h-1l-2-2z"/><path d="M12,79h2l20,11v2l-2,1h-9h1v1h-3l-4-1v-1q2,0-9-4l-2-1v-1h3c6,1,3-6,3-7zm9,10h1l-1-2v-1h-3l1,2v1zm10,3l-2-1l-1-1l1,1v1zm60-13h1l34,8v1l-2,45l-1,1h-1l-24-16v-1l2-13c9-7,8-7-1-10l-8-5l-3-3v-2l2-4zm29,12h-1l-5-4l2,4v1h4zm-13,3l-5-2l1,1v1z"/><path d="M203,80h1l2,1v1h-2v2h-2v-1l1-1h1l-1-1zm83,1h1v4l-1,1h-1l-1-1v-1zm-117,2h1l1,1v1h-1l-1-1zm26,0h1l1,1v1h-1l-1-1zm12,0h1v1q-1,0,7,3v1h-5l-5-2v-1zm50,0h1l8,1l4,4v1h-2l-7-1l-4-1l-1-1v-2zm-193,1h5l12,5l1,2v1h-1l-10-4l2,1l1,1l1,3v1l-3,1h-1l-8-8v-1z"/><path d="M224,84h1l1,1v1h-1l-1-1zm54,0h5v1l-5,2h-1v-1zm-278,1h2l1,1v1h-3zm168,0h1v1l-1,1h-1v-1zm63,0h1l1,2v1h-2zm-189,3h4l2,2v1h-4l-2-1zm155,0h2v1l-2,1q-1,0,2,1v1h-3l-1-1v-1zm-67,2h1v1l-1,1h-1v-1zm91,0h4v1h-4zm-4,1h1l1,1v1h-1l-1-1zm-92,1h3v1l-1,1h-2zm53,0h1v1l-1,1h-1v-1zm5,0h1v1l-1,1h-1v-1zm-131,1h3v1h-3zm78,0h1l1,1v1h-2zm104,0h5v1l-2,2l-2,1h-2v-3zm-40,1h1v2l-1,1h-1v-1zm34,0h1l1,1v1h-1l-1-1zm-104,1h1v2l-1,2h-1v-2z"/><path d="M189,95h1v2l-3,3h-1v-3h1l1,1v-2zm-13,1h1v1l-1,2h-1v-2zm-18,2h1l1,1v1h-1l-1-1zm-11,1h1v1l-1,1h-1v-1zm36,0h2v2h-1l-1-1zm50,0h1l38,3l7,2l9,3v5h-2l-19-2v1h3v4l-1,1l-9,1h-6l-24-5l-2-2v-2l2-5z"/><path d="M256,99h3l1,1v2l-1,1h-2l-1-1zm-92,2h2v1l-3,2h-2v-1zm14,0h1v1l-1,1h-1v-1zm2,0h2v1l-1,1h-1zm40,0h1v3h-1zm-47,3h8v1l-2,1l-5,1h-1zm10,1h1l1,2v1h-1l-1-1zm-28,2h1v1l-2,4h-1v-3zm12,0h3l1,2v2h-1l-3-2zm56,0h1v3h-1zm-41,3h2v1l-2,1h-2v-1zm-7,1h2v1h-2zm50,2h6l12,6l1,1v4l-1,2h-19l-2-2v-3z"/><path d="M143,116h1l2,2v1h-1l-2-2zm104,4h12l6,1v3l-1,1h-4l-13-1zm-120,3h1l1,4v1h-1l-1-1zm-47,1h1v2h-1zm70,0h1v3l-1,1h-1v-2zm-42,1h3v1h-3zm29,0h1v2h-1zm4,0h1v3l-1,1h-1v-1zm15,0h1l2,2v1h-1l-2-2zm6,0h1l1,1v2l-1,1h-3v-2h3l-1-1zm4,0h3v1h-3zm-109,1h10l1,1v2l-3,1h-10v-2zm1,2h2v-1h-2zm76-2h2v1l-1,1h-1z"/><path d="M154,126h1v1l-1,1h-1v-1zm49,0h1v1l-2,2h-1v-1zm44,0h1l2,1l1,1l3,4v1l-5,1h-1l2,2l1,7v1l-1,1h-3l-7-10l-1-2v-1l5-5zm-166,1h1l1,1v1h-1l-1-1zm124,0h3l2,1l1,1v1h-1l-3-1l-2-1zm28,1h3l2,3v1l-2,9l-1,4l-3,6h40l6,2v3h-3v-1h-7l7,11l1,2l1,4v5l-3,1h-4l-16-1l-2-2v-3l7-5h2l3,4l-18-9l2,2l1,2l1,3v2h-3l-10-3q-3-1,37,18l1,1v3h-5l-1-1v-1h-3l7,12v1h-4l-14-5v-1q1,0-28-10l-1-1l-2-10v-1h1q1,1-2-21v-9l4-8h1q0,1,4-6zm-4,55h-1v1h1zm43-14v-1h-1v1z"/><path d="M93,129h2l1,1v2l-1,1h-2zm19,2h1l8,4l3,3l1,2v6l-9,17h-1q0-1-2,4h-1l-2-3v-4l3-9c-2,0-2,1-3,2h-1v-1l2-14h4l5,1l-5-2l-3-5zm152,0h4l3,1v3l-1,1l-5,1h-4v-1l1-1c3,0,1-2,1-3z"/><path d="M76,134h13l3,1l2,1v2l-1,1l-8,3l-17,2h-2v-1l1-1zm10,6v-1h-5v2l4-1zm47-5h1v3h-1zm119,9h3l2,3v2l-1,1h4v1l-3,1h-1l-4-4zm-124,7h1v2h-1zm-4,2h1v2h-2v-1zm2,0h1v2h-1zm52,0h6l1,1v1h-1l-6-1zm-53,3h2v2h-1l-1-1zm63,1h4l3,3v2h-2v-1v7h-2l-1-2v-1l2-3l-1,2h-3l-5-2l-2-2v-2h4l7,3c0-2-2-1-3-1l-1-2z"/><path d="M179,158h1v2h-1zm-55,1h2v1h-2zm92,1h1l1,1v1l-1,1h-1v-1h1l-1-1zm-18,3h1v1l-1,3l-2,2h-1l-1-2v-1h1l1,1v-1l1-2zm-21,1h1v3h-1zm-29,1h1v7l-3,4h-1v-3zm25,2h1v2h-1zm-29,1h2v3h-2v-1l1-1l-1,1h-1v-1zm53,1h1v1l-1,2h-1v-2zm2,0h1l1,1v1l1-2h2v1l-2,4h-1l-2-4zm-58,1h1l1,1v1l-1,1h-1v-1h1l-1-1zm23,0h3l2,1v1l-1,1l-4,2h-1v-2h2v-2l-3,4h-1l-1-1v-1l2-2zm8,0h2v1h-2z"/><path d="M211,172h1l1,1v1h-1v-1l-1,1h-1v-1zm-62,1h2l1,2v1h-1l-2-2zm-1,4h1l1,2v1h-1l-1-1zm58,3h1l1,1v1h-1l-1-1zm-70,14h1l1,2v1h-1l-1-1zm6,9h1l1,1v1l-2,1h-1l-1-1v-1zm138,2h1l1,2v1h-1l-2-1v-1zm3,3h3l2,1v1l-1,1h-1l-2-1l-1-1zm-135,6h2v1h-2zm12,6h2l9,3v2h-1l-5-1l-3-1l-3-1v-1zm12,3h3l1,1v1h-1l-3-1zm8,1h1l2,1v1h-3zm8,4h1v2l-1,1h-1v-1zm-2,6h1v2h-1z"/></g><g style="fill:rgb(155,182,211);fill-rule:evenodd;stroke:rgb(155,182,211);stroke-width:0.1;" id="l8"><path d="M68,0h5v1l-3,3h-3v-2zm23,0h2l1,3v1l4-2h2v1l-2,3h-4l-2-1l-1-3zm15,0h1v1h-1zm8,0h2l1,2v1l-1,1h-1v-3l-1,2h-1v-2zm49,0h4l1,1v4l-2,3l-1,1h-1l-2-1l-1-1v-1l1-3h1v4l4-4h-1l-3-1zm55,0h1v1h-1zm21,0h1v2h-1zm2,0h2l1,3v2l-4,4l-3,1h-1l-2-2v-1l2-1h5zm-212,1h1v2h-1zm194,0h1l1,1v1h-1l-1-1zm3,0h1v2h-1z"/><path d="M189,2h1v2h-1zm30,1h1v2h-1zm-72,3h12v1h-6v5h-1l-2-1l-1-1l-2-3zm-115,1h2v1l-1,3l-2,1h-1v-1zm164,0h1v1l-1,1h-1v-1zm-106,4h2v1h-2zm59,3h1l1,1v2h-2zm15,2h2v2h-1l-1-1zm-128,2h3v1h-3zm33,1h2v1h-2zm3,1h1v2l-1,1h-2v-1h2zm77,1h4v1l-1,3l-1,1l-3,2q-1,0,5,4v3l-1,1l-5,4h-1l-1-2v-4l1-11z"/><path d="M133,25h1v2h-3v-1zm3,1h1l3,3v1h-1l-4-2v-1zm7,1h1v3l-2,2h-1v-1zm13,4h3v3h-5v-2zm73,0h2v1h-2zm-107,1h1l2,2v1h-1l-2-2zm7,0h2l12,5l1,1v2l-1,1l-4,3h-1v-1l2-2q1,0-13-6v-1zm-110,6h1v1l-1,2h-1v-2zm50,1h1v1l-1,1h-1v-1zm3,0h1v2h-1zm-65,6h2v1h-2zm137,1h1v1l-1,1h-1v-1zm9,0h1l1,1v1h-1l-1-1zm-131,1h1v2h3v1l-2,1h-1l-1-1z"/><path d="M151,48h1v2h-1zm3,2h1v1l-1,1h-2v-1zm-128,3h1v2l-1,1h-1v-1zm107,1h1v1l-1,1h-1v-1zm-9,4h4v1l-3,1h-2v-1zm-100,1h1l2,1v1l-1,1h-2zm200,0h2v1h-2zm-165,10h4l1,1v1h-1c-3-1-2,1-2,2h-1l-1-1zm42,2h1v1l-1,1l2-1h3v1l-2,1h-5v-1zm-68,25h1v1l-2,2h-6v-1zm16,1h1l1,1v1l-5,6l-1,1h-6v-4h2c4,2,4,1,5-1zm10,1h29l6,3v1l-3,1l-4,1h-2l-21-1l-4-2l-1-2zm20,3h2v-1h-2zm3,0h2v-1h-2z"/><path d="M23,99h2v1q-1,0,3,1v1l-8,2h-3l-2-1v-1l2-1zm6,1h4v1h-4zm-27,1h3l2,2v2h-2l-2-1l-1-1zm-2,1h1v1h-1zm51,4h18l14,2v1l-6,8l-1,1l-36,18h1l4,2l47,29v1q-2,0,10,6l12,7l1,1l1,4v3l-1,1l-5,3l-14,7h-4v-1l4-2h1h-8l-8-2l-30-31l-43-49v1h-1c-1-2-1-1-3,1q-1,0,19,9l9,5l30,85v1l-33,17l-4,2l-3,1h-8v-2l3-3q1,0-15-3l-2-1v-119zm-4,5l6-3h-4v1zm-28,21v-1l1-1h-2v2zm5,77v1h3v-1zm-9,3v1l-5,7l-1,1l11-9zm-9,9h-2v1h2zm15,8v-1h-2v1zm22-113v-1h-3v1zm11-3v3l-1,2l15-9l-13,4zm48,80v-1h2l-4-2v-1l-2,2h-1l1,1v2l1-1zm-74,25v1l-1,1h1l5,2v-1l3-4l-7,1zm35-103h-1v1h1zm-37,107h2l-2-2z"/><path d="M34,137h1l2,1v5h-2l-3-1v-3zm70,7h3v1h-3zm-71,18h2l1,1v1h-4v-1zm16,25h4v1l-1,1h-3zm-42,10h4l7,1v1l-1,2l-3,3l-11,5h-3v-9l1-1l2-1zm109,1h1v2h-1zm-70,3h5l1,1v3l-3,1h-2l-3-1v-1l1-2zm40,1h1v1l-2,2h-1v-1zm29,3h1v5h-1zm-53,9h1l2,1v1h-2l-1-1zm-53,25h2v4l-1,1h-2l-1-1v-2z"/><path d="M17,242h3v1l-1,1h-2zm121,29h1v3h-1zm6,4h1l1,1v1l-1,2h-1zm9,2h2v10h-1l-2-3v-4zm-14,2h2l2,8v1h-2l-1-1l-1-3zm52,0h3v1h-3zm-46,1h2l1,4v4h-1l-1-2l-1-5zm-23,1h5v1c-2,0-1,1-1,5h-2l-2-2zm34,0h1l1,2v1h-1l-1-1zm11,1h2l1,1v1h-1l-1-1l1,2v3h-2zm7,0h3v1h-3zm6,0h3v1h-3zm12,0h1v3h-1zm-7,1h1v2h-1z"/><path d="M132,284h2v1h-2zm31,0h1v2h-1zm12,0h1v4h-1zm7,0h1v2h-1zm-2,1h1v3h-1zm-36,1h1v2h-1zm40,0h1v2h-1zm-26,1h2v1h-2zm13,0h1v1h-1zm6,0h1v1h-1z"/></g><g style="fill:rgb(107,128,129);fill-rule:evenodd;stroke:rgb(107,128,129);stroke-width:0.1;" id="l9"><path d="M89,0h1l1,4v2h-1l-1-2zm29,0h1v1h-1zm52,0h1l1,4v2l-3,5l-1,1h-1h21l-4-2v-3l2-7h1l5,9v3l-1,2l-8,5q-8,4,10-1l4-1h1l12,5l25,11l2,3v1l-2,6l-10,2h-3l-47-20l-4-5l3,6v-1h1l3,9v1l-13,10l-8,3h3v3l-11,3l6-2h1v1l-2,2l-2,1l-6,2h-3l-2-1l-3-2v-1l1-1h6v1l-2,3v-8l5-10l2-2l10-9l-3,2l-2,1h-3l-1-1v-2l3-6zm-6,35v1h2v-1zm9,0v-6l-2,1h-2v6l2-1zm49,6h1v2h2l-1-2l-1-3v1zm4-7h1v-1h-1z"/><path d="M191,0h1l1,1l1,2v1c3,0,2-2,2-4h1l2,2v3l-5,1h-1l-2-5zm10,0h1v1l1-1h1v1l-1,1h-2zm27,0h1v2h-1zm7,0h1v2h-1zm13,0h1v1h-1zm6,0h1v1l-1,1h-1v-1zm4,0h1v2l-2,2h-1v-1zm11,0h1v1h-1zm-194,2h1l1,1v1h-3v-1zm44,0h1v2l-1,1h-1v-1zm26,1h1l1,4l1,6v3h-1l-12-2v-4l1-5h5l5,5c0-3-1-3-2-4v-2zm-5,4h-1l-2-1v2h3zm-3,6l1-2l1-1h-2zm3-4h-1v1h1zm96-6h1v2l-1,1h-2v-1h2zm27,0h4v1h-4z"/><path d="M71,4h2v1l-2,3l1-1h3v3l-1,4l-1,1h-2v-1c2-5,0-5-1-6v-2zm29,0h1v1l-1,2l-1,1l-4,1h-1v-1l1-1zm11,0h2v1h-2zm20,0h1v3h-1zm115,0h1v1l-1,1h-1v-1zm-132,1h3v1h-3zm11,0h3v3h-1c0-2-1-1-2-1zm-58,1h2v3h-1l-1-1zm-13,2h1l1,1v1h-1l-1-1zm78,0h1v2h-1zm22,0h3l4,1l1,1v2l-3,1h-4l-1-1zm99,0h1l1,1v1h-1l-1-1zm-150,1h2v1l-1,6h-5l-5-2v-2l1-2zm-5,3v1h2v-1z"/><path d="M34,11h1v1l-1,1h-2v-1zm23,0h1l1,2v1h-1l-1-1zm-15,1h1l1,1v1l-1,1l-3,2h-1v-1l2-3zm35,0h1l3,5v1h-1l-3-3zm52,2h2v1l-1,3l-1,1h-2v-2l1-2zm-61,1h1v1l-1,1h-1v-1zm40,0h1v2l-1,1h-1v-1zm-35,2h2v1h-2zm-32,1h1v2h-1zm36,0h1v2h-1zm70,0h1l1,1v2l-1,1h-2v-1c2,0,1-2,1-3zm112,2h2v1h-2zm-179,2h1l2,1v1l-2,1h-1zm49,0h1l1,1v1l-1,1h-1v-1h1l-1-1zm-55,1h1v2h-1zm144,3h1l1,2v1h-1l-1-1zm-36,2h5l1,1v1l-1,1l-2,1h-5v-2zm23,0h3v2h-2l-1-1z"/><path d="M120,31h1l2,5v2l-2,3h-1zm-9,3h1l1,1v2h-2zm-79,1h2v1h-2zm-17,2h2v1h-2zm112,0h2v1h-2zm111,1h1v2l-2,2h-1v-1zm-238,2h1v1h-1zm0,4h1l4,2v1h-2l-3-1zm189,0h1v2l-1,1h-4v-1l1-1zm-10,2h2v2h-3v-1zm-167,2h1l1,1v1h-2zm171,0h2l2,2v1l-2,1l2-1h1v3h-1l-3-1l-1-1zm-167,2h3l2,2v1l-2,3h1v-1h2v7h-1l-5-7z"/><path d="M242,50h2l1,1v1h-3zm-106,1h1v5h-1zm-131,3h2l2,2v3l-3,3h-2l-1-1v-1l1-5zm205,0h4v2l-1,2h-2l-1-1zm5,4h1l1,1v1h-1l-1-1zm-173,3h11v1l-4,2h-2l-1-1l1,1l1,2v2l-3,1h-2l-1-1v-1l4-2h-1v-1l-3,3h-2v-3l1-2zm82,0h4l1,1v2h-1l-4-2zm-7,1h6v1h-6zm-95,1h1l7,1v1l-1,2h-4l-3-3zm30,2h1v3c-2,3-1,3,1,4v1h-2l-2-2v-2z"/><path d="M68,67h2l1,1v1l-1,2h-2zm-29,1h1v2h-1zm37,2h1v3l-1,1h-1v-1zm-76,6h3l2,1l2,2v1h-1l-6-2zm21,0h2l2,2v2l-1,1h-2l-2-2v-2zm0,2l1,1v1h2l-1-2v-1l-1,1zm251-1h1l1,1v1h-2zm-209,2h7v1l-2,2h-5v-1l1-1l-1,1h-1v-1zm109,0h1v1l-1,1h-1v-1zm106,0h2l2,2v1h-3l-1-1zm-270,1h1l2,2v2h-3l-1-1v-1zm-8,1h1l2,1v1h-2l-1-1zm75,0h1l1,1v1h-1l-1-1zm195,2h5v2l-1,1h-5v-2zm3,2v-1h-2v1zm-197-1h2v1h-2zm11,9h4l2,1v2h-1c-4-2-4-1-6,1h-1v-1z"/><path d="M58,95h1v1l-1,1h-5v-1zm4,1h3v1h-3zm11,0h7v1h-7zm-60,2h2l4,1v1h-4l-2-1zm8,0h3v1h-3zm72,0h1l4,1l1,1v1l-3,3l-12,7h-1v-1l6-6l8-4h-3l-1-1zm-93,1h2v1h-2zm7,0h4v1h-4zm46,0h2l2,1l5,3v2l-14,2h-1v-4l2-2h1v1l-1,2h-1c10,0,10-1,9-1l-1-1v-1h-2l-1-1z"/><path d="M27,102h2v1h-2zm8,0h1l10,5v1l-1,1l-15,4h-3l-13-2l-3-1l-2-1v-2l13-4h2v1q-6,6,11-2zm35,1h7l2,1v2l-5,1h-3l-1-1zm2,2h2v-1h-2zm-72,1h5l1,1v1h-5l-1-1zm80,5h2v1l-2,1h-1v2h-1v-2zm-2,6h1v1l-1,1h-1v-1z"/><path d="M71,119h4v1h-4zm-7,1h6v1h-6zm-4,1h1v1h-1l1,1v1h-1l-2-1v-1zm-6,3h1v1l-3,3l-2,1h-1v-1l3-3zm-7,5h1v1l-1,2l-2,2h-1c0,1,1,1,3,2l3,6v-1l2-4l1-1l5-3h3v7l-1,4l-1,1h-1v-1l1-4h1c0-6-1-5-10,3h-3l-4-7v-2l3-4zm57,11h3l2,1v1l-9,2h-2v-1z"/><path d="M90,143h2l5,1v1q-2,0,10,2v1l-11,2h-1l-4-2l-3-3v-1zm20,0h1l1,3v1h-4v-1zm-110,1h2l11,2l10,8v3l-1,7l-1,2l-2,2h-4l-15-3v-2l2-2l15-4q2,0-3-1l-12-8l-2-2zm14,21h2l3,1l-2-1l-1-1l-1-2v2z"/><path d="M58,147h1v3h-1zm0,4h8l6,4l2,2v1h-2l-13-4l-1-1zm-53,3h5l1,1v1l-1,1l-2,1h-2l-1-1zm70,7h1l15,1l7,4l5,3l1,2v2h-1l-23-7l-3-1l-2-2zm-75,11h1l8,9v9l-1,1l-6,4h-2v-2l6-8l1-1h-1l-3-2l-3-4z"/><path d="M105,174h4v1c-1,2,0,2,3,3v1h-3l-4-4zm11,6h1v2h-1zm13,1h1v1l-3,5h-3v-1c2-2,1-1-2-1v-1zm95,3h1l4,4v1l-1,6l-1,4h-1v-1v4l-2,7l-3,9l-2,2h-1v-7l4-27z"/><path d="M121,187h1v1l-1,1h-1v-1zm8,0h1v2l-3,2h-1v-2zm102,1h7l5,2l1,1v1l-17,39h-1l-1-1v-1l1-1l-3,4l-1,1h-1v-5l8-38h1q0,2,1-2zm-4,31v-2h-1v2zm1-2v-1h-1v1zm3-15v-1l2-10l-3,11zm-3,13v-1l1-1h-2v2z"/><path d="M112,192h1v1l-1,1h-2v-1zm138,0h1l3,3v1h-3v-1l1-1h-2zm-7,1h2l11,20v-1h1v1l-2,6h-1q0-1-5,7l3-4h1l3,2v1l-1,1l-4,3h2v1h1v-2h4v1l-1,2l-2,3l-5,3h-2l-1-11v1h-1v-17v3l-1,7h-1v-8l1-4l1-3l-5,31h-1v-7h-1q0-1-1,5l-2,7h-1l-1-4v-7h1q0,3,2-13l2-6l2-4c-1,0-1,1-6,15h-1v-3l2-21h2l1,2v2l-1,1l2-3h1v4l3-5c2-2,1-2-1-4zm-2,13v1h1v-1zm-3,12l2-2zm14,14v-1h1v-1l-1,1h-1l-1-1z"/><path d="M126,194h1v2h-1zm-126,2h1v2h-1zm108,0h1v2l-1,1h-1v-2zm145,1h6v1l-2,2h-1l-2-1l-1-1zm7,1h2v1h-2zm-162,1h1v1l-1,2h-1v-2zm4,1h1v4l-1,10h-1v-13zm15,0h1v2h-1zm-26,1h1l2,8v4h-1v-3l-1,4h-1l-1-3v-9zm1,7v-2h-1v2zm2-6h1v2h-3v-1zm182,1h1l2,2l2,3v1h-1l-7-1v-2l4-2h-1zm-168,2h1v2h-1zm16,0h1v2h-1zm-6,1h2v3h-1l-1-1z"/><path d="M79,207h3l1,1v1h-1l-3-1zm188,0h1v1l-1,3l-3,7h-1q0-2-2,4l-2,4l-1,1h-1v-1l3-9l1-2l4-6zm-164,2h1v12l-1,3l-1,1h-2v-1zm22,0h1v2h-1zm-57,1h1v1l-1,1h3v1l-2,1h-4v-1zm0,3v-1h-1v1zm61-3h1v2h-1zm-42,1h1l1,1v2h-1l-1-2zm23,0h1l1,3v1h-1l-1-1zm-33,2h2l10,14l-2-1v-5l2-5h1l1,6l2,16v2l-1,1h-1l-9-10l-1-3v1h-1l-2-14v3h-1zm4,12h1v-2h-1zm3,3h-1v2h1z"/><path d="M283,213h1v1l1-1h1v1l-1,1h-1l-1-1zm-156,1h4l2,2v3l-1,3h-1l-2-2l-2-4zm4,5h1v-1h-1zm-1-3h-1v1h1zm-36-1h1v8h-1zm6,0h1v3l-1,2h-1v-2zm20,0h2v1h-2zm-29,1h1v4h-1zm20,0h1l1,1v1h-2zm14,0h1v3l1-1h1v1l-1,1h-2zm145,0h2v2l-2,1h-1v-1zm-148,2h2v1l-1,2h-2v-2zm-49,1h2v1h-2zm189,0h1v2h-1zm-193,1h1l1,1v9h-1l-1-1l-4-5v-1h2c3,1,2-2,2-3zm43,0h2v1h-2zm124,0h1v2h-1z"/><path d="M267,220h1l1,1v1l-1,2l-8,13h-1v-3l1-7zm3,0h1l1,2v1l-2,6l1-2l1-1h1v1l-1,1l2-2l3-1h3v1l-1,1h-1v1l2-2h1l7,4v8l-2,2l-6,5h-1v-2l2-2l5-4l-4,3h-1v-1l1-3h1v1v-3l2-1l-3,2h-3h1v1h-4v-1l1-1q1,0-2-1l-6-3v3h-1v-4zm16,12h-1v1h1zm-8,0v-1h-1v1zm0-2v-2h-1v2z"/><path d="M274,220h1v3l-2,2h-1v-1l1-1h1l-1-1v-1zm-147,1h1l1,1v3h-1l-1-3zm7,0h1l1,1v1l-1,1h2l1,1v1h-1l-4-2v-2zm97,0h1v10l-1,12h-2v-16l1-5zm-186,1h2v1l-1,1h-2v-1zm53,0h1v2h-1zm-38,1h1v2h-1zm13,0h1v3h-1zm19,0h1v2h-1zm30,0h2v1l-1,2h-1zm4,0h1v2h-1zm109,0h2v1l-1,1h-1zm26,0h1v3h-1zm-166,2h1l1,2v2l3-3h1v1l-3,7h-1l-2-6z"/><path d="M40,226h1l1,1v1h-1l-1-1zm21,0h1l3,3v2h-3v-1c1-2,0-2-1-3v1h-1v-1zm68,0h1l1,2l4,15v3h-1l-1-2l-2-7l-1-4l-1-5zm106,0h1v2l-1,1h-1v-1zm-162,1h1v3h-1zm170,0h1v2h-1zm-200,1h1l1,1v1h-1l-1-1zm33,0h2v5h-2zm39,0h1v2h-2v-1zm-68,1h1l2,1v1h-2l-1-1zm9,0h1v2h-1zm3,0h1l1,1v1h-1l-1-1zm75,0h1l1,1v6h-1l-1-1l-1-4v-1zm-88,2h1l5,5l-1-1v-2h1l1,2v5h-3l-2-2v1h1v2h-1l-1-1l-1-3zm6,8v-2h-1v2z"/><path d="M71,231h1l2,1v3h-1l-1-1l-1-2zm-16,1h4l2,1l1,1v3h-3v-1h1h-3l-3-1v-2zm3,2v-1h-1v1zm98,0h1l1,1v1h-1l-1-1zm-77,1h1v2h-1zm13,0h1l1,1v1h-1l-1-1zm7,0h3v1q-1,0,8,3l4,3v1h-2l-7-1l-6-3l-1-1v-1zm29,0h1l1,1v3h-2zm117,0h1v2h-1zm7,0h1v2h-1zm-210,1h1v1c-1,1,0,1,1,3v1h-1l-2-2v-2zm82,0h1l1,5v1h-1l-1-1l-1-2v-1zm-8,1h6l1,3v2h-5l-2-3z"/><path d="M248,238h2v1l-1,1h-1zm-211,1h1v4h-2l-1-1v-2zm78,1h1v2h-1zm172,0h1v3l-1,3l-2,2l-2,1h-1l-2-2v-1l1-2zm-3,6h1v-1h-1zm-252-5h2v1h-2zm202,1h2v1h-2zm-194,1h2v2h-2zm75,0h1v2h-2v-1zm129,0h1l1,4v5h-1l-1-5zm-120,1h2v1h-2zm38,0h1v2h-1zm-158,2h2v3h-2l-1-1v-1zm34,0h1l2,2v1l-1,2l-4,2c-3,0-2,0,1,1l5,3l1,1v1h-3l-7-4l-1-1l3,3v1l-2,2h-8h1v1h-1l-1-1v-4v1h-1v-2l8-6l-4,4h-3v-1l2-2l4-3zm-1,2h-1v2h1zm-5,0h-1v1h1zm-1,10h1v-1h-1z"/><path d="M278,249h1v1l-1,1h-1v-1zm6,1h2v1l-1,1l-6,3h-2v-1l5-3zm3,0h1v1h-1zm-1,2h1l1,2v3h-2l-1-1v-1c2,0,1-1,1-3zm-41,1h1v2h-1zm38,2h1v3l-2,2h-1l-1-1v-1h1l1,1v-1zm-283,1h2l2,4v4l-3,2h-1zm8,3h2v1h-2zm11,0h1l2,1l2,2v3l-2,1l-4,1h-9v-1l1-2h1q0,1,1-3l1-1h1l6,2v-1h-1zm-4,4h1l1,1v-2h-2zm5,1h1v-2h-1zm265-5h3v1l-3,1h-1v-1z"/><path d="M29,261h2v1h-2zm-24,1h2v1h-2zm21,0h1v1l-1,1l2-1h1l1,1v1h-4l-1-1v-1zm6,0h1l1,1v1h-1l-1-1zm252,1h2l2,1v1l-1,1l-5,3l2-1l3-1h1v3h-6l-1-1l-1-2v-1l1-1h2l2,1l-1-1zm-261,3h1l1,1v1l-1,1h-1zm5,1h2v1h-2zm-28,1h2v1h-2zm23,2h2l1,1v1h-1l-2-1zm256,0h2v1l-1,1l-3,2l-2,1h-1v-1l3-3zm3,3h2l2,1v1l-2,1h-1v-1l1-1h-2zm5,0h1v1h-1zm-8,4h1v1l-1,1h-1v-1zm7,1h2v1h-2zm-132,1h1l1,1l2,5v2l-1,1h-1l-1-2l-1-4z"/><path d="M191,280h4l1,2v2h-1l-3-3l1,4v1h-2zm96,0h1v3c-2,0-1,1-1,2h-1l-1-1v-2zm-101,1h1v5l-1,1h-1v-1zm2,2h1v2h-1zm-6,3h2v1h-2z"/></g><g style="fill:rgb(100,98,79);fill-rule:evenodd;stroke:rgb(100,98,79);stroke-width:0.1;" id="l10"><path d="M10,0h3v2h-3zm17,0h1v2h-1zm6,0h1c0,3,2,3,3,4v1h-1l-2-1l-1-1zm14,0h1l8,3l1,7v2h-1l-4-2l-5-7zm33,0h1l1,2v1l-3,2h-4l7,7l2,4v6v-18h6v3l-4,2q-1,0,23,8v2l-1,1l-2,1l-11,5h1v1h-1l-1-1v-3l2-1h1v-2l-5,2l-3,1h-8l-1-1l16,7v2l-2,4l-2,2l-5,4h-1l-6-1l-1-1v-1l1-1h5l-6-4v-1l1-1h4l5,2v-2q1,0-18-4l-4-4v-1h1l3,3v1c7-8,0-8-2-9v1l-1,1h-1v2h-1v-4l9-10l-3,1h-1v-2l2-3zm0,18h1v-5h-1l-3-1l3,5z"/><path d="M88,0h1v3h-1zm31,0h1v2h-1zm20,0h8v2l-1,6l-3,2l2-1h1v1l-1,1h-3l-10-3c-7-3-5-2-3,6v5v-1h1v-3l2-5h1l2,5l-1-1v-4l1-1h1l10,11v-4h1l1,3v2l-2,1l-14,2h-1l-7-3l-1-1v1l-1,17l-1,1h-1l-4-12v-3l7-20l1-1l6-2z"/><path d="M171,0h2v1l-1,3h-1zm31,0h1v1h-1zm27,0h1l4,5v1h-3l-1-1l-1-2zm20,0h9v17l1-10l1-2l1-1h1v1q-1,3,7-4h1v5l-1,23l-4,3l-4,2l-24,9h-2l-2-7v-1l1-1l30-4q1,0-6-4l-5-5l-3-18v1h-1v18h-2l-1-1l-3-11v-1l1-2l4-6z"/><path d="M195,1h1l1,1v2h-3l-1-1v-1zm40,1h1v3h-1zm-134,1h7l3,2v2l-1,8h-1l-5-6v-1q2-4-3,2l1-1h1v1l-1,1h-3l-4-1v-2zm19,0h1v1l-3,3h-4l-1-1v-1zm-94,1h1v1l-1,1h-1v-1zm159,0h1v3h-2v-2zm-149,2h1v2h-1zm-12,1h1l4,5v1l6-3h1v2l-2,2h-5l-5-3z"/><path d="M65,7h2l1,1v1l-1,1h-2l-1-1v-1zm-24,2h1v2h-1zm-1,3h2v1l-1,2l-1,1h-1v-2zm3,0h2l2,7v1l-10,6h-1l-1-1l-1-2v-3h1v3l9-10h-1zm97,0h3v1h-3zm27,0h1l1,1v1h-1l-1-1zm-110,1h1l1,1v1h-2zm88,0h2v1h-2zm-109,2h1v1l-2,2h-1v-2zm23,1h1l5,2v1h-4l-2-2zm118,1h1v1l-1,1h-1v-1zm4,0h2v1h-2zm12,2h1v1l-1,1h-1v-1zm12,4h3l4,4l2,3l1,2v1h-1l-8-2l-6-4v-1l9-1h-1l-3-1zm2,5h-2l1,1v1h2z"/><path d="M108,24h2l1,1v3l-1,1h-1l-2-1v-2zm60,0h1v2h-1zm11,0h2v1l-1,1l-6,3h1v1h-1l-1-1v-2l2-2zm35,0h1l3,1l3,4v1h-4l-4-3v-2zm-30,1h4l1,2v1h-1l-3-1l-1-1zm-20,2h1v1l-2,2h-1v-2zm4,0h1v3l-1,1h-1v-1zm31,2h2v1h-2zm-164,2h5l5,3v1l-30,5h-1l-5-2v-1l5-3z"/><path d="M52,32h3v1l-1,1l-2,1h-3v-1zm6,0h1l9,2v1l-6,3h-2l-2-5zm17,1h2v1h-2zm36,0h2l1,1v4h-4v-4zm2,4v-2h-1l-1-1v3zm-40-3h1v1l-2,2h-1v-1zm24,1h1l1,1v3l-2,5l4-2l16-1h1v1l-2,6l-2,1h-1l-15-3l-10-4v-1l5-4z"/><path d="M220,35h3v2h-2v4h-1zm10,0h2v5h-1l-1-1zm-128,1h4v3l-1,2h-1l-2-2zm53,0h1v2h-1zm13,1h2v1h-2zm57,0h2v1l-1,3h-1zm-223,1h5v1l-5,1h-2v-1zm147,1h4l1,1v2l-1,1h-2v-1l2-2h-4zm83,2h1l1,1v1h-1l-1-1zm-18,1h7l6,1l3,6v2l-15,8h1v1h4v1h-6l-4-2l-1-1v-4l2-2l8-4q1,0-6-3v-2zm-3,16h2v-2l1-2h-4l1,3z"/><path d="M1,46h2v1h-2zm3,1h6l43,15l14,20v1l-5,7l-1,1l-9,1h-1l-5-5v-4h6l3,1l1,1v-3l1-1q1,0-23-9l-3-3l1,2v1l-1,2h-2l-5-5l-14-15l5,6v3h-4l-4-2l-2-7v1h-1v5h-1v-5zm48,38h-2l-2-1v3h2l6,2l-4-3z"/><path d="M157,47h1l1,1v1h-1l-1-1zm22,1h4l1,1l3,5v2l-1,1l-2,1h-2v-3l3-1h-2l-1-1l-3-4zm6,0h2l5,5v1l-3,5h-3v-1c3-5,2-5-1-9zm57,0h1l3,3v1l-1,1h-3v-1h3l-1-1v-1l-2,2h-1v-3zm-82,1h1v2l-1,1h-4v-1l1-1h2l1,1zm-18,1h3l1,1v1l-1,1l-6,1h-1l2,1l3,2v1l-13,10h-1l-2-2l-2-3v-1l12-11z"/><path d="M194,51h1v2h-2v-1zm5,0h1l1,1l1,2v1l-2,1h-1l-1-1l-1-2v-1zm31,1h1v2l-1,1h-1l1,1v2h-1l-1-1v-3zm-75,1h1v1l-1,1h-1v-1zm24,2h2v1l-1,1h-2v-1zm-32,1h4v2l-6,2h-1v-2zm7,1h2v2h-1l-1-1zm36,3h1v1l-1,1h-1v-1zm39,0h1v1l-1,1h-7v-1zm-65,1h1v4h-1zm35,1h2v1l-2,1h1l2,1v1h-3l-1-2v2l-1,1h-1v-1l1-3zm-83,1h6v1l-7,9l-1,1h-4v-1z"/><path d="M187,63h1l1,1v1l-1,1h-1v-1l1-1l-1,1h-1v-1zm21,0h2v1h-2zm-3,2h1l1,1v1h-2zm-44,1h1v1l-1,1h-1v-1zm28,0h2v1h-2zm-23,1h1l1,2v1h-1l-2-1v-1zm-89,3h1l3,1l4,2v2l-6,2h-3l-2-2v-1zm79,1h2v1h-2zm10,0h2v1h-2zm31,0h1l1,1v1h-1l-1-1v2h-1v-2zm-197,3h1l3,1l2,2v1h-1l-5-2zm16,0h3l1,1v1h-1q-3-1,1,1v2h-1l-3-1l-1-1v-2zm91,0h2l5,2l2,1l1,1v4l-1,1l-6,2l-31,2h-4l-3-2l-4-3v-1l1-1l21-5h1l23,6c0-3-2-3-10-4v-1l1-1z"/><path d="M151,74h1v2h-2v-1zm-31,2h3l2,2l2,3v3h-4l-4-6v-1zm9,0h3v1h-3v3h-1v-3zm140,0h1l5,3v1h-4l-2-2zm-243,2h1l4,3l2,3v2l-1,1h-2l-2-1l-2-2c0-3-1-2-5-2v-1zm164,0h2v1h-2zm14,0h1v2l-3,3h-1v-3l1-1zm-17,1h1v4l-1,2h-1v-3zm76,0h1l1,1v1h-2zm-39,1h1l1,1l1,2v1l-1,1h-1v-1c1-1,0-1-1-3zm-212,2h1v3h-3v-1h2z"/><path d="M153,83h2l1,1v1l-1,1h-1v-1l1-1h-2zm17,0h1v1l-1,1h-1v-1zm19,0h2v1l-1,1h-2v-1zm14,3h2l8,3l2,2v1h-14l-2-1v-1zm-167,1h3l11,5l1,1v2h-3l-12-1zm192,3h2v1h-2zm-175,5h2v1h-2zm142,0h2v1l-1,2h-1zm22,0h1l1,1l1,2v13l-1,1h-1l-1-16z"/><path d="M189,97h1l4,1v1l-1,5l-1,2l-5,5h-1v-3l3-3l-5,3h-2v-1l3-2h1v-1l-1,1l-2,1h-1v-2l3-1h1c5,1,1-2,1-4zm-24,1h1v3l-2,1h-1l-1-1v-1zm10,1h1v3l-1,2h-2v-1l1-1l-1,1h-1v-1l1-1l-2,2h-2l-1-2v-1zm4,0h1v1l-2,2h-1v-1zm-146,3h1v2h-1zm143,1h2v1h-2zm3,3h2v1h-2zm-19,1h1c0,2,1,1,2,1v1l-1,1h-1l-1-1z"/><path d="M153,108h1l1,1v1h-1l-1-1zm18,0h4l2,1v1c-4,0-3,1-2,3v1h-1l-2-1l-1-1zm-6,1h3v3l-1,1h-1l-1-3zm17,0h2v1h-2zm-3,1h2v1h-2zm-27,2h2v1h-2zm25,0h6v1h-6zm-29,1h1v1l-1,1h-1v-1zm70,0h1v9l-3,9l-1,1h-6l-1-1v-4l5-2h-2v-1l2-1h-2v-1zm-72,3h1v4h-1zm5,1h1v2h-1zm16,2h6l4,1l2,1v2l-2,1l-6,1h2l2,1v1l-3,1h-1l-4-3l-3-4v-1z"/><path d="M152,120h1v7l-2,2l4-2h3v1l-3,2l-2,1l-6,2h-1v-1zm-28,1h1l3,10l-2-4v-1h1l2,2v4l-1,3h-1v-4l-1,4h-1l-1-2l-1-4v-5zm21,0h1v8l-1,2h-4l-1-1v-1l3-5zm5,0h1v1l-1,2h-2v-1zm45,0h6l3,1l2,2v1l-10,4h-5v-3l1-2z"/><path d="M162,124h2v1h-2zm-15,1h3v1l-2,3h-1zm72,0h1v3h-1zm-80,1h1v1l-2,7l-3,6h-1v-10l1-2l1-1zm28,0h2v2h-1l-1-1zm31,2h1l1,1v1h-1l-1-1zm22,3h1v4h-1zm-77,2h2v1h-2zm-16,7h1v2h-1zm-2,3h1v2l1-2h1l1,3v1l-1,2h-2l-1-3zm95,1h1v3h-1zm-86,4h1l10,10v-2h1l10,8l2,4v5l-3,1h-1l-17-14l-3-7zm6,9v-1h-1v1z"/><path d="M124,149h1v2h-1zm58,2h14l1,1v2l-4,2h-2l-4-1l-4-2l-1-1zm-3,1h2v1h-2zm-3,1h2l5,1l2,1l2,2v1l-12,3h-1l-1-6v-1zm43,2h1v1l-1,2l-4,5l-4,4l-2,1h-1v-1l1-2l4-6l4-2h-1v-1zm-25,1h1v1l-1,1h2l2,2v1h-1l-4-2l-1-1v-1zm-10,7h3l2,1l7,8v1h-3l-12-3v-4zm-1,4v2h4v-5h-3l1,2v1z"/><path d="M201,163h1l1,1l1,3v1h-1l-1-1v-3l-1,1h-1v-1zm-34,1h1v1h-1l1,1v1h-1l-1-1v-1zm-6,2h1l1,2v2h-1l-1-2zm10,1h2v1l-1,1h-1zm34,1h2l2,1v3h-1l-1-1v-2h-2zm-28,2h2v1l-1,1l-12,5h-2l1,1l1,3v1l-1,1h-2l-1-2v-3l4-4l6-3zm20,3h1l2,2l1,2v3h-1l-3-6zm-21,4h3l1,1v1l-2,7l-1,1h-1v-1q1-1-3,1h1v1h-1l-3-1l-1-1v-1h1q0,1,1-4l2-2zm0,3v2h1v-2zm-1,2v1h1v-1z"/><path d="M182,177h2v1h-2zm6,1h2l4,1l2,2v1c-3,4,1,2,2,2l1,2v1l-2,2h-5h1v1h-1l-1-1l-3-10zm-7,7h2v3l-1,3l-1,1h-2v-1l1-4h1v1zm8,1h1v2h-1zm-56,4h1l2,1l1,5v2h-1l-1-1l-2-5zm112,1h2v1h-2zm-107,10h1v1h-1h3l2,7v1h-1l-2-2l-3-4v-2zm-2,5h1l1,1v1h-1l-1-1zm3,5h1l1,1v1h-2zm6,3h2l35,12v4l-8,2h-1l-14-4l-3-1l-9-9l-2-3z"/><path d="M142,215h1l1,1v1h-1l-1-1zm45,10h1v2h-1zm-1,3h1v3h-1zm-2,7h1v2l-1,1h-1v-1zm-4,6h2v1l-2,1h-1v-1zm-20,35h2v1h-2z"/></g><g style="fill:rgb(72,72,61);fill-rule:evenodd;stroke:rgb(72,72,61);stroke-width:0.1;" id="l11"><path d="M0,0h2v4h-2zm9,0h1v3h3v-3h1v3l-1,1h-3l-1-1zm17,0h1v3l-1,1h-1v-1zm9,0h4v1l-1,7l-1,5l-1,1h-2v-13zm51,0h1l2,4v2h-2l-1-3zm44,0h2v1l-4,3h-3v-2h1c2,1,2,0,4-2zm6,0h3v2l-1,1h-5v-2zm37,0h2l2,2v1h-3l-1-1zm58,0h1c0,2,1,1,2,1v3h-1l-2-1zm40,0h1v1c-1,1,0,1,1,2v1h-1l-2-2v-1z"/><path d="M178,1h2l1,1v1h-1l-2-1zm-95,1h1v1l-5,5h-1l3,2l1,1v1h-1l-4-1v-3l1-3zm38,0h1l2,1l1,5v3h-1l-4-5v-1zm132,1h2v1l-2,2h-1l-1-1v-1zm-148,1h1v4l-4,1h-1v-4h1l3,2zm157,0h4v2l-3,2h-2v-3zm-238,1h1v2h-1zm59,0h1v3h-1zm-43,1h2l2,2v2h-1v-2h-1q0-1-1,4l-1,2l-1,1h-1v-1l1-7zm73,0h1l3,1v1l-1,1h-1l-2-2z"/><path d="M110,7h1v3l-1,2h-1v-4zm140,0h1l5,4v7l-2,2h-1l-1-10v-1h-2l3,11v1h-5v-2l1-10zm-167,2h1l5,7v6h-5l-1-1v-1h1l2,1l-2-2l-2-5v-1h1l4,4l-4-5zm186,0h4v1l-2,21l-8,4l-17,7h-7v-1l2-3l1-1l11-4l14-4q2,0-8-4l-1-1v-1l4-10l5-3zm-6,5v1h3v-1z"/><path d="M43,11h2l1,1l4,7v2l-2,2h-7v-1zm5,8h-2l-1-2l1,2v2h2zm5-8h1v1l-1,1h-1v-1zm2,0h1l1,1v2h-1l-1-2zm-28,1h1l1,1v1h-1l-1-1zm98,1h1l1,1v1l-1,2l-6,6l-4,3h-1v-2zm-94,1h2v1h-2zm110,0h1l1,1v1l-1,1h4v3h-4l-2-4v-1zm-91,1h1l2,1v1h-3zm95,0h2v1h-2zm-112,2h1v2h-1zm32,1h2v1h-2zm43,1h2l2,5v1h-2l-2-1l1,4v2h-1l-2-2v-3c1-2-1-2-3-3v-1z"/><path d="M99,21h1l2,1v1l-2,2h-3l-1-1l1,2v4h-1l-1-4v-2l1-1zm-46,1h2v3h-2zm-19,1h1l1,2v1l3-3h1v1l-3,3h-3zm33,0h1l3,3v1l4-1h1v1l-1,1h-4l-4-3zm133,1h2v1h-2zm79,0h3l2,2v3l-1,1h-2l-2-2zm-200,2h1l7,2l2,1l1,1v1h-1l-9-2l-1-2zm101,0h2v1h-2zm-67,1h2l5,1v2l-1,1h-1l-2-1l-3-2zm-3,1h2v1h-2zm66,0h1l1,1v1h-2z"/><path d="M36,30h4l2,2v1h-1l-5-2zm44,0h4v1l-5,2h-2v-1zm-47,1h2v1l-4,3h-7l-3-1v-1zm19,0h2v1l-3,2h-8v-1zm13,0h2l6,3v1l-1,1h-3l-9-2l-1-1v-1zm29,0h1l8,4l2,6v-2h1l-2-4v-1h1l9,9l1,2v1h-2l-16-2l-4-7v-2zm5,10v-1h-1v1zm2-1v-2l-2,2z"/><path d="M110,31h3l2,2v1h-1c-3-2-3-1-4,1h-1v-3zm100,0h1l2,2v1h-1l-2-2zm-155,1h3v1l-1,1h-1l-1-1zm29,0h1l1,1v1h-1l-1-1zm4,0h1v1l-1,1h-1v-1zm-75,1h3l3,1v1l-10,3h-6v-1zm216,3h1l1,1v1h-1l-1-1zm-138,1h1v4h-5v-2l1-1zm23,0h1l1,5v1h-1l-1-1l-1-3v-1zm-114,1h2v1h-2zm218,1h1l1,1v2h-1l-1-1zm12,0h1v2h-1zm38,0h3l1,1v1l-1,1h-3l-1-1v-1zm-41,3h1l2,2l2,6v1h4l-5-6v-3h1l14,3v1l-4,8l5-5h1l3,1v1l-5,4l-14,3h-1l-1-1l-3-9z"/><path d="M252,43h2l2,3v1h-1l-7-1v-1zm24,0h1l4,2v1l-1,1h-2l-2-2zm-66,2h4l5,1v2l-4,4l-6,1h-2v-4l1-1h1l7,1l-6-2zm-19,2h1v1l-1,1h-1v-1zm8,0h3l1,1l2,4v1h-2l-1-1l-2-4v1h-1zm-192,1h2l1,1v1l-2,2h-1zm172,2h1l2,2v3h-4v-1q2,0-4-1v-1l1-1zm108,0h1v2l-2,1h-1v-1zm-130,2h1v1l-3,4h-2v-1z"/><path d="M162,52h1v1l-1,1h-3v-1zm113,0h4v3h-1v-2c-2,0-1,1-1,2h-1l-1-1zm-108,1h1l4,1v3h-1l-7-1v-1zm25,1h4l6,2v2l-2,1c-2,0-1,0,2,2l2,2v1l-3,1h-1v-2h1v-1l-5,2h-1v-4l3-1h-3v-1h1h-6l-1-1v-1l1-1zm5,7v1l2-2l-1,1zm-197-5h1v2h-1zm138,1h1l4,3v1l-19,29l-15,1h-1l-25-6v-1l6-6l29-13h4v1l-8,10l13-10h-1v-1h-2v-1z"/><path d="M204,57h3l15,4v1l-1,1h-5l-7-2l-5-3zm-11,1h1v2h-1zm-23,1h2v2h-1l-1-1zm3,0h1l1,1v1h-1l-1-1zm-173,1h1v1h-1zm230,0h1v1l-2,2h-5v-1zm-214,1h3l3,3l5,6v2h-1l-5-1l-4-9v1h-1zm-9,1h4l5,2v1h-4l-5-2zm152,0h2v1h-2zm16,0h3v1h-3zm17,0h2v2h-1l-1-1zm14,0h2v1h-2zm-205,1h1l2,1v1h-2v2h-1z"/><path d="M189,63h1l2,2v1h-2l-1-2zm21,0h1l1,1v3h-1l-1-3zm-8,2h1l1,1v1l-2,1h-1v-1zm65,0h2l2,1l1,1v1l-1,1h-3l-1-1v-1l2-1h-2zm-80,1h1v2h-2v-1zm3,1h1v1l-2,2h-1v-1zm-187,1h8l1,1v3l-1,1l-2,1h-5l3,2l2,2v1h-1l-6-4l-2-2v-1l2-3zm246,0h3v3h-3l-1-1v-1zm-218,1h1l8,3v1l-9,2h-3l-1-1v-1h1l3,1zm165,0h1l1,1v1l-1,1h-1v-1l1-1l-1,1h-1v-1z"/><path d="M209,71h1v3h-2v-1zm-163,1h2v1l-2,2h-3l-2-1v-1zm166,0h2v1h-2zm-192,2h3v1h-3zm32,0h1l2,2l3,4v1h-2l-4-6zm215,0h5v1c-4,0-4,1-6,4h-1v-2l1-2zm-254,1h1l2,3v1h-1l-2-2zm28,1h1v1l-1,2h-1v-2zm166,2h2v1l-1,1h-1zm60,0h2v1h-2zm-250,1h2l27,5l10,7v1l-4,2h2v1h-2l-18-2l-11-6l-4-4l-2-3zm31,11h-1l-5-2l2,2v1h4z"/><path d="M196,79h4v1l-1,1h-1l2,3v1h-3l-1-3v-1l2-1h-2zm74,0h1l2,1v1h-4v-1zm4,1h1l2,1v1h-3zm-229,1h9l2,1v3h-1l-8-2l-2-1zm178,0h2v1h-2zm38,0h1l3,1v1h-3l-1-1zm-197,2h4v1c-5,3,0,3,1,4v3l-7,1h-3v-1l4-7zm5,0h2l10,3v2l-2,1h-2l-5-2l-3-3zm56,0h1l1,1v1h-1l-1-1zm62,0h1v2h-1z"/><path d="M224,83h2l2,2v1h-2v-2h-2zm59,0h2v1l-1,1h-1zm-269,1h1v1l-1,2h-3v-1zm154,0h1l2,2v1h-1l-2-2zm23,0h3l1,1v1h-3l-1-1zm14,0h1v1q-1,0,11,3l3,1v9h-1l-14-11l-1-1v-1zm24,0h2l1,4v1h-4v-1c2,0,1-3,1-4zm-221,1h2v1h-2zm259,0h1l1,2v1h-1l-1-1zm-70,1h5l1,1v1l-2,2h-2l-2-2zm-111,1h2l3,1l2,1v1h-4l-3-2z"/><path d="M102,88h4l1,1v1h-5zm61,0h2v1h-2zm22,0h2v2h-2zm-101,1h1v1l-1,1h-1v-1zm43,0h1v2h-1zm53,0h1l3,1v1l-1,1l-3,2h-1v-2c2,0,1-2,1-3zm-85,1h1l2,1v1h-2l-1-1zm128,1h2v1h-2zm-59,1h1l1,1v3l-2,1h-1v-3c2,0,1-1,1-2zm32,0h3v1l-2,2h-2v-2zm-165,1h2l1,1v1h-1l-2-1zm67,1h4l3,1l2,1l1,1v4l-8,15l-8,1h-1v-1l1-1h6l-7-2v-2z"/><path d="M120,94h2v5h-2l-1-1v-3zm70,2h5v5l-2,1h-1v-2l1-1l-2,8l-5,4l-2,1h-2l-5-2l-3-3v-1l7-8zm-9,13h1v2l1-3l2-2l4-2l-4,2h-1v-1l2-2l-1,1h-3l1,2v1l-1,1h-1l-2-2l1,1v1l-1,1zm9-3v-1h-1v1zm4-8h-1v1h1zm-7,9v1l2-2l-1,1zm-1,1v1h1v-1zm-17-11h2v1h-1h5v2l-1,1h-5q-1-2,0,0v1l-1,1h3v1h-3l-1-1l-1-3v-1l1-1zm7,1h4v1l-3,4l-1,1h-1v-2z"/><path d="M161,101h1l1,1v1h-2zm59,3h1v3h-1zm-55,1h3v1l-1,3l-3,2l-2,1h-1v-5zm-3,3v1h1v-1zm-71-2h2v1l-4,2h-1v-1l1-1zm65,1h4v1l-1,1h-1l-2-1zm16,0h1l1,1v1h-2v2h-1v-2zm-20,1h1v1l-1,1h-1v-1zm16,1h1l1,1v1h-2zm5,1h2v2h-1l-1-1zm46,1h1v3h-1zm-67,2h1v7l-1,4h-2v-2zm-64,3h1l1,1v1l-1,1h-1l1,1v2q-1,1,13-4h4l1,6v2l-3,1h-1l-5-2l-1-1l4,4v4l-4,2h-1v-1l1-1q1,0-14-6v-2q5,0-6-3v-1l5-2z"/><path d="M144,118h1l1,1v2h-1c0-2-1-1-2-1v-1zm-20,2h1l1,1l1,2v7h-1l-1-2l-1-7zm44,0h4l1,1v1h-6v-1zm-99,2h1l8,2l15,4v1l-1,4l-19,4h-6v-13zm54,0h1v2h-1zm21,0h1v2h-1zm54,0h3v2h-5v-1zm-59,1h1l1,3v2v-4h2v4l-1,1h-1l-2-1v-1l1-1l-1,1h-1v-2z"/><path d="M214,123h2v1h-2zm-50,1h3v1l-1,1h-1l-1-1zm5,1h2v1l-1,1h-1zm27,0h5v1q-3,0,3,2v2h-4l-4-2zm-60,1h1v1l-2,3h-1v-2zm17,0h1l1,1v1l-1,1h-3v-1zm0,2h1v-1h-1zm-5,0h2v1h-2zm57,0h6l1,1l1,2v1h-1l-6-2l-1-1zm-72,3h1v2h-1zm13,0h1v1l-1,1h-1v-1zm-18,1h1l1,2v1l-1,3h-1zm-4,1h1v2h-1zm-24,2h2v1l-2,1h-1v-1zm23,2h1l1,1v2h-1l-1-2zm97,10h1v3h-1zm-97,1h1c0,3,2,1,4,1v3l-1,1h-1l-5-2v-2z"/><path d="M133,149h1v2h-1zm-16,3h2l3,3l1,2l1,5v-1h1v2l-4,2h-6l-1-5v-1l2-6zm64,0h2v1h-2zm13,0h1l1,1v2l-2,2l-6,4h-8v-3l1-1h4q2,1-2-2v-1l1-1zm-59,4h1l1,2v1h-1l-1-1zm41,2h3v3h-1l-1-2v3h-2l2,2v1h-3l-1-2v-1z"/><path d="M194,159h2l3,2l1,1v2l-1,3h-1v-3l1-1h-3l-1-1l-1-2zm-56,1h1l1,1v3h-1l-2-1v-2zm6,1h1l4,1l3,2l1,4v-1h1v7h-1l-2-1l-1-1l-1-2v-5l-1,3h-1v-3v4h-1l-4-3l-1-1v-3zm5,3v-1h-1v1zm22-3h1l15,1l1,1v1l-7,6l-18,8h-1v-2l7-7h-2v-1l-1,1h-2v-1zm3,8v-2h-1l-1-1v1l-1,2l1-1h1z"/><path d="M168,164h1v2h-1zm21,0h2v1q-1,0,5,1l2,2l3,7v2h-1l-9-6l-1-2l-1-3zm6,0h2v1h-2zm6,0h1v6h-2v-5zm11,0h1l2,1v1l-1,1l-3,1h-1v-1l1-1c2,0,1-1,1-2zm-72,3h3v1h-3zm69,2h3v3h-2l-2-1l2,2v1h-3l-1-3v-1zm-48,1h1v2h-1zm46,5h1v4h-1l-1-2v-1zm-27,3h6l3,1l1,2v4v-1h1v1l-1,1h-6l-1-1v-1h2l3,1l-2-2v-3l-4,4l-2,1h-1l-1-1v-1l1-3z"/><path d="M199,182h1v2h-1zm26,2h2v1h-2zm3,1h2v1h-2zm-95,2h1v1l-1,1h-1v-1zm45,0h1v1l-1,1h2v1h-4v-1zm10,0h1l2,2v1l-5,1h-1l-1-2v-1h5h-1zm5,1h1l1,1v1l-3,4h-1v-2l1-2c2,0,1-1,1-2zm-56,10h1l1,1v2l-1,1h-1l-1-2v-1zm5,7h1l5,8v2h-1l-2-2l-4-5v-2zm7,10h2l1,1v1h-1l-2-1zm-6,2h1l1,1v1h-1l-1-1zm12,1h1l2,1l1,2v1h-1l-2-1l-1-1zm-10,2h1l1,1v1h-2zm15,1h2v1l-1,1h-1zm3,1h3v1h-1h3l2,1v2h-1l-4-1l-3-1v-1z"/><path d="M171,223h1l8,1v2h-7l-2-1zm10,1h7v1l-1,1h-1l-1-1v3l-1,1h-1l-1-1v-2l1-1h-2zm6,8h1v1l-1,1h-2v-1zm-2,3h1v3h-2v-1zm23,52h1v1h-1z"/></g><g style="fill:rgb(48,52,65);fill-rule:evenodd;stroke:rgb(48,52,65);stroke-width:0.1;" id="l12"><path d="M271,28h1v3h-1zm4,2h2l4,1v2l-1,1h-4l-2-2v-1zm-73,10h3v1h-3zm10,0h2v1l-2,1h-5v-1zm50,0h1v3h-2v-2zm2,3h1v2h-1zm3,1h1l2,2v3h-10l-1-1v-1h8zm-63,5h2v1h-2zm-44,8h4v8l1-2l1-1h8l1,1v1l-6,3h-6v-1q1,0-3-1v-7v1h-1v-1z"/><path d="M171,57h3v1h-3zm6,0h4v1h-4zm-31,1h6l1,1v2h-1l-7-1v-1zm46,0h1v1l-1,1h-1v-1zm-12,1h1l1,1v1l-1,6l-4,6h-2l-1-1v-1l1-2l4-4c-2,0-2,1-3,2h-2v-1zm17,0h1l1,1v1h-1l-1-1zm-6,2h1v2h-1zm4,0h1l1,2v2h-1l-1-2zm-54,1h1v3h-1zm43,0h1l1,1v1h-1l-1-1zm79,1h3v1l-6,3h-1v-2l1-1zm-106,1h1v2l-1,1h2v1h-2l-1-1v-1zm28,1h1v2h-1z"/><path d="M192,65h1v1l-1,3l2-2l5-1h1v2l-2,2h-2h1v1h-3l-3-1v-4zm3,4h-1v1h1zm-54-3h1v1l-1,2l-1,1h-1v-2zm12,0h1v1l-2,2h-1l-1-1v-1zm54,0h2l1,1v1c-3,0-1,1-1,3h-1c-2-2-2-1-3,1l-1,1h-2v-3l2-2h2h-1v-1zm-4,5v1h1v-1zm-61-3h1l2,1v1l-1,2h-1l-1-1l1,1l1,4v1l-4,1h-1v-1l1-5l-2,1h-1v-1l1-1zm4,0h1l2,1v2l-1,2l-1,1l-2,1h-1v-1zm69,0h1l1,1v1h-1l-1-1z"/><path d="M258,68h1l1,3v3l-3,2h-5l-2-4v-1h7l1,1zm-140,2h1l1,1v1h-2zm70,0h1l4,1v1l-2,5l1-2l2-2h7v1l-1,1l-6,1h1v1h-2h1v1l-5,2h1v1h-1l-2-2v-1h1v1zm12,0h1v2h-3v-1zm-183,1h2v1h-2zm153,0h1l2,1l1,2l1,4v1l-1,1l-4,1h-2v-4h1c2,2,2,0,3-1h1l-2-1l-2-2v-1z"/><path d="M212,71h1v4l-1,1h2v1h-4v-3l1-2zm3,0h2v1l-1,1h-1l1,1v1h-1l-1-1v-2zm49,0h1v3h-1zm-108,1h3v1l-1,2h-1l-2-1v-1zm27,0h5v1c-2,0-1,1-1,2l-1,1h-1l-1-1l-1-2zm-68,1h1v1l-1,1h-1v-1zm46,0h2v1h-2zm46,0h1v2l-1,2h-1v-3zm-182,1h2l1,1v1h-1l-2-1zm108,0h2v1l-1,1h-1zm3,0h1l1,1l2,5v2l-2,3l-1,1h-6v-1l2-2h2l1,1l-1-1v-1zm-2,10v1h1v-1zm16-10h1v1l-1,1h-1v-1zm18,0h1l1,1v1h-1l-1-1z"/><path d="M38,75h5v1h-5zm114,0h2v1l-2,1h-1v-1zm10,0h2v1l-1,1h-1zm-118,1h3l7,2l2,2v1h-4h1v1h-3l-4-1l-2-4zm115,0h1l1,1v1h-1v-1l-1,2l-6,8l2-4l1-1h4v1l-8,10l-4,1h-1v-4h1q0,1,3-7l3-4l-1,1h-2v-1l2-2zm6,0h1v1l-1,1h-1v-1z"/><path d="M180,76h1v2h-1zm17,0h1v2l1-2h1l2,1v3h-2l-1-1l2,2v1h-1l-3-3zm6,0h1v2h-1zm31,0h3l1,1v1h-3l-1-1zm-103,1h4v2l-9,10h-1l-2-2v-1l4-5zm14,0h1v1l-1,1h-1v-1zm117,0h3v1h-3zm-53,1h1v1l-1,1h-1v-1zm-170,1h1l1,1v2l-1,3h-1l-4-1v-1zm53,0h1l6,3v3h-4l-3-5zm50,0h1l1,1v1h-1v-1l-1,1h-1v-1z"/><path d="M183,79h2l1,2v1h-1l-2-1zm101,0h1l1,1v1h-2zm-120,1h1v1l-1,2h-3v-1l1-1zm11,0h1v4h-1l-2-2v-1zm50,0h2v2h-1l-1-1zm-76,1h2v1h-2zm17,0h1l2,1v2l-1,2l2-1h1v1l-1,2h-1l-2-2v-4l-1,1h-1v-1zm37,0h1l1,1v1h-1v-1l-1,1h-1v-1zm-114,1h1v1l-2,3l-4,2h-1l2,4v1h-2l-4-4v-1l3-3l2-1zm92,0h1v2h-1zm11,0h1v2c-2,0-1,1-1,2h-1l-1-1v-1zm2,0h1l2,3v3l-1,1h-2zm-51,1h2v2h-1l-1-1z"/><path d="M149,83h1v2h-2v-1zm34,0h1l1,1v1h-1l-1-1zm-43,1h2l1,1v4h-2l-3-1v-1l3-1h1l-2-1zm20,0h3l3,1l1,2v1h-1l-1-1l1,1v1h-1l-1-1v-1l1-1h-5zm41,0h1l1,1v2h-1l-1-2zm-27,1h6l1,1v2h-1l-3-1l3,1v1l-1,1h-4c0-3-1-2-4-2v-1zm13,0h1v4h-1l-2-2v-1zm11,0h2v1l-1,1h-1zm28,1h3v1l-1,1h-1l-1-1zm-226,1h3l4,2l1,2v3h-5l-2-1l-1-1zm131,0h1v1l-1,2h-3v-1l1-1z"/><path d="M147,87h2v1l-1,1h-1zm-71,1h1v1l-1,1h-1v-1zm86,0h1v2h-3v-1zm70,0h3l5,2l1,2v1l-1,1l-7,1h-1zm-163,1h2l2,2v1l-1,1l-2,1l-13,1h-3v-3l8-1h-1v-1zm0,3v1h1v-1zm69-3h1l1,1v2l-1,1h-1l-1-1v-2zm90,0h2v1h-2zm-203,1h1l5,3v1l-2,1l-6,2h-1l-9-1v-3l1-1h13h-1l-1-1z"/><path d="M169,91h1l2,2v1l-1,1h-1c0-2-1-1-2-1v-1zm10,0h5v1l-2,2h-1v-2h-2zm49,0h3v1h-3zm-196,1h2v1h-2zm97,0h1v1l-1,1h-1v-1zm34,0h1l1,1v1h-3v-1zm-27,1h1l1,2v4h-3v-3zm39,0h2v1h-2zm-94,1h3v1h-3zm41,0h2v1l-1,1h-1zm5,1h3l1,1v1l-1,1h-2l-1-2zm36,0h1l1,1v2l-1,1h-1zm-163,1h1v1h-1zm6,0h5v1h-5zm154,0h1v1l-1,1h-1v-1zm12,1h2v2h-4v-1zm-45,2h1l1,1l1,5v-2h1l3,6v-3h1v6h-3v-2h1v-1l-2,2h-2l-2-7zm3,8h1v-1h-1zm1,1h1v-1h-1z"/><path d="M158,99h1l1,1v1l1-1h1l1,1v1h-1l-1-1v2h-2l-1-1zm-37,1h1v2h-1zm22,0h2l1,9v2h-1l-2-3l-1-3v-4zm-9,2h1l1,2v1h-1l-1-1zm32,0h1l1,2v1l1-1h4v3h-6l-1-1zm-28,1h1v2h-1zm-116,3h3v1l-1,1h-3v-1zm96,1h1l1,1v2h-1l-1-2zm7,0h1l5,5v2l-1,2l-1,1h-9v-2l4-1h1l-1-1v-4zm-38,2h1l2,1v2l-3,4l-1,1h-2l-2-2v-1z"/><path d="M138,111h1v2h-1zm-33,1h1l1,1v1h-1l-1-1zm11,0h7v1l-1,1h-2l-4-1zm-7,1h6v1h-6zm25,0h1v1l-1,1h-1v-1zm6,1h1l2,1v2l-1,1h2v1l-1,1h-1c0-2-1-1-2-1v-1l1-1q1,0-2-1v-1zm-4,3h1v1h-1l1,1v1h-1l-1-1v-1zm2,2h1l1,1v3l1-1h1v2h-2l-2-1zm-74,5h1v2h-7v-1zm44,2h2v2h-1l-1-1zm7,2h1l3,1l5,4l1,2v3h-3l-12-7v-1h3l5,2v-1h-1l-2-2z"/><path d="M54,129h1l3,1v1l-2,1h-1l-1-2zm9,0h1l1,1v1h-1l-1-1zm159,0h4v2l-2,1h-1l-1-1zm-127,3h1v1l-2,3h-2v-2l1-1zm15,0h1v4h-1zm23,1h1v2h-1zm116,0h5v4h-4l-2-1v-2zm-160,1h2v1h-2zm156,1h2v2h-3v-1zm-128,1h2l1,1v2l-1,3h-2l-2-1v-4zm-9,1h2v1h-2zm21,0h2v1h-2l2,1v1h-2l-1-1v-1zm-67,2h9v1l-1,2l-4,2h1v1l-5,4h-1v-4zm26,0h2v1h-2z"/><path d="M132,139h1l1,1v4h-2zm-22,1h1l1,1v1h-1l-1-1zm-31,1h2v1h-2zm6,0h1v1l-1,1h-2v-1zm-17,2h2v1h-2zm3,0h2v1h-2zm47,1h2v3l-1,1h-1l-1-1v-2zm-5,1h1v2l-5,8l-3,3h-2l-1-1v-4l1-3h1l1,1v3l3-5zm15,0h2l2,1l12,20l1,3v1h-1l-4-3v1h2v2l-1,1h1v1h-1l-3-3l-1-5v2h-1l-1-5v1h-1l-4-11v-4v1l-1,3h-1z"/><path d="M122,146h2v1h-2zm145,2h1v1l-1,1l-2,1l-5,1h-3v-1l3-1zm2,1h1l1,1v3l-5,3h-2v-1l2-2l3-1h1l-1-2zm-144,1h1l3,3v3h-1v-3h-1v-1l-1,1l-2,1q-1,0,3,1v1l-1,3h-2l-2-3v-5h4h-1zm126,0h5v1l-4,1h-2l2,2v1h-9v-3l1-1zm-154,3h1l1,3v1h-1l-1-1zm162,1h1l3,1v1l-5,1h-3v-1zm-21,2h2l1,1v1l-3,1h-1v-1z"/><path d="M127,157h2l2,5v1h-1q0-1-2,8l-1,1h-1l-1-1v-11h1q0,1,1-3zm91,1h1v1l-1,2l-1,1h-1v-1l1-2zm-38,1h1v1l-1,2h-1v-2zm-83,1h1l8,5l2,2q0,4,4-5h3l1,9v1l-1,2h-2l-5-1l-13-10v-1zm125,0h2v1h-2zm8,0h3v2l-5,2h-1l-2-1v-1l1-1z"/><path d="M181,161h2l1,1v1h-1l-2-1zm-6,1h1l1,1v1h-1l-1-1zm-10,2h1v1l-1,2h-1v-2zm6,0h1c0,2,1,1,2,1v1l-1,1h-3v-1zm28,0h1v5h-2l-1-1v-1h2zm16,0h1v2h-1zm-83,1h1v2h-1zm14,0h1v3h-1zm48,0h1v1l-1,1h-1v-1zm17,0h2v1h-2zm-45,1h1l1,1v1l-2,2h-3v-2h4l-1-1zm9,2h2v1h-2zm26,0h4v3h-1v-2h-3zm-55,1h2l13,1l10,22v-1l1-1h1l1,6v-2h1l2,17v1h-1l-5-4l-2-4v1h-1l-12-24v4h-1l-4-8l-2-5v1h-1l-1-3v1l-1,2h-1v-2zm16,17h1v-2h-1zm-4-12v1l-1,1l2-2z"/><path d="M201,170h1l2,2v1h-1l-2-2zm5,1h4l1,1v1l-2,5h-1l-1-1l2,2v1l-1,1h-1l-1-2l-1-3v1h-1v-1l1-3zm2,5v-1h-1v1zm0-2v-1h-1v1zm4-3h2v1h-2zm-89,1h2l2,1l1,1l2,3v1h-1v-1v4h-1l-2-2v-1c1-4-1-4-3-5v1h-1v-1zm-4,2h2l1,1v2l-2,1h-1l-2-1v-1zm29,1h1v2h-1zm-25,4h2l2,2v1l-1,1h-1v-1l1-1h-2l-1-1zm26,1h1v2h-1zm33,0h4l2,3v2h-3l-3-1v-1l1-1l-1,1h-1v-2zm-60,1h1l1,2v1h-2zm79,0h1v22l-4,7h-1l-3-4v-1l1-1h1l1,2c0,2,1,2,1-6v1h-2c0-5-1-5-1-2l-3,2h-1v-1l2-4l6-3l-6,3h-5v-1l1-3l2-2h1v2l8-10z"/><path d="M131,182h1l1,4v-1h1v1l-1,1h-1l-1-1zm-12,1h1v1h-1l1,1v1h-2v-2zm101,0h1l1,4v1l-1,2l-2,1h-1v-2l1-5zm-35,3h2v3h-1l-1-1zm-52,2h2v3h-1l-1-1zm22,1h1v3h-1zm31,1h1l1,1v3l-2,4h-1q0-3-2,4l-2,1l-5,1h-1l-1-3v-1h1l1,1v1v-6l3-3l4-2zm-7,9h1l1,3v-4h-1l-1-1zm3-2v-1h-2l2,2zm0-2v-1h-2v1zm24-3h1v1l-1,1h-1v-1zm-44,1h1c0,2,1,1,2,1l1,3v1l-1,1h-3v-1h3l-3-3z"/><path d="M203,193h1v2h-1zm14,0h2v4h-2zm42,3h1l2,1v1h-2l-1-1zm-92,1h1v2h-1zm-9,1h3v1h-3zm59,0h1l1,1v1l-1,4h-1zm48,0h3l1,1v1h-1l-3-1zm-109,1h1l3,1v1h-4zm-17,1h1l1,1v1h-2zm22,0h1l3,2l2,3l1,2v1h-2l-3-3l1,1v1l-1,2h-3v-6zm6,0h1v1l-1,1h-1v-1zm105,1h5v1l-4,1h-1zm-68,3h1v2h-1zm8,0h2v1l-1,5l-1,1h-1l-1-2v-1zm67,0h1v2h-1z"/><path d="M157,205h1l1,1v1h-1l-1-1zm44,3h1v3l-1,1h-1v-3zm4,0h1v2h-1zm-10,1h1v1l-1,1h2v1h-2l-2-1v-1zm12,3h1v2l-1,2l-2,2h-1v-3zm4,1h1v1l-2,11h-1v-7l1-4zm-69,3h1l2,3v1h-1l-2-2zm31,0h2v1h-2zm29,1h1v5l-4,6l-1,1h-1v-2l3-3l-4,5l-6,6h-2v-1l1-3l5-9l4-4z"/><path d="M147,223h1l7,9l2,4v1h-1l-4-2l-2-2l-2-4l-1-4zm41,1h2v3h-1l-1-1zm20,2h1v4h-1zm-21,10h2v1h-2zm-3,2h1v4l-1,2l-4,3h-2v-1l4-6zm-32,5h1l4,4v1h-1l-4-4zm103,3h1v6h-1zm-38,1h1l1,16v20h-1l-1-4l-1-13v-9z"/><path d="M243,247h1l1,8v4l-1,5h-1zm-65,1h1v1l-4,4l-6,1h-2l-3-1l-1-1v-2zm33,1h1v4l-1,5h-2v-6zm-54,2h1l7,5v1h-5l-1-1l-2-4zm23,1h1v1h-1l1,1v1h-1l-1-1v-1zm83,0h1v13v-2l1-2h1v2l-6,23l-1,2h-2l-1-6v-12h1q0,4,6-18z"/><path d="M60,253h1l1,1v1h-1l-1-1zm116,2h3v1l-3,3l-3,1c-3,0-2,0,5,4l1,1v2l-1,1h-7l-1-1v-1h1l1,1l-4-4l1,2v1h-1l-5-5l-2-2v-1zm55,1h1l1,7v3h-1l-1-1zm-8,1h1l1,5l3,16v9v-2h1v3h-3l-3-20z"/><path d="M254,257h2v8h-1q0-3-1,23h-2l-1-11v-10l1-7l1-2zm-44,2h1v8l-1,17l-1,3h-1v-19zm34,6h2l1,12v11h-2l-1-2z"/><path d="M68,268h1l1,1v4h-2zm164,1h2v1l-1,1h-1zm38,1h1v1l-1,2h-2v-1zm-197,1h1l1,4v2h-2zm118,1h1v2h-1zm42,2h2v6h-1l-1-4zm-165,3h1v9l-1,2h-13v-2h8l1,1v-5l1-3l1-1zm2,0h1l1,10v1h-2zm192,0h1c0,2,1,1,2,1v2l-1,1h-1l-1-1zm7,0h2v1l-3,9h-2v-7z"/><path d="M74,279h1v4h-1zm206,1h1v1l-4,5l-2,2h-1v-2l3-4zm-9,3h1v2l-2,1h-1v-1zm-197,1h2v4h-2zm-24,1h1l2,1l1,1v1h-3l-1-2z"/></g><g style="fill:rgb(57,70,52);fill-rule:evenodd;stroke:rgb(57,70,52);stroke-width:0.1;" id="l13"><path d="M36,0h1v1h-1zm3,0h1v1l-1,1h-1v-1zm4,0h4v2h-1l-3-1zm78,0h1v2h-1zm11,0h1v1h-1zm3,0h1v1h-1zm40,0h10v1l-1,3h-2l-6-2l-1-1zm57,0h2v1l-1,1h-1zm40,0h2v3h-2l-1-1v-1zm14,0h2v7l-1,1l-17,7h-1l-2-1v-1l1-2l6-7zm-239,3h1l1,1v1h-1l-1-1zm3,2h1l1,1v2h-1l-1-2zm201,0h1v3h-1zm-209,1h1l2,2v2l-1,1h-1v-1c1-2,0-2-1-3z"/><path d="M118,6h2v1h-2zm-95,1h1v3h-1zm15,0h1l1,4v1h-1l-1-1zm40,1h1v2h-1zm-29,1h2l4,2l1,1v2l-1,2l-1,1h-1c0-5-3-2-4-2zm128,1h3l3,1l1,1v1l-2,2l-5,2h-2l-1-1v-3zm-132,1h1l1,1v2h-1l-1-2zm65,0h1l1,9v1l-1,2h-1l-1-4v-2zm169,0h2v2l-1,1h-2l-1-1v-1zm-250,3h2v1h-2zm114,1h1v1l-1,1h-1v-1zm-94,3h1l1,1v1h-1l-1-1zm35,1h2v2h-2zm-29,3h1v3h-1z"/><path d="M277,22h2l1,1v1l-1,1h-1l-1-1zm-171,1h1v2h-1zm-73,1h1l1,3v1h-1l-1-1zm43,0h1l2,1v1h-3zm36,0h3v1l-1,1h-1l-1-1zm170,0h1l1,1v1h-1l-1-1zm-170,4h3l1,1v1h-1l-3-1zm167,0h1l1,1v1h-1l-1-1zm-181,1h2l1,1v1h-3zm9,0h1v1l-1,3l-1,1h-2l-1-1v-1l1-2zm2,0h2l1,1v1l-2,1h-1v-1h1l-1-1zm8,1h1l1,1v7l-4,7h-1l-5-2v-1zm86,0h1l7,2l3,2l4,4v3h-4v-1q2,0-25-4l1,2v1l-1,1h2v2h5l12,6v-4h-5l-1-1v-2h11l3,7v1l-9,4h-2l-15-2v-2l1-1q1,0-16-6l-2-1l-1-1v-1l1-1h2l4,3c0-2-2-2-4-3v-1l8-3l8-2zm-6,18v-1l1-1h-3v2z"/><path d="M32,31h1v1l-2,2h-1v-1zm55,1h1v1l-1,1h-1v-1zm176,2h1v2l-1,1h-1l-2-1v-1zm19,0h4l2,2v11l-2,1h-9l-13-1v-2l1-5l2-2zm-11,5l-3,1h-1l1,1v1l3-1h1l-1-1zm5,4l2,3v1l2-1h1l-3-1zm-22-8h5v1h-5zm-2,1h1v7l-1,1l-2,1l-14,6h-4v-1l2-1h1h-4l-3-1l-1-6v-4l1-1h2l5,10v-1l1-2l2-2l2-1zm-24,5h1v-2h-1z"/><path d="M1,37h2v1h-2zm253,7h1l33,5v21h-6l-8-5l-1-1v-2l2-2l6-4h-21l-11-4v-1zm21,10h1l3,1v-3h-4z"/><path d="M167,45h5l1,1v3l-2,2l-5,4h-1v-1l5-8c-3,0-3,1-6,7l-1,1h-1v-1l1-5l1-1zm-167,3h7l1,1v2l-1,1h-7zm175,4h5v2c-2,0-1,1-1,2h-1l-3-2zm60,0h4v1l-7,7h-1v-2l3-5zm-78,1h2v1l-3,2h-1v-1zm15,0h2v1l-1,1h-1zm-12,1h1l3,1v1c-4,0-4,2-5,3h-1v-2l1-2zm15,2h1v2h-2v-1zm77,0h3v3l-2,1h-1l-1-1v-2z"/><path d="M202,57h2v1h-2zm-202,4h1v6l1-2l3-2h3v1l-6,8h-2zm136,0h1v2l-1,2h-3v-1zm73,0h4v1l-2,1h-1l-1-1zm-192,1h2l1,1v1l-4,2h-1v-1l1-2zm123,0h1l1,3v1l-2,1h-1v-1zm74,0h2v1h-2zm-205,1h2l1,1v1h-1l-2-1zm208,0h2v1h-2zm29,0h2v3h-2l-1-1v-1zm18,1h5l2,1l2,2v2l-1,1h-4c-3-1-3,1-4,5h-2l-2-1v-2l4-4l8-1h-1l-2-1v-1h-5z"/><path d="M122,65h4v1l-4,1h-1l1,1v3l-1,1h-1l-4-1v-1l3-4zm-114,2h3l2,1l6,4l1,1v1h-2q-2-1,4,11v1h-1l-6-3l-1-2l2,3v1l-1,2h-1l-10-12v-1l8-5h-1v-1h-3zm2,9h-1l-1-1l3,4l-1-1zm4,3h-2l2,2zm7-12h1v1l-1,3h-1v-3zm238,0h1v4h-1zm-7,1h1v3h-1zm-121,2h1v1l-2,2h-4v-1z"/><path d="M139,70h2v1h-2zm-117,1h4l1,1v1h-1l-4-1zm26,1h1l2,1l1,1v1h-2l-2-2zm207,0h1l1,2v1h-4v-2zm-223,1h8l3,7v1l-2,4h-1l-2-6c0-2-2-2-13-3v-1l2-1zm150,0h2v1l-1,1h-1zm91,2h2v1h-2zm-230,1h1l2,2v3h-2v-1c1-2,0-2-1-3zm217,2h2v5h-2zm8,1h2v1h-2zm-216,1h2v1h-2zm45,1h2l2,2v1h-1l-3-2zm188,0h1v2h-1z"/><path d="M34,82h2v1l-1,1h-1zm243,0h2l2,1v1l-5,4h-1v-1zm-209,1h1l2,2v1h-1l-2-2zm198,0h1v4h-1zm-266,1h2l6,1v1h-6l-2-1zm112,1h1v1l-1,1h-1v-1zm-103,1h2v1h-2zm76,0h4l1,1v2h-1c-3-2-3-1-5,1h-1v-2zm187,1h2v1h-2zm-152,1h1l3,3v1h-1l-3-3zm-89,1h4v2h-1l-3-1zm62,0h3l2,1l1,1l1,3v1h-1l-1-1v-3h-4l-1-1zm14,0h1v2h-3v-1zm2,1h3v1h-3zm123,0h1v2l-1,1h-1v-1z"/><path d="M23,91h3l1,1v2h-1l-2-1l-1-1zm32,1h4v1h-4zm-36,2h1l3,3v1h-1l-2-1l-1-2zm100,0h1v1c-1,3,0,3,2,4v1l-1,2h-1l-2-4v-3zm-107,1h1v2h-2v-1zm13,0h3v1h-3zm82,1h1l1,1v4h-1l-1-4zm-106,1h2v1h-2zm105,4h1v1l-2,2h-3v-1zm-79,2h1l1,1v1h-2zm3,0h2v1h-2zm83,0h2v1h-2zm-90,1h1l1,1v1h-1l-1-1zm76,0h1l16,17l2,10v1h-10v-1q1,0-25-7c0,2,4,1,6,1l6,1l2,2l1,2v2l-3,6h-1l-8-4v-1q6,0-5-3l-2-1l-9-6v-1zm-19,23h1v1h1v-1zm3,2v-1h-1v1zm13-8h3v-2h-3l-2-1l2,2zm15,5v-1h-3v2h1l1,1v-2zm-31,0h1v-2h-1zm18-8h3v-1h-3z"/><path d="M21,105h1v2l-2,2h-1v-3h1l1,1zm92,0h2v1h-2zm-20,1h2v1l-1,3l-3,4l-3,3l-2,1h-4v-3l8-5l-4,2h-1v-1l1-1l3-2zm24,2h2l1,2v2l-4,1l-7,1h-2l-2-2v-1l2-2zm125,0h3v2h-3zm-160,4h1v2h-1zm40,1h2v1h-2v2h-1l-1-1v-1zm0,9h1v2h-1zm-57,1h1l6,4v3l-5,7l1-1l5-4h7l5,1v1l-4,3l-12,4l-6,1h-1l-1-1l-3-10v-1z"/><path d="M62,124h2v1h-2zm-5,1h1v1l-3,3h-1l1,1v2h-1l-1-1l-1-2v-1zm-7,4h1l1,1v1l-1,2l-1,1h-1v-2l1-1h1l-1-1zm50,7h1v3l-1,1h-1v-3zm8,0h3v1h-3zm9,1h1l1,1v1l-1,1h-1zm-9,1h1v2h-1zm-18,1h4v1h-4zm-3,1h1v1l-2,2h-1v-1zm-9,1h1v2h-3v-1zm3,1h2v1h-2zm-11,1h5v1l-2,1h-6v-1zm-5,2h1v1l-1,1h-1v-1zm44,2h1l1,1v1h-1l-1-1zm10,0h4v2l-1,6h-2c-3-3-3-2-4,3h-1v-5z"/><path d="M82,148h4v1l-3,3h-3v-3zm26,1h1v3l-3,4h-1v-5v1h-1v-1l1-1zm119,0h1v2h-2v-1zm40,0h4v1l-1,2l-1,1h-2v-1l1-1l-2,3l-2,2h-10v-1l5-2h-1v-1l2-1h3c1,4,1,3,2-1zm-17,3h1l2,2v1h-1l-2-2zm-128,4h1l1,1l2,4v1h-3l-1-5zm116,2h2l1,1v3l-2,1h-4v-1l2-3zm-141,1h1v1l-1,1h-1v-1zm127,1h1l1,1v1h-1l-1-1z"/><path d="M115,161h1l1,1v1l-2,5l-1,1h-1v-6zm7,11h1l1,1v2h-3v-2zm0,2h1v-1h-1zm112,5h3l2,2l6,9v1h-2l-3-1l-4-2l-1-7v1h-1zm6,4h2v1h-2zm-8,3h3v1h-3zm14,4h4l4,2l4,3l1,1v1h-1l-4-1l-8-5zm24,11h2v1h-2zm7,0h1v2h2v1l-1,1h-1l-1-2z"/></g><g style="fill:rgb(9,10,14);fill-rule:evenodd;stroke:rgb(9,10,14);stroke-width:0.1;" id="l14"><path d="M2,6h3l1,2l1,3c0,8,5,6,8,6l2,1l1,1v1l-7,3h-6l-5-3v-12zm285,3h1v1h-1zm-3,3h1l3,3v8h-3l-1-2v-1l3-3l-3,1h-5v-1zm-264,3h2v3h-3v-2zm-1,4h2v1h-2zm268,9h1v1h-1zm-138,33h2v1l-1,3l1-2l3-1h2l1,2v1l-2,1l-6,2h-3l-2-1v-3z"/><path d="M171,61h2v1h-2zm9,1h1v2h-1zm2,3h2l1,1v1l-2,1h-2v-1c2,0,1-1,1-2zm52,2h5l2,1v1l-1,1h-2l-4-2zm-22,1h2l1,2v1h-4l-2-1v-1zm-32,1h2v2h-1l-1-1zm10,0h1v2h-1zm-53,1h1v1l-1,1h-1v-1zm84,0h1l1,1v2h-2zm-4,1h3l4,4l2,12v1l-2,2h-2l-3-1l-10-4l-3-2v-1l2-2l15-5l-2,1h-6v-1l1-3zm4,9v1h1v-1zm-2,3h-1l1,1v2h2l-2-2z"/><path d="M178,73h1v5h-1l-2-1v-1l1-2zm3,0h1v4h-1zm-42,1h1v1l-1,1h-1v-1zm51,0h2v1l-1,1h-1zm-21,2h2v1h-2zm13,2h1l1,3v1l-1,1h-1zm69,0h2v1h-2zm-104,1h1l1,1v1l-1,1h-1v-1h1l-1-1zm29,0h2v1h-2zm59,2h1l1,1v2h-1l-3-1v-1zm-90,2h1v2h-1zm14,1h1v1l-1,12l-1,10l-9,4h-1l-2-1l-1-2v-1l8-17l1-2l2-2zm-7,22v1h1v-1zm5-9h1v-1h-1zm-4,3h1v-1h-1zm3-5h1v-1h-1zm-1-3h1v-2h-1z"/><path d="M163,84h1v1l-1,2l-1,1h-2v-1zm13,0h5v1l-3,1h-2zm-41,2h1v1l-2,9l-3,5h-1v-3l3-8l-1,1h-1v-1l1-2l1-1zm107,0h11l18,4l15,4l2,1v4h-8l-11-2l-18-5l-3-1l-4-2l-2-2zm-98,2h1l1,1l1,4v1l-1,4l-4,4h-1l-3-4v-2h1l1,2q0,1,4-10zm1,9v-1h-1v1z"/><path d="M190,88h1l1,1v3l-1,2l-1,1h-1v-5l-1,1h-1v-1l1-1zm-50,1h1v5h-1l-1-1v-1zm54,0h2v3h-3v-1zm-23,2h2v1h-2zm50,0h1l1,1v1l2-1h1v1l-1,1h-2l-2-1zm-35,1h2v2l-2,2h-1v-3zm-7,2h2v1h-2zm47,0h1v1q-1,0,5,1v4l-11,27h-1l-1-5v-6l2-21h2l7,5c0-2-1-1-2-1l-3-3v-1z"/><path d="M175,95h2v1h-2zm-51,2h1l2,1v7h-2l-1-1l-1-3v-1h1v1zm12,4h1v2h-1zm4,2h1l2,2v5h-1l-2-2zm4,1h1v2h-1zm-22,2h1v3h-1zm2,1h1v2h-1zm18,4h2v1l-2,1h-1v-1zm4,1h2v2l-1,2h-1l-1-1v-2zm-15,2h1l1,1v1l-3,3h4l1,3v1h-1v-1v4l-2,2h-2l-4-8v-1zm-2,6h1v-1h-1zm2,1h1v-1h-1zm5,1h2v1h-2zm64,4h1l1,1v1h-2zm69,15h1v2l-1,1h-2v-1zm-139,14h1v2h-1z"/><path d="M131,159h1v2h-1zm2,3h1v1l-2,2h-1v-1zm88,1h1v2h-1zm-2,6h1v2h-1zm-90,2h2v1l-1,1h-1zm90,1h3v1h-3zm-87,3h3l1,2v1l-1,2h-3zm83,0h1v2h-1zm-77,3h1v2h-1zm76,0h3v2l-3,1h-1v-2zm-12,1h3v1h-3zm16,0h1v2h-1zm-71,1h2l1,3v1l-1,2h-1l-1-4zm-13,1h1v3h-1zm6,0h3v1h-3zm63,0h1l1,2v1h-1l-1-1zm12,0h1l2,1v6h-1l-1-1l-2-4v-1zm-79,1h2v1h-1h7v5l-3,5h-1l-3-2l-2-4v-1h2c2,4,2,2,5-1l-1,2h-3v-1q2,0-2-1zm5,2h-1v1h1z"/><path d="M212,184h2l1,1v3h-1l-1-3l3,6v1l-6,3h-1v1l2-2h3l1,6v1l-3,5l-2,2h-1l-2-1l-1-7v-1l1-7l1-2h1v3v-8zm-4,20h1v-1h-1zm1,1h1v-1h-1zm-52-19h1l1,1v1h-2zm-4,1h1v1l-1,1h2v1l-1,2h-1l-1-2v-2zm50,0h1v2l1-2h1l2,1v1l-2,2h-1l-4-1v-1z"/><path d="M148,189h1l1,2v1h-3v-2zm8,0h1v4h-2v-1zm2,1h1v2h-1zm-13,2h1l20,18l-1-1v-1h1l3,3l6,7q0,3,2-8l1-1l1-1h1v3h2q0,2,2-5l1-1h-1v-1h4l3,1l4,7l2,5v1l-5,10l-1,1h-1v-3l1-1q1,0-16-1l-11-2l-7-3l-4-2l-5-3l-1-1l-3-7l-1-3v-10zm9,22h1l1,1l-2-2zm2,2h1v-1h-1zm10,3h2v-1l1-1h-2v1zm12,2v-1l-2,2l1-1zm17-4v1h1v-1zm-7-7h-2l2,2zm-6,4h-1v2h1zm-4-3v2h1l1,1l-1-1zm-28-1v-1h-1v1zm5-4h-1v1h1zm10,8v1h1l1,1v-1l2-2l-1,1zm10,8l-2-2zm16-11v1h1v-1zm2,1v1l-2,2l2-1h1v-2zm0,4h-1v2h1zm-1,3h-1l-1-1l2,2z"/><path d="M203,192h1l1,1v2h-1l-1-2zm-44,1h2v4l-1,1h-1v-1q1-1-2,1h-1l-1-3v-1zm0,2h1v-1h-1zm-21-1h4v3h-1l-3-1zm14,1h2l1,1v1h-1l-2-1zm48,0h1v2h-1zm-37,1h1v2h-1zm40,0h2l1,1v1h-2l-1-1zm12,0h1v2h-1zm-63,1h1l1,1l2,4v1h-1l-2-2l-1-3zm-11,1h1l1,1v1h-1l-1-1zm24,1h1v2h-1zm38,0h1v2h-1zm-14,1h2v3h-1l-1-2zm-26,1h1v2h-1zm11,0h1v2h-1zm-8,1h1v2h-2v-1zm38,0h1l1,2v1h-1l-2-1v-1zm-46,1h1v2h-1zm11,1h1v1l-1,1h-1v-1zm27,0h2v1l-1,1h-1zm-23,1h1v1l1-1h1v1l-1,2h-1l-1-2z"/><path d="M180,205h1v1l-1,1h-1v-1zm23,0h1l1,2v1h-2zm4,3h1l1,1v3h-1l-1-2v3l-2,1h-1l-1-1v-1zm-36,1h3l1,1l1,2v1h-4v-1l2-2l-1,1h-2zm25,0h1v2h-1zm5,3h1v3l-2,1h-3v-1l1-1h1l1,1v-2zm59,59h1v4h-1zm-6,1h1l1,1l1,12v3h-2l-1-5zm13,3h1v3l-3,6h-1v-3l1-4zm-7,1h1l1,2l1,6v4h-2l-1-3z"/><path d="M69,285h1v3h-1zm196,1h1v2h-1z"/></g><g style="fill:rgb(77,98,64);fill-rule:evenodd;stroke:rgb(77,98,64);stroke-width:0.1;" id="l15"><path d="M34,0h1v1h-1zm47,0h5v3l1-3h1l1,3v1l-5,1h-5v-1zm2,2v1h1v-1zm37-2h1v3h-1zm24,0h2v2h-2zm41,0h1l2,11v1l-5,5l-7,2h-2l-6-6v-2l1-4l3-6zm-11,16l10-4h-1l-6-2v1zm18-16h4v1l-1,1h-2l-1-1zm38,0h1v3l3-3h1v5h-2l-2-1l-1-1zm4,3h-1v1h1zm36-3h1v1h-1zm4,0h12v3l-12,6l-5,1h-2v-1l1-3l2-4z"/><path d="M10,2h3v1h-3zm16,1h1v1l-1,1h-1v-1zm107,0h4v1h-4zm117,0h2v1l-1,3l-1,2h-1l-1-1v-1l1-3zm-176,1h1l3,1v3h-1l-2-1c0-2-1-1-2-1v-1zm46,0h1v1l-1,1h-1v-1zm165,0h2v2h-2zm-174,1h2v1h-2zm153,1h2v1l-2,1h-1v-1zm-224,1h2l1,1v4h-2v-1l1-2l-1,2h-1zm94,0h1l1,1v1l-1,6h-2l-1-1v-1l1-5zm8,0h3l1,1v1l-1,1h-2l-1-2zm-91,1h1v2h2v1h-2l-1-1zm49,0h4v1l-2,1h-1l-1-1zm-25,3h2v1h-2zm-24,1h1l2,1v3h-3l-1-1v-1z"/><path d="M139,13h6l2,1v1h-8zm-102,2h2v1h-2zm72,0h1v2h-1zm-19,1h3v1h-3zm7,0h1v2h-2v-1zm-64,3h1v2h-1zm14,0h1v2h-2v-1zm59,1h2v1h-2zm87,0h5l6,2l4,2l1,1v1l-1,1h-1l-11-1l-4-4v-1zm9,5v-1h-2v1zm-45-3h1l3,1l1,1v1h-1l-4-1zm8,0h2l1,1l1,3v1l-1,5l-2,2h-3v-5l1-6zm-89,1h2l3,3v1h-1l-3-2l-1-1zm105,1h11l19,6l2,1l3,2l4,4v3h-1l-5-5l-3-3v-1l-1,1l-38,8h1l16,2l2,1l1,1v3l-2,4l1-1l2-1l7-1h2l12,3v1l-4,7h-1l-42-3l1,1v1h-1l-1-1v-1l2-4l1-1l3-2h1v-3l-11,7h-6v-16l20-11h6h-2v-1zm5,21v1l-1,1h4v-1l1-2l-1,1zm9,7v-1l-2,2h2zm-8-21v-1l1-1h-1l-5-1v1l-2,3l5-1zm2-3v-1h-1v1zm-11,2l-2-2v2z"/><path d="M75,25h1v1l-1,1h-1v-1zm36,0h4l2,2v1h-6zm170,0h1l1,1v2h-3v-2zm-248,7h1v1l-2,2h-1v-1zm78,0h2l2,2v3h-1l-1-3v-1l-2,1h-1v-1zm7,1h1v2h-1zm136,0h2v1h-2zm-241,1h1v1l-1,1h-1v-1zm9,0h2v1h-2zm81,1h2v1h-2zm6,0h1v3h3v1h-3l-1-1zm118,0h3l1,1v1h-1q0-1-1,8l-2,3h-3l-1-1v-1zm-135,1h1v2l-1,1h-1l-2-1v-1h2l1,1zm27,0h1v5l-3,1h-2v-3z"/><path d="M281,36h4l1,1l1,2v1l-2,2h-1l-3-1l-1-1v-3zm-40,1h1v1l-1,2l-5,5h-4l-1-3v-2h1c5,3,5,2,8-2zm-92,3h4v2l-2,1h-2zm-49,1h2l1,1v1h-4v-1zm114,0h7v1l-1,1h-1c-5-1-5,0-6,2h-1v-2zm0,4h4v1h-4zm32,0h8l2,2v1l-1,2l-9,4h-4l-2-1l-1-1v-4l1-1l2-1zm-5,4l1,3v1l3-1h1l-3-3v-1l-1,1zm-241-3h1l3,1l1,1v1h-4l-1-1z"/><path d="M219,47h1v1l-1,1h-1v-1zm-210,1h1l1,1v2l-1,2l-7,8l5-1h2l1,1v1l-6,2h-3l-1-1l-1-3v-8l10-3h-1zm221,3h1l2,2v2l-3,1h-1v-1l1-1h1l-1-2zm56,1h2v5l-1,1h-3v-3l1-2zm-105,1h2l2,1v1h-2l-2-1zm95,0h2v2h-1l-1-1zm-266,1h1l4,1l2,1l2,3l1,2v1l-4,2h-4v-1c3-3,2-3-1-4l-1-1zm142,1h2v1l-1,2h-1l-1-1v-1z"/><path d="M137,56h2l5,2v1h-3l-4-1zm93,1h1v3h-1zm-46,1h2v1l-1,1h-1zm-16,2h1v2h-1zm49,1h3v1h-3zm-95,2h2v1l-1,1h-5v-1zm-72,1h1v4h-1l-1-1v-2zm87,0h1l2,1v1l-1,2l-1,1h-1l-1-1v-2zm-115,1h1l1,1v3h4v1h-5l-1-4zm172,0h1v2h-1zm89,2h3v1h-3zm-276,2h4v3h-6v-1zm40,0h1l4,4v1h-1l-6-1v-1l1-2zm110,0h1v2h-1zm-130,2h1l1,2v1h-1l-1-1zm13,1h2v1h-2zm38,0h2v2h-2z"/><path d="M0,73h1l1,1v1h-1l-1-1zm16,0h2v1l-2,1h-1v-1zm3,1h1l3,1v1h-3l-1-1zm249,1h5v1c-4,0-3,2-3,3h-1l-2-1v-2zm-254,1h1l4,2l2,2v2h-1l-4-3l-2-2zm10,0h2l5,1v1l-1,3h-1l-2-1l-3-3zm250,0h2l2,1v1h-3l-1-1zm-268,1h1l2,2v1h-1l-2-2zm30,1h1v2h-1zm243,0h2l1,1v1h-1l-2-1zm-18,1h6l7,1l3,3v3h-1l-14-4l-1-1zm22,0h1l1,2v2l-2,1h-1v-2z"/><path d="M10,80h1l1,1v1h-1l-1-1zm265,0h2l4,2v1h-2l-4-2zm-250,1h1l2,4v1h-2l-4-2v-2zm6,0h2v3h-1l-1-1zm92,0h1v2h-1zm-56,1h3v1h-3zm-67,1h14v2l-1,1h-3l-8-1l-2-1zm268,1h1v2h2v2h-2l-1-1zm-235,1h1v1l-1,1h-1v-1zm240,1h2v1h-2zm-187,5h3v1h-3zm6,1h2v1h-2zm-8,1h2v1h-2zm-68,1h1l3,3v1h-2l-3-1l-1-1v-1h1l1,1zm41,0h4v1h-4zm40,2h4v5l-4,4h-3v-1l5-4h1l-3-3z"/><path d="M10,97h3v1h-3zm21,5h2v1h-2zm19,0h2v1h-2zm41,3h2v1h-2zm-2,1h1v1l-4,4h-1v-1zm-10,12h1v1l-1,1h-1v-1zm-6,2h2v1h-2zm-5,1h2v1l-2,1h-5v-1zm36,6h2l2,1v2h-1l-3-1zm0,3h1l1,1v1h-1l-1-1zm-48,1h1l1,1v1h-1l-1-1zm-9,1h1v1l-1,1h-1v-1zm14,0h1l1,1v6h-1l-1-6zm-8,2h1v1l-1,1h-1v-1zm-6,1h1l1,1l1,3v2h-2l-1-5zm50,0h2v7h-7v-1l4-5zm7,0h1v1l-2,3l-2,2h-1v-1l2-3z"/><path d="M107,138h1l1,2v1h-1l-1-1zm-19,3h1v1l-2,2h-2v-1zm-9,2h4v1h-4zm-4,1h2v1h-2zm-4,1h3v1l-3,1h-1v-1zm13,1h3l3,3v1l-3,3h-1v-3l2-2h-5v-1zm-4,1h2v1l-2,1h-1v-1zm-10,1h1l1,1v1h-1l-1-1zm3,2h2v2h-1v-1l-1,1h-1v-1zm-68,1h5l1,1v1h-3l-3-1zm91,0h1l1,1v1h-1l-1-1v2h-1v-2zm-9,3h1v3l-1,1h-1v-2zm-86,2h1v4h-2v-3zm94,0h1l1,1v2l-2,1h-1v-1l1-1h1l-1-1zm-3,5h1l1,2v1h-1l-1-1zm-11,1h2v1h-2z"/><path d="M122,164h1v1l-1,1l-4,2h-1v-2zm-122,16h1v1h-1zm0,2h2v1h-2zm221,8h1v2h-1zm61,19h2v1h-2zm-104,35h1v1l-2,2h-1v-1z"/></g><g style="fill:rgb(199,197,151);fill-rule:evenodd;stroke:rgb(199,197,151);stroke-width:0.1;" id="l16"><path d="M55,0h5l3,3l1,2v1h-1l-4-4v-1l-5,2h-2v-1zm11,0h2v2l-1,2l-1,1h-1v-1zm4,0h2v1l-2,1h-1v-1zm23,0h10v1l-6,1h-4zm55,0h1v2h-1zm7,0h1l1,1v4l-6,4h-1l-3-3v-3h2c2,2,2,1,7-2h-1zm52,0h10l1,2l3,13v6h3l-5-10v-1l4-4h5l6,3l5,11l2,5l1,3v2l-2,1h-2l-3-1l-1-7v-2l1-3l-4,12h-4l-2-1l-27-18v-2zm1,12h3l-1-4v-1l-4,1h-1zm19,12h2v-3l-3,1h-2zm0-17h-3v1l-2,3h1l3,3l3,5v-1l2-4h-4z"/><path d="M30,1h1l1,1l2,4v1l-2,3l-1,1h-2l-2-1v-2l3-2l-3,2h-1v-1zm28,4h2l7,6l1,1v2h-1c-5-3-5-2-6,1h-1l-3-6v-3zm8,10h1v1l-1,1h-1v-1zm175,2h1l3,6v2h-2l-1-1l-2-4v-2zm-205,2h3v1h-3zm87,3h1l1,1v2l-1,1h-1l-1-1v-2zm129,2h2v2h-3v-1zm-121,5h8l1,2v4l1-2l3-2h1v3l-1,3h-1l-5-1l-2-1l-4-3l-1-2z"/><path d="M125,31h2v2h-2zm-88,3h2l6,2v1l-9,4h-1c0,7,4,4,6,3h1l4,2v1l-7,3l7-3h1l2,2v2l-1,1h-1l-1-1l42,9v-6h1c0-5-1-5-3-6l-2-6v-1l46-1h3l10,3l1,1v3l-1,1h-1v-2l1-1h-1v-1l-4,4h3v1l-16,9l-35,14h1v1h-2l-57-9l-18-18v-2l6-5l3-1zm-16,6v2h1v-2zm11,22h2v-2zm1-5l4-2h2l5,2l-2-4v-1l-6,2h-2l-1-1zm64-3h-2l-5-3v8l2-1h1l7,4l-1-1l-2-6zm27-12v1l-2,1h-2l3,3v2l-1,2h2l3,1v-2l2-7h-4z"/><path d="M46,35h2l7,2l3,2v1h-9l-3-4zm29,0h4v1l-2,2h-3v-1zm-12,4h3l16,2v1l-9,4h-3l-11-5v-1zm162,12h3v1l-1,1h-2zm-7,2h1l8,4v1l-3,1h-5l-1-1l-1-3v-1zm-191,4h1v2h-1zm82,3h4l1,4v1h-2l-3-3zm-6,6h4l1,1v2l-2,2h-1v-2l1-2l-4,3h-1v-3z"/><path d="M111,67h1l2,1v1l-1,2l-2,1h-1v-1zm-29,2h2v1h-2zm-22,1h3v2c-1,2,1,2,3,3l1,1v1h-2l-2-1l-1-1v2l-1,1h-2l-1-1v-2c3,0,1-2,1-3zm7,2h2v1h-2zm3,1h1l1,1v1h-1l-1-1zm24,1h5v2h-4l-1-1zm-12,2h1v2h-2v-1zm126,17h1v2h-1zm-5,2h2v1h-2zm10,0h2v1h-2zm-13,1h1v4l-1,1h-2v-1c2,0,1-1,1-3zm15,2h1l2,5v4h-2l-1-4zm1,11h1v2l-1,2h-2v-1zm-9,2h1l1,1v1l-1,2h-2v-1l1-1h1l-1-1zm-5,2h2v2h-1l-1-1z"/><path d="M182,116h1v2h-1zm-9,18h1v1l-1,1h-1v-1zm21,0h1l2,2v1h-1l-2-2zm18,1h1v1l-1,1h-1v-1zm6,0h1v2l-1,4h-2v-2zm-96,132h9l4,1v2h-1l-9-1l-1-1v1l-4,6h-1v-3l2-4zm18,4h3v1h-3zm-10,3h1v2h-1zm-11,2h1v2h-1zm40,0h1l2,1v1h-5v-1zm5,2h3v1h-3zm5,0h1l2,1v1h-2l-1-1zm12,0h3l1,1v1h-4zm-63,1h1v4h-1zm10,3h1v3l-2,2h-1v-2zm-10,2h1v1l-1,3h-1v-3z"/></g><g style="fill:rgb(180,149,161);fill-rule:evenodd;stroke:rgb(180,149,161);stroke-width:0.1;" id="l17"><path d="M90,51h1v2h-1zm115,41h2l1,2v1l-1,1h-2v-1h2l-2-2zm5,1h5l1,1l2,6v3h-1l-1-2l-1-3v-3h-6v-1zm-8,1h1v2h-1zm-3,2h1v1l-1,1h-1v-1zm-3,4h1l1,1v1h-1l-1-1zm-3,4h1v2l-4,4h-1v-1l3-4zm24,3h1v2h-1zm-61,2h3v3l-1,4l-2,1h-3v-2h2l1,1l-2-2v-1l1-3zm-5,1h1v4l-1,4l-1,1h-2v-4l2-4zm36,0h1v1l-1,1l-2,1h-2v-1l1-1zm29,1h1v3l-2,4h-1v-5z"/><path d="M168,112h1l13,1l9,1l8,3v3l-14,29l-14,11l-5,1h-2l-1-2v-1l4-4h2v-2l-5,5h-5l-18-7l-2-5v-1l1-9l8-2h2l1,1v1l-6,3q-1,0,8,4l4,2c10,6,10-9,24-24l1-1h-1v-1h-5h1v1h-7l-5-1l-2-1l-1-1v-1zm-2,4v1h1v-1zm8,18h-1v1h1zm-20,12h-1l-1-1v1l-2,1h1l1,1v-1zm-5,3h-1l2,2l-1-1zm20,9h1l1,1v-3h-2zm6-13l5-1h3h-1l-5-2v1zm13-30h-1v1h1zm-14,1v-1h-1v1zm6,31v2h1v-3zm-9-31v-1l-2,2l1-1z"/><path d="M201,112h2v1h-2zm4,0h3v1l-2,2h-2v-2zm-46,1h4v1l-3,1h-1zm52,6h3v1h-3zm-53,1h1l1,2v1h-4v-2zm42,0h4v1h-4zm8,0h2v1h-2zm-15,8h1v1l-1,1h-1v-1zm-27,1h2v1h-2zm30,1h5l4,1v1l-2,2h-1l-6-3zm-4,1h2l21,2v1l-6,5h-9l-3-2l-3-3l2,3v6h-1l-1-2l-2-7z"/><path d="M190,132h1l1,6v7h-1l-1-7zm-50,1h3v1h-3zm78,0h1v2h-1zm-66,1h14v3l-2,1h-5l-6-2l-1-1zm66,3h1v6l-1,4l-2,6l-7,4h-6l-4-4l-2-3l-1-4v-2h1l8,8v-1l2-6zm-26,9h1l1,1v1h-1l-1-1z"/><path d="M186,149h1l3,1v1h-3l-1-1zm5,0h2v1h-2zm6,7h4l3,2l1,3v1l-1,1h-1l-2-4v-1l-3,1h-1zm-16,15h5l2,1l3,3v1l-1,1h-12v-4zm7,3h-2v1h2zm-53,94h1v2h-1zm13,5h2v1h-2zm42,2h2v2h-1v-1l-1,1h-1v-1zm-72,2h1v2h-1zm44,0h1l1,1v1h-1l-1-1zm8,1h2l1,1v1h-1l-2-1zm6,0h5v2h-4l-1-1zm8,0h2l1,1v1h-1l-2-1zm22,3h1v2h-1zm-88,2h1v1l-1,1h-1v-1z"/></g><g style="fill:rgb(183,187,122);fill-rule:evenodd;stroke:rgb(183,187,122);stroke-width:0.1;" id="l18"><path d="M103,0h3v1l-1,1h-3v-1zm53,0h1v1h-1zm50,0h1v4l-1,2l-3,2l-4,1c-1,0-1,2,6,2l30,7l7,12c0-2-1-2-4-5l-9-15l-1-3v-1h1l5,1l2,1l8,5v1q-1,0,11,9v5l-2,2l-11,2h-11l-4-1l-33-16v-4l1-2l2-2zm48,26v-2h-2v1l-1,1zm-11-7h-1l-1-2l4,8l-2-3zm-8,7v-1h-3l1,1v1l1-1zm-2-6h-2v2h2z"/><path d="M217,0h1l1,1c0,7,4,4,8,4v1l-7,4h-1l4,3l1,1l1,3v3l-1,1h-3l-8-5l-1-2v-3l2-7zm6,20v-1h1v-1h-3zm0-20h4v1l-1,2h-1l-2-2zm20,0h2v3h-3v-2zm-151,1h9v1c-3,0-2,2-2,3h-1l-4-1l-2-2zm22,0h1l1,1v1h-2zm49,1h3l1,1v2l-2,2h-2zm-6,1h1l1,1v2h-6v-1h4z"/><path d="M256,5h2v2l-1,2h-2v-3zm-197,3h1v3h-1zm91,3h2l1,1v2l-1,2h-1l-1-1zm37,5h3v3h-3zm-119,4h4v2h-3l-1-1zm56,2h1l3,1l9,5v2h-5l11,6v1q1,0-3-2l-1-4v-1l6-6h3v3l-2,19h-2l-19-11l-2-2l-1-3v-1zm1,9v2h2v-2zm7-2h-1v1h1z"/><path d="M92,28h2v1h-2zm-38,7h4l1,4v1h-1l-6-3v-1zm-19,1h1v1l-1,2h-2l-8-1v-1zm30,0h2l2,1l1,1l1,4q0,2,2-5l1-1h1l2,2l1,3v1l-3,2l-2,1h-2l-10-5v-1l2-2zm-42,1h1v1l-1,1l-3,1h-1v-1l1-1zm101,2h9l2,2l1,2v2h-1l-1-1l-1-2v-2l-3,1l-7,1h-1v-1z"/><path d="M4,41h5l17,1l4,1l2,1l5,6v1l-5,6l-4,3h-3l-1-1v-9l5-5l-7,4h-4l-12-3l-3-3v-1zm23,16v2h1v-2zm14-12h1l4,2v3h-7v-2l1-2zm66,1h1l1,1v2h-1l-1-2zm12,1h1v1l-3,3h-1v-1z"/><path d="M153,47h1l2,2v1c-2,0-1,1-1,2h-1l-2-1v-3zm-24,1h5v1l-1,6l-1,3l-1,1h-3l-3-1v-2zm-36,3h2l3,4l2,3v4h-2l-2-2v1h1l1,1v1h-3l-5-4l-1-2v-1l1-3zm-47,5h3l4,2v1h-7zm-9,2h4v1l-4,5l-1,1h-1v-1l1-5zm17,1h3l2,1l1,1v1h-1l-3-1l-2-1zm8,3h2v1h-2zm19,5h1l1,1v1l-1,1h-1z"/><path d="M57,74h4v1l-3,1h-1zm5,1h1l2,1v1h-3zm95,34h1v1l1-1h1v1l-1,1h-1l-1-1zm12,3h2v1h-2zm23,8h2v1h-2zm7,12h2l1,1v1h-1l-2-1zm-3,143h4v1h-4zm9,5h2v1h-2z"/></g><g style="fill:rgb(37,39,52);fill-rule:evenodd;stroke:rgb(37,39,52);stroke-width:0.1;" id="l19"><path d="M208,40h3v1h-3zm-39,17h1l1,1v1h-1l-1-1zm20,0h1v2h-1zm-14,1h1v1l-2,3l-1,1h-1v-1l1-2zm-22,1h1v2h-1zm7,0h1l1,1v1h-1l-1-1zm3,0h1v4h-1zm-16,1h5v1h-5zm42,2h2v1h-2zm-29,1h2v1l-2,1h-1v-1zm101,0h2v1h-2zm-69,1h1l1,1v1h-1l-1-1zm5,2h2v1l-1,1h-1zm-62,1h1v4h-1l-1-2v-1zm6,0h2l1,1v1h-1l-2-1zm8,0h1l1,1v1h-1l-1-1zm52,1h1v3h-4v-1l1-1zm-16,1h2v3h-2v-1h1l-1-1zm-52,1h1l2,4v1h-1l-2-1v3h-1l-1-1v-1l1-1h1l-2-2v-1z"/><path d="M144,70h2v1h-2zm47,0h2l3,3v5h-4v-1l2-3l1-1l-1,1h-1l-2-3zm-19,1h1l1,1v1h-1l-1-1zm-28,1h2v1h-2zm53,0h1v2l1-2h2v1l-1,1h-1l1,1v1h-3zm-43,3h2v1h-2zm10,0h5v1l-2,1h-1l-2-1zm-25,1h1v3l-1,1h-1v-3zm21,0h1v1l-1,1h-1v-1zm26,0h1l2,1v2h-1l-2-2zm-36,3h1l1,1v1h-1v-1l-1,1h-1v-1zm74,0h1v1l-1,1h-1v-1zm-78,1h1v5h-1l-1-2v-2zm32,0h2v1l-1,1h-1zm22,0h1v1l-1,1h-2v-1zm-28,1h1v1l-1,1h-1v-1z"/><path d="M148,82h2v1l-1,1h-1zm28,0h1l1,1v1h-1l-1-1zm9,0h1v2h-2v-1zm-55,1h2v1h-2zm31,0h2v1l-1,1h-1zm13,0h1l1,1v1h-1l-1-1zm-31,1h1l1,1v2h-1l-1-1zm14,0h1v1l-1,1h-1v-1zm-32,1h1l1,1v1h-1l-1-1zm-122,2h2l2,1l1,1l1,2v4l1-2l1-1h3v1l-1,2l-1,1h-5l-2-1v-1c3-3,2-3-2-6zm182,0h1v1l-1,1h-1v-1zm-44,2h2v2h-1l-1-1zm27,0h1l1,1v1l-1,1h-1v-1l1-1l-1,1h-1v-1zm8,0h1l2,2v1h-4v-1zm3,0h1v1l1-1h1v1l-1,1h-1l-1-1zm57,0h2v1h-2zm4,1h1l1,1v3h-1l-1-3z"/><path d="M82,92h1l1,1v1h-1l-1-1zm148,0h1l1,1v1h-1l-1-1zm-92,1h1l2,2v1h-1l-2-2zm22,1h2v1l-2,2h-1v-1zm8,2h2v1l-1,1h-1zm-30,2h1v2h-1zm-3,1h1v4h-1l-1-1v2h-1l-1-1v-1c2,0,1-1,1-2zm12,1h1v2l-1,2h-1v-3zm-8,1h2l1,1v1h-1l-2-1zm-10,2h1v2h-1zm35,0h2l1,1v1h-1l-2-1zm-28,3h2l1,1v1h-1l-2-1zm-9,1h1l1,1v1h-1l-1-1zm6,1h1l1,1l1,2v1l-1,3h-1l-1-1v-1l1-1h1l-1-1c0-2-1-1-2-1v-1zm12,0h1v1l-1,1h-1v-1zm-7,1h2l1,1v1h-1v-1l-1,1h-1zm8,1h2v1h-2zm-18,1h3v1l-1,1h-1l-1-1zm9,1h1v1l-1,1h-1v-1z"/><path d="M130,114h1v2h-1zm3,2h2c0,3,1,3,3,4v1h-2l-3-3zm-5,9h1v2h-1zm99,3h1v2l-1,2h-1v-2zm-98,1h1l2,7v1h-1l-1-1l-1-2zm2,9h2v1h-2zm-1,2h2l1,1v1h-1l-2-1zm1,3h1l1,1v1h-2zm-1,4h1v1l1-1h1v1l-1,1h-2zm-32,3h2v1l-1,1h-1zm3,0h3v1h-3zm28,2h1v2h-1zm3,0h1v3h-1zm87,4h2v1h-2zm-87,2h2v3h-1l-1-2zm92,0h1v2h-1zm-6,1h2v1l-1,1h-1zm-92,1h2v1h-2zm-27,1h1l2,2v1h-1l-2-2zm36,0h1v1l-1,1h-1v-1zm-8,1h1v2h-1zm90,0h2v1l-4,8h-3v-2h1v1v-3l3-4z"/><path d="M137,164h1v2l-2,2h-2v-1l2-1h1zm88,0h1v2h-1zm-95,1h1v2h-1zm-22,4h2v1l-1,1h-1zm30,1h1v3h-2v-2zm67,0h1v2h-1zm-74,1h2v1l-1,1h-2v-1zm-5,1h1l1,1v1h-1l-1-1zm86,0h1l1,1v1l-1,2h-1v-2l1-1l-2,3h-2v-2zm-83,2h2v2l-1,1h-1l1,1v2h-1l-1-2v-1zm30,1h1v1h-1l1,1v1h-1l-1-1v-1zm-5,1h2v1l-1,1h-1zm3,3h3l2,2v2h-1l-2-3l1,3v1l-1,1h-1l-1-5zm48,0h2v1h-2zm-82,1h1l1,1v1h-1l-1-1zm87,0h2v1h-2zm-57,1h1v2h-1zm-33,2h1v2h-2v-1z"/><path d="M201,183h1v2h-1zm18,0h1v1l-1,1h-1v-1zm-87,1h1v2h-1zm23,1h1l1,1v1l-1,1h-1v-1h1l-1-1zm5,1h1v1l-1,1h-1v-1zm40,1h1v5h-2v-4zm75,0h1v2h-1zm-111,1h1v1l-1,2h-1l-1-1v-1zm-5,1h2v1l-1,1h-1zm44,1h1v2h-1zm-42,1h1l1,1v1l-1,1h-1v-1h1l-1-1zm57,0h1v2h-1zm-82,1h1v2h-1zm28,0h1v2h-1zm33,1h2v4h-1l-1-2zm-11,1h2v1h-2zm8,0h1l3,4l1,2v2l-2,1h-1v-2c1-3-1-3-3-5l1,1v3h-1l-1-1v-3zm-45,1h1v2h-1zm18,0h1l1,1v1h-2zm22,0h1l1,1v1l-1,1h-1z"/><path d="M181,196h1v2h-1zm-11,1h1v2h-1zm17,0h1v2l-1,2h-1v-3zm31,0h1v2l-4,4h-3v-1l4-4zm-57,1h1l2,1v1l-3,1h-1v-1zm5,1h3l1,2v2l-1,1h-2v-3l1-1l-1,1h-1zm9,0h1l2,1v1h-2l-1-1zm-3,1h2v1h-2zm16,0h1v2l-2,2h-2l-1-1v-1h1c2,1,2,0,3-2zm14,1h1l1,1v1h-2zm-44,1h1l1,1v1h-1l-1-1zm18,1h2v1c-1,1,0,1,1,2v1h-3zm-13,2h1l1,1v1h-1l-1-1zm34,0h1v2h-1zm15,2h1v2h-1zm-49,1h1v1l-1,1h-1v-1zm5,0h1v2h-1zm31,0h1v2l-1,1h-1l1,1v1h-2v-3z"/><path d="M210,209h1v1l-1,2h-1v-2zm1,2h1v2h-1zm-39,2h1l1,2v1l-1,1h-1zm30,3h3v1l-3,1h-1v-1zm-27,2h4v1l-3,1h-1zm23,1h1v1l-1,2h-2l-1-1v-1h1c1,1,1,0,2-1zm-12,19h1v1l-4,4h-1v-1l1-2l1-1zm-25,19h1l1,1v1h-1l-1-1zm3,0h2v1h-2zm45,1h2v1l-1,6h-1zm35,1h1v6h-1zm-78,1h2v1h-2zm88,2h1l1,3v5h-1l-1-5zm7,0h1v6h-1zm-93,1h1l2,1l1,2v1h-1l-2-1l-1-1zm65,7h1v4h-1z"/><path d="M69,273h1v10h-1zm198,0h1l1,1v1h-1v-1l-1,1h-1v-1zm-58,1h1v5h-1zm50,0h1v2h-1zm-6,1h2v1l-1,5h-1zm-179,2h1v2h-1zm152,1h1v3h-1zm33,0h1v2h-1zm3,2h1v1l1-1h1v1l-1,1h-2zm-196,2h1v3h-1zm193,0h2v1l-1,1h-1zm6,0h1v2h-1zm-38,1h1v4h-1zm26,1h1v2h-1zm17,1h1v1l-1,2h-1v-2zm-11,2h1v1h-1zm7,0h2v1h-2z"/></g><g style="fill:rgb(111,109,127);fill-rule:evenodd;stroke:rgb(111,109,127);stroke-width:0.1;" id="l20"><path d="M186,53h1v1l1-1h1v2l-1,1h-1l-1-2zm-4,1h1v1l-1,3h-1l-1-1v-1zm47,4h1v2l-1,1h-1v-1zm-54,1h2v1h-2zm10,0h1l1,3v1h-1l-2-1v-2zm-7,1h2v1l-1,1h-2v-1zm-52,2h1l1,1v1h-1l-1-1zm4,0h1v2h-1zm74,1h2v1h-2zm4,1h2v1l-2,1h-1v-1zm-13,1h2v1h-2zm-29,1h1v1l-1,1h-2v-1zm1,2h1v1l-1,1l-2,1h-1v-2zm-17,1h2v1h-2zm8,1h3v1h-3zm-9,1h3l1,1v1h-5v-1zm57,0h1v3h-1zm-47,2h8v1l-1,1l-4,2h-1l-2-2zm-54,1h2v1l-2,1h-1v-1z"/><path d="M157,75h1v1l-1,1h-1v-1zm39,0h1v2h-1zm16,0h1v1l-1,1h-1v-1zm-8,2h1v1l-1,1h-2v-1zm-19,2h1l1,1v2h-1l-1-1zm95,0h1l1,1v1h-1l-1-1zm-123,1h1v1l-1,1h-2v-1zm13,1h2v1h-2zm25,0h1v2h-1zm-190,2h3v1h-3zm225,5h1v2h-1zm-196,6h2v1h-2zm-2,1h1v1l-1,1h-1v-1zm18,0h2v1h-2zm-27,2h3v1h-3zm-20,1h3v1h-3zm8,0h2v1h-2zm162,4h1v1l-1,1h-1v-1zm45,20h1v2l-1,1h-1v-2zm-53,4h1v1l-1,1h-1v-1zm-31,14h1v2h-1zm0,4h1l2,5v1h-2l-1-2zm-9,4h1v2h-1zm12,5h1l1,1v2h-1l-1-2zm4,6h2v1h-2zm5,1h2v1h-2z"/><path d="M213,161h1v1l-1,1l-2,1h-1v-1l1-1zm-47,1h1l1,1v1h-1l-1-1zm-4,2h3v1l-1,2h-2zm-7,2h1l1,1v1l-1,1h-1v-1h1l-1-1zm5,0h1v2l-2,1h-1v-1zm44,0h1l1,1v1h-1l-1-1zm-30,12h2v1l-1,1h-1zm-3,1h2v3l-2,4h-5l-2-5v-1h2l2,2v3l1-2l1-1c2,0,2-1,1-1zm2,4h1v1l-1,1h-1v-1zm20,0h1v2h3v1h-4zm4,0h2v1h-2zm-18,4h1l1,1v1h-1l-1-1zm-50,3h2v1l-1,2l-2,2h-1l-1-1v-2zm44,0h1v2h-1zm-47,6h3l1,1v1h-5v-1z"/><path d="M133,197h3v1h-3zm-6,1h1l4,3v4l1-3h1l1,1v1l-1,2l-5,3h-1l-1-4zm-8,11h1v2h-1zm7,3h1v2h-1zm4,9h1l1,1v1h-1l-1-1zm8,5h1l1,2v1h-1l-2-1v-1zm48,0h1v2l-1,7l-3,4l-4,5h-1l-1-1v-1l5-14zm-7,5h2v2h-1l-1-1zm-20,7h1l1,1v1h-1l-1-1zm17,6h1v1l-2,2l-4,2h-4l-4-1v-2z"/><path d="M125,266h2v1h-2zm-85,21h1v1h-1zm76,0h1v1h-1z"/></g><g style="fill:rgb(23,26,11);fill-rule:evenodd;stroke:rgb(23,26,11);stroke-width:0.1;" id="l21"><path d="M125,0h3v2h-1l-2-1zm-123,4h1l3,1l1,1v2h-2v-2l-3,2h-2v-3zm101,1h2v1h-2zm-86,1h1l4,2l4,4v1h-5l-3-3l-1-2zm96,2h1v5l-1,1h-2v-4zm4,0h2v1h-2zm169,0h2v7l-7,2h-2h8l1,6v5l-1,1h-1l-11-8v-1l1-2z"/><path d="M122,10h1l1,1v1l-4,3h-4v-1l1-1zm129,0h1l2,1v1h-3zm-230,4h7v1h-5v2h-1l-1-2zm-2,1h1v1l-1,1h-1v-1zm-12,2h1v2h-1zm109,0h2l1,1v2l-1,1h-1v-1l1-1h-3v-1zm-59,1h2v1h-2zm213,0h2v1l-2,4l-3,1h-1v-1l3-4zm-268,1h1l2,2v2l2-2h1l3,2v1l-7,1h-2zm7,0h2v1h-2zm4,2h1v2h-1zm89,3h1v2l-1,1h-1v-1zm171,0h3l2,1v3h-3l-2-2zm-158,7h1l1,1v1h-1l-1-1z"/><path d="M101,33h1v2h-1zm97,0h1l4,3v1h-10v-2zm52,20h2v1l-1,1h-2v-1zm15,6h2v1h-2zm0,30h2v1h-2zm-46,4h3v2h-1l-2-1zm65,6h4v1h-4zm-62,16h1l1,1v1h-1l-1-1zm-24,11h2v1h-2zm70,14h1v2l-1,1h-1v-1zm-114,77h2l1,1v1h-1l-2-1z"/></g><g style="fill:rgb(154,175,95);fill-rule:evenodd;stroke:rgb(154,175,95);stroke-width:0.1;" id="l22"><path d="M161,0h2v3h-1l-1-2zm58,0h2v1l-1,2h-1zm3,0h1v1h-1zm15,0h4l1,6v-1h1v1l-1,1h-1l-3-1v-1c2-2,1-2-1-4zm23,0h8v1l-1,1l-3,1h-2l-2-2zm-55,1h1v2l-3,3h-1v-1zm40,1h1v1l-1,1h-1v-1zm-84,2h1c0,4,2,4,3,5v-1l1-2h1v2l-2,2h-2l-2-1l-2-2v-2zm57,1h2v1h-2zm-65,2h1v1l-1,3h-1l-1-1v-1zm41,2h1v1l-1,2h-1v-2zm-45,2h1v3h-1zm4,1h1v3l-2,2h-1v-1z"/><path d="M193,13h1l7,2l5,2l2,1l4,3v1h-2l-24-2l-1-3v-1l1-1zm-6,3v3l3-1h1l-1-1v-1zm-32,1h1v2h-1zm23,3h2v1l-1,1h-1zm-27,5h1v1l-1,1h-2l2,4v1h-1l-2-1l-1-2v-1l2-2zm19,7h2v2h-3v-1zm-23,3h1l1,1v1l-1,1h-1v-1h1l-1-1zm-7,3h1v2h-1zm-69,2h1l3,1v1h-3l-1-1zm75,0h2v1l-1,3h-1zm-143,1h1v1c-1,1,0,1,1,2v1h-1l-2-1v-2zm6,4h2v1h-2zm15,0h1v1l-1,2c3,0,2-2,2-3h3v2l-2,2h-4v-3z"/><path d="M12,46h1l4,2v1h-2l-2-1l-1-1zm140,0h1v2h-2v-1zm-133,3h3l4,4v2h-1l-6-5zm132,1h1v2h-1zm-19,1h2l1,2v3l-1,1h-2v-1l1-1h1l-1-1l-1-2z"/></g><g style="fill:rgb(43,53,39);fill-rule:evenodd;stroke:rgb(43,53,39);stroke-width:0.1;" id="l23"><path d="M38,6h2v1h-2zm249,1h1v1h-1zm-268,15h6l1,1v3l-1,1l-3,1h-2l-1-1l-1-2v-2zm265,4h1v2h-1zm-99,9h3v1h-3zm29,1h1l1,1v3h-1l-1-3zm-31,1h2v2l-1,1h-2v-2zm-8,1h2l2,1v2h-2l-2-1zm1,19h1v2h-1zm-7,4h1v1l-1,1h-1v-1zm98,0h2v3h2v1h-2l-3-1v-1zm10,3h1l10,6v2h-5l-2-1l-2-2l-2-4zm-47,5h3l2,1v1h-2l-3-1zm4,6h5c0,4,4,2,6,2l1,1v3l-3,2h-4l-5-4l-1-1v-2zm0,2h1l3,1l-1-1v-1h-3z"/><path d="M279,77h2l1,1v1h-1l-2-1zm-20,2h1v2h-1zm28,7h1v3h-1zm-17,2h2v1h-2zm-121,5h2v1h-2zm-148,3h5v1h-5zm223,31h2l1,1v2h-1l-3-1v-1zm0,4h2v1h-2zm30,3h1v2h-1zm21,0h4v3h-4zm-166,4h1v2h-1zm140,12h2v1h-2zm-147,4h1l2,4v1h-1l-2-1zm-5,2h1l1,1v1h-1l-1-1zm125,27h2v1h-2z"/></g><g style="fill:rgb(68,76,116);fill-rule:evenodd;stroke:rgb(68,76,116);stroke-width:0.1;" id="l24"><path d="M51,224h1l2,1v1h-2l-1-1zm204,12h1v3h-1zm-13,9h1v3h-1zm-146,2h1v2h-1zm113,0h2v1h-2zm12,1h1v2h-1zm-7,1h2v3h-1l-1-2zm-118,1h2v1h-2zm146,0h1v3h-1zm19,0h1v2h-1zm-115,2h1l1,1v1l-2,1h-1v-1zm120,0h1v1l-1,1h-1v-1zm-15,1h2v1l-2,1h-1v-1zm-15,1h1l1,1v1h-1l-1-1zm-89,1h1l1,1v1h-1l-1-1v2h-1v-2zm111,0h1v1l-1,2h-1v-2zm-160,2h1l1,1v1h-2zm116,3h1v2h-1zm28,6h1v2h-1zm-27,2h1v2h-1zm-115,2h1v1h-1l1,1v1h-1l-1-1v-1zm80,0h1v1l-1,1h-1v-1zm69,3h1v3h-1zm-145,3h1l1,1v1l-1,1h-2v-1c2,0,1-1,1-2z"/><path d="M274,276h4v1l-3,5h-1zm-175,2h2v1h-2zm7,1h1v1l-1,2h-1v-2zm-15,1h1v1l-1,1h-1v-1zm147,2h1v2h-1zm-132,1h2v1h-2zm-5,1h4v1l-1,1h-1l-2-1zm115,0h1v2h-1zm20,2h1v2h-1zm2,0h1v2h-1zm-151,1h1v1h-1zm8,0h1v1h-1z"/></g><g style="fill:rgb(108,124,172);fill-rule:evenodd;stroke:rgb(108,124,172);stroke-width:0.1;" id="l25"><path d="M111,215h1l1,1v1h-1l-1-1zm12,4h1v4h-1zm-63,3h1l1,1v1h-1l-1-1zm65,9h1v3h-1zm-88,4h2v1h-2zm55,2h2l1,1v1h-2l-1-1zm17,0h1l1,1v1h-2zm9,0h1l1,1v1h-1l-1-1zm-7,3h1v1l1-1h1v1l-1,1h-1l-1-1zm-91,11h2l2,1v1h-2l-2-1zm266,20h1v1l-3,3h-1v-1z"/></g><g style="fill:rgb(60,77,116);fill-rule:evenodd;stroke:rgb(60,77,116);stroke-width:0.1;" id="l26"><path d="M267,237h1v2h-1zm-191,8h1v2h-1zm211,12h1v1h-1zm-11,10h1v1l-1,2l-1,1h-2v-1zm9,8h2v2h-1l-1-1zm-14,2h1v1l-1,1h-1v-1zm6,10h1v1h-1z"/></g><g style="fill:rgb(100,127,176);fill-rule:evenodd;stroke:rgb(100,127,176);stroke-width:0.1;" id="l27"><path d="M124,225h1v3h-1zm-111,25h2v1h-2zm-3,9h1v2l-2,1h-1v-1z"/></g><g style="fill:rgb(21,11,17);fill-rule:evenodd;stroke:rgb(21,11,17);stroke-width:0.1;" id="l28"><path d="M160,125h1l1,1v1h-1l-1-1zm-5,1h2v1h-2zm-7,3h1v1l-1,1h-1v-1zm54,47h1v2h-1z"/></g><g style="fill:rgb(180,204,80);fill-rule:evenodd;stroke:rgb(180,204,80);stroke-width:0.1;" id="l29"><path d="M261,0h6v1l-3,1h-2l-1-1z"/></g><g style="fill:rgb(124,76,85);fill-rule:evenodd;stroke:rgb(124,76,85);stroke-width:0.1;" id="l30"><path d="M174,124h2v1l-2,1h-1v-1z"/></g></svg>